<svg xmlns="http://www.w3.org/2000/svg" xmlns:xlink="http://www.w3.org/1999/xlink" width="17" height="20" viewBox="0 0 17 20"><defs><path id="toata" d="M955.58 30.24a2.51 2.51 0 0 1-4.9 0h-9.91a.58.58 0 1 1 0-1.16h9.92a2.51 2.51 0 0 1 4.89 0h.64a.58.58 0 1 1 0 1.16zm-2.45-1.94a1.35 1.35 0 1 0 0 2.71 1.35 1.35 0 0 0 0-2.7zm-6.83-5.02a2.51 2.51 0 0 1-4.88 0h-.65a.58.58 0 1 1 0-1.16h.65a2.51 2.51 0 0 1 4.88 0h9.92a.58.58 0 1 1 0 1.16zm-2.44-1.93a1.35 1.35 0 1 0 0 2.7 1.35 1.35 0 0 0 0-2.7zm5.92 15.84a2.51 2.51 0 0 1-4.89 0h-4.12a.58.58 0 1 1 0-1.16h4.12a2.51 2.51 0 0 1 4.9 0h6.43a.58.58 0 1 1 0 1.16zm-2.44-1.93a1.35 1.35 0 1 0 0 2.7 1.35 1.35 0 0 0 0-2.7z"/></defs><g><g transform="translate(-940 -20)"><use fill="#0096d0" xlink:href="#toata"/></g></g></svg>