<?xml version="1.0" encoding="UTF-8"?>
<svg width="27px" height="25px" viewBox="0 0 27 25" version="1.1" xmlns="http://www.w3.org/2000/svg" xmlns:xlink="http://www.w3.org/1999/xlink">
    <!-- Generator: Sketch 47.1 (45422) - http://www.bohemiancoding.com/sketch -->
    <title>ico_team</title>
    <desc>Created with Sketch.</desc>
    <defs>
        <path d="M13.5,12.2 C15.525,12.2 17.1818182,10.58 17.1818182,8.6 C17.1818182,6.62 15.525,5 13.5,5 C11.475,5 9.81818182,6.62 9.81818182,8.6 C9.81818182,10.58 11.475,12.2 13.5,12.2 Z M13.5,6.2 C14.85,6.2 15.9545455,7.28 15.9545455,8.6 C15.9545455,9.92 14.85,11 13.5,11 C12.15,11 11.0454545,9.92 11.0454545,8.6 C11.0454545,7.28 12.15,6.2 13.5,6.2 Z M20.5568182,17.36 C20.5568182,15.14 18.7772727,13.28 16.5375,13.13 L16.2613636,13.1 L16.0772727,13.28 C15.3715909,13.94 14.4511364,14.3 13.5,14.3 C12.5488636,14.3 11.6284091,13.94 10.9227273,13.28 L10.7386364,13.1 L10.4625,13.1 C8.22272727,13.28 6.44318182,15.14 6.44318182,17.36 L6.44318182,20 L20.5568182,20 L20.5568182,17.36 Z M19.3295455,18.8 L7.67045455,18.8 L7.67045455,17.36 C7.67045455,15.86 8.80568182,14.57 10.3090909,14.36 C11.1988636,15.08 12.3034091,15.5 13.5,15.5 C14.6965909,15.5 15.8011364,15.08 16.6909091,14.33 C18.1943182,14.57 19.3295455,15.83 19.3295455,17.33 L19.3295455,18.8 Z M24.5454545,9.8 C24.5454545,8.15 23.1647727,6.8 21.4772727,6.8 C19.7897727,6.8 18.4090909,8.15 18.4090909,9.8 C18.4090909,11.45 19.7897727,12.8 21.4772727,12.8 C23.1647727,12.8 24.5454545,11.45 24.5454545,9.8 Z M19.6363636,9.8 C19.6363636,8.81 20.4647727,8 21.4772727,8 C22.4897727,8 23.3181818,8.81 23.3181818,9.8 C23.3181818,10.79 22.4897727,11.6 21.4772727,11.6 C20.4647727,11.6 19.6363636,10.79 19.6363636,9.8 Z M23.9318182,13.7 L23.3488636,13.7 L23.1647727,13.88 C22.7045455,14.36 22.1522727,14.6 21.4772727,14.6 L21.4772727,15.8 C22.3977273,15.8 23.2261364,15.5 23.8704545,14.9 L23.9318182,14.9 C24.9443182,14.9 25.7727273,15.71 25.7727273,16.7 L25.7727273,17.6 L21.4772727,17.6 L21.4772727,18.8 L27,18.8 L27,16.7 C27,15.05 25.6193182,13.7 23.9318182,13.7 Z M2.45454545,9.8 C2.45454545,11.45 3.83522727,12.8 5.52272727,12.8 C7.21022727,12.8 8.59090909,11.45 8.59090909,9.8 C8.59090909,8.15 7.21022727,6.8 5.52272727,6.8 C3.83522727,6.8 2.45454545,8.15 2.45454545,9.8 Z M5.52272727,8 C6.53522727,8 7.36363636,8.81 7.36363636,9.8 C7.36363636,10.79 6.53522727,11.6 5.52272727,11.6 C4.51022727,11.6 3.68181818,10.79 3.68181818,9.8 C3.68181818,8.81 4.51022727,8 5.52272727,8 Z M5.52272727,17.6 L1.22727273,17.6 L1.22727273,16.7 C1.22727273,15.71 2.05568182,14.9 3.06818182,14.9 L3.12954545,14.9 C3.80454545,15.5 4.60227273,15.8 5.52272727,15.8 L5.52272727,14.6 C4.84772727,14.6 4.26477273,14.36 3.80454545,13.88 L3.62045455,13.7 L3.06818182,13.7 C1.38068182,13.7 0,15.05 0,16.7 L0,18.8 L5.52272727,18.8 L5.52272727,17.6 Z" id="path-1"></path>
    </defs>
    <g id="Symbols" stroke="none" stroke-width="1" fill="none" fill-rule="evenodd">
        <g id="ico_team">
            <mask id="mask-2" fill="white">
                <use xlink:href="#path-1"></use>
            </mask>
            <use id="Mask" fill="#727272" fill-rule="nonzero" xlink:href="#path-1"></use>
            <g id="color-normal" mask="url(#mask-2)" fill="#727272">
                <rect id="Rectangle-3" x="0" y="0" width="27" height="25"></rect>
            </g>
        </g>
    </g>
</svg>