<svg xmlns="http://www.w3.org/2000/svg" xmlns:xlink="http://www.w3.org/1999/xlink" width="19" height="18" viewBox="0 0 19 18"><defs><path id="9bxwa" d="M51 184.03v-10.4c0-1.11.86-2 1.94-2h3.77v-.91c0-.95.75-1.72 1.67-1.72h4.27c.91 0 1.66.77 1.66 1.72v.91h3.75c1.08 0 1.94.89 1.94 2v10.4c0 1.11-.86 2-1.94 2H52.94a2 2 0 0 1-1.94-2zm17.9 0v-6.84H52.1v6.84c0 .48.37.85.84.85H68.1c.44 0 .83-.4.8-.85zM57.81 171.6h5.41v-.91a.57.57 0 0 0-.55-.57h-4.3c-.3 0-.56.25-.56.57zm-5.71 2.04v2.4h16.78v-2.4a.83.83 0 0 0-.83-.86H52.94a.85.85 0 0 0-.83.86z"/></defs><g><g transform="translate(-51 -169)"><use fill="#0096d0" xlink:href="#9bxwa"/></g></g></svg>