<svg xmlns="http://www.w3.org/2000/svg" xmlns:xlink="http://www.w3.org/1999/xlink" width="11" height="15" viewBox="0 0 11 15"><defs><path id="x30na" d="M1071.94 247.03v.82h2.2c.48 0 .86.39.86.86v1.07a.86.86 0 0 1-.86.86h-.2v8.33a1.9 1.9 0 0 1-1.88 1.9h-5.12a1.9 1.9 0 0 1-1.89-1.9v-8.33h-.2a.86.86 0 0 1-.85-.86v-1.07c0-.47.38-.86.86-.86h2.2v-.82c0-.57.47-1.03 1.04-1.03h2.8c.57 0 1.04.46 1.04 1.03zm-3.84.82h2.8v-.82h-2.8zm4.82 2.79h-6.84v8.33c0 .48.39.86.86.86h5.1c.48 0 .87-.38.87-.86zm1.05-1.75h-8.94v.72h8.94z"/><path id="x30nb" d="M1069.5 258.89c.28 0 .51-.23.51-.52v-5.82a.52.52 0 1 0-1.03 0v5.82c0 .29.23.52.52.52z"/><path id="x30nc" d="M1071.4 258.89c.28 0 .51-.23.51-.52v-5.82a.52.52 0 1 0-1.03 0v5.82c0 .29.23.52.52.52z"/><path id="x30nd" d="M1067.6 258.89c.29 0 .52-.23.52-.52v-5.82a.52.52 0 1 0-1.03 0v5.82c0 .29.23.52.52.52z"/></defs><g><g transform="translate(-1064 -246)"><g><use xlink:href="#x30na"/></g><g><use xlink:href="#x30nb"/></g><g><use xlink:href="#x30nc"/></g><g><use xlink:href="#x30nd"/></g></g></g></svg>