<svg xmlns="http://www.w3.org/2000/svg" xmlns:xlink="http://www.w3.org/1999/xlink" width="13" height="15" viewBox="0 0 13 15"><defs><path id="hfn0a" d="M1244.2 207.11h.8V213h-.8v2.68c0 .14-.12.26-.26.26h-10.86a.26.26 0 0 1-.26-.26v-2.68h-.82v-5.88h.82v-5.75c0-.15.12-.27.26-.27h7.52l.04.02h.02a.3.3 0 0 1 .03.02l.04.04 3.4 3.48.02.03.01.02.02.02v.02l.01.04v.05h.01zm-3.4-5.1v2.56h2.51zm2.88 10.98h-10.34v2.41h10.34zm-9.06-2.82c0-.63.39-.94.9-.94.22 0 .4.05.53.1l.13-.5a1.64 1.64 0 0 0-.7-.14c-.85 0-1.53.55-1.53 1.52 0 .82.5 1.43 1.47 1.43.35 0 .6-.06.73-.12l-.1-.5c-.13.05-.34.09-.53.09-.57 0-.9-.36-.9-.94zm3.33.63c0 .19-.16.31-.45.31a1.6 1.6 0 0 1-.7-.18l-.14.54c.16.09.48.17.8.17.78 0 1.14-.4 1.14-.88 0-.4-.23-.67-.73-.86-.36-.14-.52-.22-.52-.4 0-.15.13-.28.4-.28.28 0 .48.08.6.14l.14-.52a1.7 1.7 0 0 0-.72-.15c-.67 0-1.07.38-1.07.87 0 .41.3.67.78.84.33.12.47.22.47.4zm1.96.8h.74l.95-2.86h-.68l-.36 1.22c-.1.33-.18.67-.25 1.01h-.02c-.06-.35-.15-.68-.25-1.02l-.34-1.2h-.7zm3.77-4.49v-2h-3.13a.26.26 0 0 1-.26-.27v-3.22h-6.95v5.5z"/></defs><g><g transform="translate(-1232 -201)"><use xlink:href="#hfn0a"/></g></g></svg>