<svg xmlns="http://www.w3.org/2000/svg" xmlns:xlink="http://www.w3.org/1999/xlink" width="12" height="12" viewBox="0 0 12 12"><defs><path id="v1h8a" d="M1065.89 224.97h7.18c1.03 0 1.86-.83 1.86-1.86v-2.31a.43.43 0 0 0-.86 0v2.31a1 1 0 0 1-1 1h-7.18a1 1 0 0 1-1-1v-7.18a1 1 0 0 1 1-1h2.31a.43.43 0 0 0 0-.86h-2.31c-1.03 0-1.86.83-1.86 1.86v7.18c0 1.03.83 1.86 1.86 1.86z"/><path id="v1h8b" d="M1075.53 215.6l-5.36 5.34a.43.43 0 0 1-.19.11l-1.62.46-.19.03a.71.71 0 0 1-.69-.9l.45-1.63a.43.43 0 0 1 .11-.19l5.36-5.35a1.51 1.51 0 0 1 2.13 0c.58.59.58 1.54 0 2.13zm-1.35.11l-.91-.91-4.53 4.55-.36 1.27 1.28-.35zm.73-.71a.66.66 0 0 0 0-.92.66.66 0 0 0-.91 0l-.12.12.92.91z"/></defs><g><g transform="translate(-1064 -213)"><g><use xlink:href="#v1h8a"/></g><g><use xlink:href="#v1h8b"/></g></g></g></svg>