<svg xmlns="http://www.w3.org/2000/svg" xmlns:xlink="http://www.w3.org/1999/xlink" width="16" height="32" viewBox="0 0 16 32"><defs><path id="fd65a" d="M1346.92 632.87c0-.02.02-.03.03-.05l.02-.07.02-.06v-.07l.01-.06v-.07l-.01-.07-.02-.06-.02-.06-.03-.06-.04-.06c0-.02-.02-.04-.04-.06l-.04-.05-14.6-14.86a.7.7 0 0 0-.99-.01.69.69 0 0 0-.01.97l14.13 14.39-14.13 14.38a.69.69 0 0 0 .01.98.7.7 0 0 0 .99-.02l14.6-14.86.04-.05.04-.05.04-.07z"/></defs><g><g transform="translate(-1331 -617)"><use fill="#4a4a4a" fill-opacity=".36" xlink:href="#fd65a"/></g></g></svg>