<svg xmlns="http://www.w3.org/2000/svg" xmlns:xlink="http://www.w3.org/1999/xlink" width="66" height="62" viewBox="0 0 66 62"><defs><path id="tbhaa" d="M785.98 264.32v33.84c0 .6-.5 1.09-1.1 1.09H721.1c-.6 0-1.09-.49-1.09-1.1v-33.83c0-.38.2-.72.49-.91l8.42-5.59v-18.67c0-.6.5-1.09 1.1-1.09h45.96c.6 0 1.1.49 1.1 1.1v18.66l8.42 5.59c.3.2.49.53.49.9zm-2.19 31.8v-29.99l-25.13 13.33zm-6.73-32.9h4.2l-4.2-2.78zm-52.34 33.84h56.54l-28.27-18.74zm55.77-31.65h-3.43v1.82zm-5.61 2.98v-28.14H731.1v28.14l18.29 9.7 3-1.99a1.1 1.1 0 0 1 1.2 0l3 1.99zm-52.7 27.73l25.13-16.66-25.12-13.33zm6.73-28.9v-1.81h-3.43zm0-6.78l-4.2 2.78h4.2z"/><path id="tbhab" d="M783.79 266.14v29.99l-25.13-16.66z"/><path id="tbhac" d="M781.25 263.23h-4.19v-2.78z"/><path id="tbhad" d="M781.16 297h-56.54l28.27-18.74z"/><path id="tbhae" d="M780.49 265.41l-3.43 1.82v-1.82z"/><path id="tbhaf" d="M774.88 240.25v28.14l-18.29 9.7-3-1.98a1.1 1.1 0 0 0-1.2 0l-3 1.98-18.29-9.7v-28.14zm-12.1 17.24v-.81a9.81 9.81 0 0 0-19.59 0v.32c0 5.4 4.4 9.8 9.8 9.8h8.7a1.1 1.1 0 0 0 0-2.18H753a7.62 7.62 0 0 1-7.61-7.62v-.32a7.62 7.62 0 0 1 15.22 0v.8a1.65 1.65 0 0 1-3.3 0v-1.52a4.72 4.72 0 1 0-1.6 3.54 3.83 3.83 0 0 0 7.09-2.01z"/><path id="tbhag" d="M762.79 256.68v.8a3.84 3.84 0 0 1-7.1 2.02 4.72 4.72 0 1 1 1.61-3.55v1.54a1.65 1.65 0 0 0 3.3 0v-.81a7.62 7.62 0 0 0-15.22 0v.32c0 4.2 3.41 7.61 7.6 7.61h8.71a1.1 1.1 0 0 1 0 2.19H753a9.8 9.8 0 0 1-9.8-9.8v-.32a9.8 9.8 0 0 1 19.6 0zm-7.67-.73a2.54 2.54 0 1 0-5.07 0 2.54 2.54 0 0 0 5.07 0z"/><path id="tbhah" d="M752.59 253.42a2.54 2.54 0 1 1-.01 5.07 2.54 2.54 0 0 1 0-5.07z"/><path id="tbhai" d="M747.32 279.47l-25.13 16.66v-29.99z"/><path id="tbhaj" d="M728.9 265.41v1.82l-3.42-1.82z"/><path id="tbhak" d="M728.91 260.45v2.78h-4.19z"/></defs><g><g transform="translate(-720 -238)"><use fill="#143f6a" xlink:href="#tbhaa"/></g><g transform="translate(-720 -238)"><use fill="#0096d0" xlink:href="#tbhab"/></g><g transform="translate(-720 -238)"><use fill="#008acc" xlink:href="#tbhac"/></g><g transform="translate(-720 -238)"><use fill="#0096d0" xlink:href="#tbhad"/></g><g transform="translate(-720 -238)"><use fill="#008acc" xlink:href="#tbhae"/></g><g transform="translate(-720 -238)"><use fill="#fff" xlink:href="#tbhaf"/></g><g transform="translate(-720 -238)"><use fill="#143f6a" xlink:href="#tbhag"/></g><g transform="translate(-720 -238)"><use fill="#0096d0" xlink:href="#tbhah"/></g><g transform="translate(-720 -238)"><use fill="#0096d0" xlink:href="#tbhai"/></g><g transform="translate(-720 -238)"><use fill="#008acc" xlink:href="#tbhaj"/></g><g transform="translate(-720 -238)"><use fill="#008acc" xlink:href="#tbhak"/></g></g></svg>