<svg xmlns="http://www.w3.org/2000/svg" xmlns:xlink="http://www.w3.org/1999/xlink" width="7" height="13" viewBox="0 0 7 13"><defs><path id="46fia" d="M516.95 188.74c.12.17.02.38-.21.47a.6.6 0 0 1-.21.04h-6.06c-.26 0-.47-.16-.47-.36 0-.05.02-.1.05-.15l3.03-4.54c.11-.18.4-.25.63-.16.1.03.17.09.21.16z"/><path id="46fib" d="M510.05 191.51c-.12-.17-.02-.38.21-.47a.6.6 0 0 1 .21-.04h6.06c.26 0 .47.16.47.36 0 .05-.02.1-.05.15l-3.03 4.54c-.11.18-.4.25-.63.16a.43.43 0 0 1-.21-.16z"/></defs><g><g transform="translate(-510 -184)"><g><g><g><use fill="#1c5df4" xlink:href="#46fia"/></g><g><use fill="#1c5df4" xlink:href="#46fib"/></g></g></g></g></g></svg>