<svg xmlns="http://www.w3.org/2000/svg" xmlns:xlink="http://www.w3.org/1999/xlink" width="12" height="15" viewBox="0 0 12 15"><defs><path id="nf2za" d="M828.613 955.07a2.46 2.46 0 0 1-2.457-2.457 2.46 2.46 0 0 1 2.457-2.457 2.46 2.46 0 0 1 2.457 2.457 2.46 2.46 0 0 1-2.457 2.457zm-4.863 1.68v-12H829v3.75h3.75v7.896l-1.879-1.878c.435-.515.7-1.18.7-1.905a2.96 2.96 0 0 0-2.958-2.957 2.96 2.96 0 0 0-2.957 2.957 2.96 2.96 0 0 0 2.957 2.957c.726 0 1.39-.264 1.905-.699l1.879 1.879zm-1.25-1.25v-12h9v2.897l-2.147-2.147h-6.103v11.25zm9.896-7.5H829.5v-2.897zm1.53 9.573l-.676-.676v-8.75l-1.25-1.25V943h-10v13h1.25v1.25h9.646l.677.677a.25.25 0 0 0 .354 0 .25.25 0 0 0 0-.354z"/></defs><g><g opacity=".4" transform="translate(-822 -943)"><use xlink:href="#nf2za"/></g></g></svg>