<?xml version="1.0" encoding="UTF-8"?>
<svg width="68px" height="17px" viewBox="0 0 68 17" version="1.1" xmlns="http://www.w3.org/2000/svg" xmlns:xlink="http://www.w3.org/1999/xlink">
    <!-- Generator: Sketch 52.6 (67491) - http://www.bohemiancoding.com/sketch -->
    <title>Group 20</title>
    <desc>Created with Sketch.</desc>
    <g id="General-Journal-NEW" stroke="none" stroke-width="1" fill="none" fill-rule="evenodd">
        <g id="Group-20">
            <rect id="Rectangle" fill="#1C5DF4" fill-rule="nonzero" x="0" y="0" width="68" height="17" rx="8.5"></rect>
            <path d="M11.38,10.82 L14.33,10.82 L14.33,12.14 L10,12.14 L10,5.14 L14.28,5.14 L14.28,6.46 L11.38,6.46 L11.38,7.95 L14.03,7.95 L14.03,9.25 L11.38,9.25 L11.38,10.82 Z M20.63,12.14 L19.06,12.14 L17.7,9.86 L16.34,12.14 L14.78,12.14 L16.92,8.55 L14.89,5.14 L16.45,5.14 L17.7,7.24 L18.95,5.14 L20.51,5.14 L18.48,8.54 L20.63,12.14 Z M24.34,12.28 C23.2866614,12.28 22.4166701,11.9300035 21.73,11.23 C21.0433299,10.5299965 20.7,9.6666718 20.7,8.64 C20.7,7.6066615 21.0433299,6.74167015 21.73,6.045 C22.4166701,5.34832985 23.2866614,5 24.34,5 C24.9733365,5 25.5583306,5.14833185 26.095,5.445 C26.6316693,5.74166815 27.0499985,6.1433308 27.35,6.65 L26.16,7.34 C25.9866658,7.0266651 25.7400016,6.78166755 25.42,6.605 C25.0999984,6.42833245 24.740002,6.34 24.34,6.34 C23.6599966,6.34 23.1116687,6.5533312 22.695,6.98 C22.2783313,7.4066688 22.07,7.9599966 22.07,8.64 C22.07,9.3133367 22.2783313,9.8633312 22.695,10.29 C23.1116687,10.7166688 23.6599966,10.93 24.34,10.93 C24.740002,10.93 25.1016651,10.8416676 25.425,10.665 C25.7483349,10.4883325 25.9933325,10.2466682 26.16,9.94 L27.35,10.63 C27.0499985,11.1366692 26.633336,11.5383319 26.1,11.835 C25.566664,12.1316681 24.9800032,12.28 24.34,12.28 Z M29.58,10.82 L32.25,10.82 L32.25,12.14 L28.2,12.14 L28.2,5.14 L29.58,5.14 L29.58,10.82 Z M35.53,12.28 C34.7499961,12.28 34.1100025,12.0600022 33.61,11.62 C33.1099975,11.1799978 32.86,10.5900037 32.86,9.85 L32.86,5.14 L34.23,5.14 L34.23,9.74 C34.23,10.1066685 34.3349989,10.3966656 34.545,10.61 C34.755001,10.8233344 35.0833311,10.93 35.53,10.93 C35.9766689,10.93 36.304999,10.8233344 36.515,10.61 C36.725001,10.3966656 36.83,10.1066685 36.83,9.74 L36.83,5.14 L38.21,5.14 L38.21,9.85 C38.21,10.5900037 37.9600025,11.1799978 37.46,11.62 C36.9599975,12.0600022 36.3166706,12.28 35.53,12.28 Z M41.84,12.28 C41.1466632,12.28 40.5633357,12.1250016 40.09,11.815 C39.6166643,11.5049985 39.2833343,11.083336 39.09,10.55 L40.27,9.86 C40.5433347,10.5733369 41.079996,10.93 41.88,10.93 C42.2666686,10.93 42.5499991,10.8600007 42.73,10.72 C42.9100009,10.5799993 43,10.4033344 43,10.19 C43,9.9433321 42.8900011,9.75166735 42.67,9.615 C42.4499989,9.47833265 42.0566695,9.3300008 41.49,9.17 C41.1766651,9.0766662 40.9116678,8.9833338 40.695,8.89 C40.4783322,8.7966662 40.2616678,8.67166745 40.045,8.515 C39.8283323,8.35833255 39.6633339,8.1600012 39.55,7.92 C39.4366661,7.6799988 39.38,7.4000016 39.38,7.08 C39.38,6.4466635 39.6049977,5.94166855 40.055,5.565 C40.5050022,5.18833145 41.0466635,5 41.68,5 C42.2466695,5 42.7449978,5.13833195 43.175,5.415 C43.6050022,5.69166805 43.9399988,6.0766642 44.18,6.57 L43.02,7.24 C42.7399986,6.639997 42.2933364,6.34 41.68,6.34 C41.3933319,6.34 41.1683341,6.40499935 41.005,6.535 C40.8416659,6.66500065 40.76,6.8333323 40.76,7.04 C40.76,7.2600011 40.8516657,7.43833265 41.035,7.575 C41.2183342,7.71166735 41.5699974,7.8599992 42.09,8.02 C42.3033344,8.086667 42.4649995,8.13833315 42.575,8.175 C42.6850006,8.21166685 42.8349991,8.26833295 43.025,8.345 C43.215001,8.42166705 43.3616662,8.493333 43.465,8.56 C43.5683338,8.626667 43.686666,8.7166661 43.82,8.83 C43.953334,8.9433339 44.0549996,9.0599994 44.125,9.18 C44.1950004,9.3000006 44.2549998,9.44499915 44.305,9.615 C44.3550003,9.78500085 44.38,9.969999 44.38,10.17 C44.38,10.8166699 44.1450023,11.3299981 43.675,11.71 C43.2049976,12.0900019 42.5933371,12.28 41.84,12.28 Z M45.23,5.14 L46.61,5.14 L46.61,12.14 L45.23,12.14 L45.23,5.14 Z M49.64,12.14 L47.29,5.14 L48.79,5.14 L50.5,10.52 L52.2,5.14 L53.71,5.14 L51.35,12.14 L49.64,12.14 Z M55.76,10.82 L58.71,10.82 L58.71,12.14 L54.38,12.14 L54.38,5.14 L58.66,5.14 L58.66,6.46 L55.76,6.46 L55.76,7.95 L58.41,7.95 L58.41,9.25 L55.76,9.25 L55.76,10.82 Z" id="Exclusive" fill="#FFFFFF"></path>
        </g>
    </g>
</svg>