<?xml version="1.0" encoding="UTF-8"?>
<svg width="41px" height="12px" viewBox="0 0 41 12" version="1.1" xmlns="http://www.w3.org/2000/svg" xmlns:xlink="http://www.w3.org/1999/xlink">
    <!-- Generator: Sketch 50.2 (55047) - http://www.bohemiancoding.com/sketch -->
    <title>Précis</title>
    <desc>Created with Sketch.</desc>
    <defs></defs>
    <g id="Symbols" stroke="none" stroke-width="1" fill="none" fill-rule="evenodd">
        <g id="Product-Logo-Copy-3" transform="translate(-60.000000, -4.000000)" fill="#1C5DF4">
            <path d="M62.3,9.21 L63.935,9.21 C64.97,9.21 65.6,8.61 65.6,7.695 C65.6,6.75 64.97,6.165 63.935,6.165 L62.3,6.165 L62.3,9.21 Z M64.19,10.995 L62.285,10.995 L62.285,15 L60.215,15 L60.215,4.365 L64.19,4.365 C66.29,4.365 67.685,5.76 67.685,7.68 C67.685,9.615 66.29,10.995 64.19,10.995 Z M73.475,7.59 L73.475,9.6 C73.25,9.555 73.055,9.54 72.875,9.54 C71.855,9.54 70.97,10.035 70.97,11.625 L70.97,15 L68.975,15 L68.975,7.62 L70.91,7.62 L70.91,8.715 C71.36,7.74 72.38,7.56 73.01,7.56 C73.175,7.56 73.325,7.575 73.475,7.59 Z M80.615,4.485 L78.575,6.735 L76.97,6.735 L78.335,4.485 L80.615,4.485 Z M76.265,10.47 L79.565,10.47 C79.535,9.735 79.055,9.015 77.915,9.015 C76.88,9.015 76.31,9.795 76.265,10.47 Z M79.76,12.39 L81.425,12.885 C81.05,14.16 79.88,15.225 78.065,15.225 C76.04,15.225 74.255,13.77 74.255,11.28 C74.255,8.925 75.995,7.395 77.885,7.395 C80.165,7.395 81.53,8.85 81.53,11.22 C81.53,11.505 81.5,11.805 81.5,11.835 L76.22,11.835 C76.265,12.81 77.09,13.515 78.08,13.515 C79.01,13.515 79.52,13.05 79.76,12.39 Z M86.42,9.24 C85.4,9.24 84.545,9.975 84.545,11.31 C84.545,12.645 85.415,13.395 86.435,13.395 C87.455,13.395 87.965,12.72 88.13,12.15 L89.885,12.735 C89.555,13.965 88.4,15.225 86.435,15.225 C84.26,15.225 82.55,13.575 82.55,11.31 C82.55,9.03 84.23,7.395 86.375,7.395 C88.385,7.395 89.525,8.64 89.84,9.885 L88.055,10.485 C87.875,9.87 87.41,9.24 86.42,9.24 Z M93.35,15 L91.355,15 L91.355,7.62 L93.35,7.62 L93.35,15 Z M91.115,5.205 C91.115,4.515 91.67,3.96 92.345,3.96 C93.035,3.96 93.575,4.515 93.575,5.205 C93.575,5.865 93.035,6.42 92.345,6.42 C91.67,6.42 91.115,5.865 91.115,5.205 Z M94.85,12.945 L96.56,12.57 C96.605,13.155 97.04,13.695 97.91,13.695 C98.57,13.695 98.885,13.35 98.885,12.96 C98.885,12.63 98.66,12.36 98.09,12.24 L97.115,12.015 C95.69,11.7 95.045,10.845 95.045,9.81 C95.045,8.49 96.215,7.395 97.805,7.395 C99.905,7.395 100.61,8.73 100.7,9.525 L99.035,9.9 C98.975,9.465 98.66,8.91 97.82,8.91 C97.295,8.91 96.875,9.225 96.875,9.645 C96.875,10.005 97.145,10.23 97.55,10.305 L98.6,10.53 C100.055,10.83 100.79,11.715 100.79,12.795 C100.79,13.995 99.86,15.225 97.925,15.225 C95.705,15.225 94.94,13.785 94.85,12.945 Z" id="Précis"></path>
        </g>
    </g>
</svg>