<?xml version="1.0" encoding="UTF-8"?>
<svg width="27px" height="25px" viewBox="0 0 27 25" version="1.1" xmlns="http://www.w3.org/2000/svg" xmlns:xlink="http://www.w3.org/1999/xlink">
    <!-- Generator: Sketch 47.1 (45422) - http://www.bohemiancoding.com/sketch -->
    <title>ico_settings</title>
    <desc>Created with Sketch.</desc>
    <defs>
        <path d="M12.7777778,1 C11.7028578,1 10.8222222,1.880638 10.8222222,2.95555556 L10.8222222,4.06319444 C10.7610622,4.08798844 10.6991444,4.11352556 10.6388889,4.13958333 L9.85207111,3.35277778 C9.09131111,2.59197133 7.84757778,2.59197133 7.08681778,3.35277778 L5.36040444,5.07916667 C4.59964444,5.83997311 4.59964444,7.09127689 5.36040444,7.85208333 L6.13959556,8.63125 C6.11224222,8.69431178 6.08914222,8.75815089 6.06318222,8.82222222 L4.95555556,8.82222222 C3.88063556,8.82222222 3,9.70286022 3,10.7777827 L3,13.2222296 C3,14.2971496 3.88063556,15.1777851 4.95555556,15.1777851 L6.07083333,15.1777851 C6.09557111,15.2387007 6.11361111,15.3011073 6.13959556,15.3611184 L5.36040444,16.1402851 C4.59964444,16.901094 4.59964444,18.1523807 5.36040444,18.9131896 L7.08681778,20.6395784 C7.84757778,21.4003873 9.09131111,21.4003873 9.85207111,20.6395784 L10.6388889,19.8527851 C10.6991444,19.8788429 10.7610622,19.9043873 10.8222222,19.929174 L10.8222222,21.0444518 C10.8222222,22.1193718 11.7028578,23.0000073 12.7777778,23.0000073 L15.2222222,23.0000073 C16.2971422,23.0000073 17.1777778,22.1193718 17.1777778,21.0444518 L17.1777778,19.929174 C17.2389378,19.9043873 17.3008556,19.8788429 17.3611111,19.8527851 L18.1479289,20.6395784 C18.9086889,21.4003873 20.1524222,21.4003873 20.9131822,20.6395784 L22.6395956,18.9131896 C23.4003556,18.1523807 23.4003556,16.901094 22.6395956,16.1402851 L21.8604044,15.3611184 C21.8863889,15.3011073 21.9044289,15.2387007 21.9291667,15.1777851 L23.0444444,15.1777851 C24.1193644,15.1777851 25,14.2971496 25,13.2222296 L25,10.7777827 C25,9.70286022 24.1193644,8.82222222 23.0444444,8.82222222 L21.9368178,8.82222222 C21.9108822,8.75815089 21.8877578,8.69431178 21.8604044,8.63125 L22.6395956,7.85208333 C23.4003556,7.09127689 23.4003556,5.83997311 22.6395956,5.07916667 L20.9131822,3.35277778 C20.1524222,2.59197133 18.9086889,2.59197133 18.1479289,3.35277778 L17.3611111,4.13958333 C17.3008556,4.11352556 17.2389378,4.08798844 17.1777778,4.06319444 L17.1777778,2.95555556 C17.1777778,1.880638 16.2971422,1 15.2222222,1 L12.7777778,1 Z M12.7777778,1.97777778 L15.2222222,1.97777778 C15.7723689,1.97777778 16.2,2.40541622 16.2,2.95555556 L16.2,4.39166667 C16.2014943,4.59855607 16.3330457,4.78210931 16.5284844,4.85 C16.7784289,4.93838622 17.0203067,5.04008733 17.2618178,5.15555556 C17.4483184,5.2463872 17.6718356,5.20964385 17.8194444,5.06388889 L18.8354044,4.04791667 C19.2237044,3.65963378 19.8373822,3.65963378 20.2257067,4.04791667 L21.9520711,5.77430556 C22.3403711,6.16258844 22.3403711,6.76866156 21.9520711,7.15694444 L20.9361111,8.17291667 C20.7877542,8.31874562 20.7479159,8.54248023 20.8368178,8.73055556 C20.9522444,8.97201533 21.0616089,9.22155156 21.15,9.47152778 C21.2178948,9.66696172 21.4014471,9.79850753 21.6083333,9.8 L23.0444444,9.8 C23.5945911,9.8 24.0222222,10.2276384 24.0222222,10.7777827 L24.0222222,13.2222296 C24.0222222,13.7723762 23.5945911,14.2000073 23.0444444,14.2000073 L21.6083333,14.2000073 C21.4034193,14.2003416 21.2204525,14.3284184 21.15,14.5208407 C21.0616089,14.7708096 20.9522444,15.0203629 20.8368178,15.2618007 C20.74791,15.4498792 20.7877486,15.6736207 20.9361111,15.8194518 L21.9520711,16.8354118 C22.3403711,17.2237118 22.3403711,17.8297873 21.9520711,18.2180629 L20.2257067,19.9444518 C19.8374067,20.3327273 19.2237289,20.3327273 18.8354044,19.9444518 L17.8194444,18.9284673 C17.6718356,18.7827124 17.4483184,18.745969 17.2618178,18.8368007 C17.0203067,18.9522762 16.7784289,19.0539896 16.5284844,19.1423562 C16.3303887,19.2111677 16.1982337,19.3986413 16.2,19.6083407 L16.2,21.0444518 C16.2,21.5945984 15.7723689,22.0222296 15.2222222,22.0222296 L12.7777778,22.0222296 C12.2276311,22.0222296 11.8,21.5945984 11.8,21.0444518 L11.8,19.6083407 C11.8017663,19.3986413 11.6696113,19.2111677 11.4715156,19.1423562 C11.2215711,19.0539896 10.9796933,18.9522762 10.7381822,18.8368007 C10.5516816,18.745969 10.3281644,18.7827124 10.1805556,18.9284673 L9.16459556,19.9444518 C8.77629556,20.3327273 8.16261778,20.3327273 7.77429333,19.9444518 L6.04792889,18.2180629 C5.65962889,17.8297873 5.65962889,17.2237118 6.04792889,16.8354118 L7.06388889,15.8194518 C7.21225136,15.6736207 7.25208996,15.4498792 7.16318222,15.2618007 C7.04775556,15.0203629 6.93839111,14.7708096 6.85,14.5208407 C6.77954754,14.3284184 6.59658068,14.2003416 6.39166667,14.2000073 L4.95555556,14.2000073 C4.40540889,14.2000073 3.97777778,13.7723762 3.97777778,13.2222296 L3.97777778,10.7777827 C3.97777778,10.2276384 4.40540889,9.8 4.95555556,9.8 L6.39166667,9.8 C6.59855288,9.79850753 6.78210518,9.66696172 6.85,9.47152778 C6.93839111,9.22155156 7.04775556,8.97201533 7.16318222,8.73055556 C7.25208409,8.54248023 7.21224584,8.31874562 7.06388889,8.17291667 L6.04792889,7.15694444 C5.65962889,6.76866156 5.65962889,6.16258844 6.04792889,5.77430556 L7.77429333,4.04791667 C8.16259333,3.65963378 8.77627111,3.65963378 9.16459556,4.04791667 L10.1805556,5.06388889 C10.3281644,5.20964385 10.5516816,5.2463872 10.7381822,5.15555556 C10.9796933,5.04008733 11.2215711,4.93838622 11.4715156,4.85 C11.6669543,4.78210931 11.7985057,4.59855607 11.8,4.39166667 L11.8,2.95555556 C11.8,2.40541622 12.2276311,1.97777778 12.7777778,1.97777778 Z M14,6.62222222 C11.03572,6.62222222 8.62222222,9.03570044 8.62222222,12.0000073 C8.62222222,14.9642629 11.03572,17.3777851 14,17.3777851 C16.96428,17.3777851 19.3777778,14.9642629 19.3777778,12.0000073 C19.3777778,9.03570289 16.96428,6.62222222 14,6.62222222 Z M14,7.6 C16.43584,7.6 18.4,9.56412822 18.4,12.0000073 C18.4,14.4358229 16.43584,16.4000073 14,16.4000073 C11.56416,16.4000073 9.6,14.4358229 9.6,12.0000073 C9.6,9.56412578 11.56416,7.6 14,7.6 Z" id="path-1"></path>
    </defs>
    <g id="Symbols" stroke="none" stroke-width="1" fill="none" fill-rule="evenodd">
        <g id="ico_settings">
            <mask id="mask-2" fill="white">
                <use xlink:href="#path-1"></use>
            </mask>
            <use id="Mask" fill="#727272" fill-rule="nonzero" xlink:href="#path-1"></use>
            <g id="color-normal" mask="url(#mask-2)" fill="#727272">
                <rect id="Rectangle-3" x="0" y="0" width="27" height="25"></rect>
            </g>
        </g>
    </g>
</svg>