<?xml version="1.0" encoding="UTF-8"?>
<svg width="27px" height="25px" viewBox="0 0 27 25" version="1.1" xmlns="http://www.w3.org/2000/svg" xmlns:xlink="http://www.w3.org/1999/xlink">
    <!-- Generator: Sketch 47.1 (45422) - http://www.bohemiancoding.com/sketch -->
    <title>ico_report</title>
    <desc>Created with Sketch.</desc>
    <defs>
        <path d="M13,1 C12.434902,1 11.9117188,1.1825975 11.546875,1.546875 C11.2953252,1.798035 11.1649293,2.136645 11.0859375,2.5 L10,2.5 C9.59314875,2.5 9.25,2.8431475 9.25,3.25 L9.25,4 L8,4 C6.90064925,4 6,4.90065 6,6 L6,21.5 C6,22.59935 6.90065025,23.5 8,23.5 L20,23.5 C21.0993497,23.5 22,22.59935 22,21.5 L22,6 C22,4.90065 21.0993507,4 20,4 L18.75,4 L18.75,3.25 C18.75,2.8431475 18.4068512,2.5 18,2.5 L16.9140625,2.5 C16.8343663,2.13675 16.6967092,1.7986625 16.4453125,1.546875 C16.0816413,1.1826375 15.565098,1 15,1 L13,1 Z M13,2 L15,2 C15.3550245,2 15.5866955,2.10208 15.7421875,2.2578125 C15.8976795,2.413545 15.9987523,2.6440225 16,3 C16.0000276,3.27613094 16.2238691,3.4999724 16.5,3.5 L17.75,3.5 L17.75,5.5 L10.25,5.5 L10.25,3.5 L11.5,3.5 C11.6339688,3.50000275 11.7623362,3.44624894 11.8563293,3.35078721 C11.9503224,3.25532549 12.0020797,3.12614016 12,2.9921875 C11.99875,2.638115 12.1018795,2.413505 12.2578125,2.2578125 C12.4137455,2.10212 12.6449755,2 13,2 Z M8,5 L9.25,5 L9.25,5.75 C9.25,6.1568525 9.59314875,6.5 10,6.5 L18,6.5 C18.4068512,6.5 18.75,6.1568525 18.75,5.75 L18.75,5 L20,5 C20.5626443,5 21,5.437355 21,6 L21,21.5 C21,22.06265 20.5626452,22.5 20,22.5 L8,22.5 C7.43735475,22.5 7,22.06265 7,21.5 L7,6 C7,5.437355 7.43735575,5 8,5 Z M9.5,8 C8.8155665,8 8.25,8.565565 8.25,9.25 C8.25,9.9344325 8.8155665,10.5 9.5,10.5 C10.1844338,10.5 10.75,9.9344325 10.75,9.25 C10.75,8.565565 10.1844338,8 9.5,8 Z M12.5,8.75 C12.2238575,8.75 12,8.97385 12,9.25 C12,9.52615 12.2238575,9.75 12.5,9.75 L19.25,9.75 C19.5261425,9.75 19.75,9.52615 19.75,9.25 C19.75,8.97385 19.5261425,8.75 19.25,8.75 L12.5,8.75 Z M9.5,9 C9.64399425,9 9.75,9.106005 9.75,9.25 C9.75,9.3939925 9.64399425,9.5 9.5,9.5 C9.356006,9.5 9.25,9.3939925 9.25,9.25 C9.25,9.106005 9.356006,9 9.5,9 Z M9.5,11.5 C8.8155665,11.5 8.25,12.06555 8.25,12.75 C8.25,13.434425 8.8155665,14 9.5,14 C10.1844338,14 10.75,13.434425 10.75,12.75 C10.75,12.06555 10.1844338,11.5 9.5,11.5 Z M12.5,12.25 C12.2238575,12.25 12,12.47385 12,12.75 C12,13.02615 12.2238575,13.25 12.5,13.25 L19.25,13.25 C19.5261425,13.25 19.75,13.02615 19.75,12.75 C19.75,12.47385 19.5261425,12.25 19.25,12.25 L12.5,12.25 Z M9.5,12.5 C9.64399425,12.5 9.75,12.606 9.75,12.75 C9.75,12.893975 9.64399425,13 9.5,13 C9.356006,13 9.25,12.893975 9.25,12.75 C9.25,12.606 9.356006,12.5 9.5,12.5 Z M9.5,15 C8.8155665,15 8.25,15.56555 8.25,16.25 C8.25,16.934425 8.8155665,17.5 9.5,17.5 C10.1844338,17.5 10.75,16.934425 10.75,16.25 C10.75,15.56555 10.1844338,15 9.5,15 Z M12.5,15.75 C12.2238575,15.75 12,15.97385 12,16.25 C12,16.52615 12.2238575,16.75 12.5,16.75 L19.25,16.75 C19.5261425,16.75 19.75,16.52615 19.75,16.25 C19.75,15.97385 19.5261425,15.75 19.25,15.75 L12.5,15.75 Z M9.5,16 C9.64399425,16 9.75,16.106 9.75,16.25 C9.75,16.393975 9.64399425,16.5 9.5,16.5 C9.356006,16.5 9.25,16.393975 9.25,16.25 C9.25,16.106 9.356006,16 9.5,16 Z M9.5,18.5 C8.8155665,18.5 8.25,19.06555 8.25,19.75 C8.25,20.434425 8.8155665,21 9.5,21 C10.1844338,21 10.75,20.434425 10.75,19.75 C10.75,19.06555 10.1844338,18.5 9.5,18.5 Z M12.5,19.25 C12.2238575,19.25 12,19.47385 12,19.75 C12,20.02615 12.2238575,20.25 12.5,20.25 L19.25,20.25 C19.5261425,20.25 19.75,20.02615 19.75,19.75 C19.75,19.47385 19.5261425,19.25 19.25,19.25 L12.5,19.25 Z M9.5,19.5 C9.64399425,19.5 9.75,19.606 9.75,19.75 C9.75,19.893975 9.64399425,20 9.5,20 C9.356006,20 9.25,19.893975 9.25,19.75 C9.25,19.606 9.356006,19.5 9.5,19.5 Z" id="path-1"></path>
    </defs>
    <g id="Symbols" stroke="none" stroke-width="1" fill="none" fill-rule="evenodd">
        <g id="ico_report">
            <mask id="mask-2" fill="white">
                <use xlink:href="#path-1"></use>
            </mask>
            <use id="Shape" fill="#727272" fill-rule="nonzero" xlink:href="#path-1"></use>
            <g id="color-normal" mask="url(#mask-2)" fill="#727272">
                <rect id="Rectangle-3" x="0" y="0" width="27" height="25"></rect>
            </g>
        </g>
    </g>
</svg>