<svg xmlns="http://www.w3.org/2000/svg" xmlns:xlink="http://www.w3.org/1999/xlink" width="13" height="18" viewBox="0 0 13 18"><defs><path id="iq6ta" d="M664 32.81V38h-11v-5.19c0-1.11.42-2.16 1.17-2.94a3.92 3.92 0 0 1 2.5-1.2 3.63 3.63 0 0 1-1.64-3.07c0-1.99 1.56-3.6 3.47-3.6a3.54 3.54 0 0 1 3.47 3.6c0 1.3-.66 2.43-1.64 3.06.95.08 1.83.5 2.5 1.2a4.23 4.23 0 0 1 1.17 2.95zm-5.5-4.17a2.98 2.98 0 0 0 2.92-3.04c0-1.68-1.3-3.03-2.92-3.03a2.98 2.98 0 0 0-2.92 3.03c0 1.68 1.3 3.04 2.92 3.04zm4.95 8.79V32.8a3.51 3.51 0 0 0-3.44-3.59h-3c-1.91 0-3.46 1.6-3.46 3.6v4.6h1.96V35h.6v2.43h4.78V35h.6v2.43z"/></defs><g><g transform="translate(-652 -21)"><use fill="#0096d0" xlink:href="#iq6ta"/><use fill="#fff" fill-opacity="0" stroke="#0096d0" stroke-miterlimit="50" stroke-width=".4" xlink:href="#iq6ta"/></g></g></svg>