<svg xmlns="http://www.w3.org/2000/svg" xmlns:xlink="http://www.w3.org/1999/xlink" width="17" height="14" viewBox="0 0 17 14"><defs><path id="9ss7a" d="M792.692 407.798h-12.923a.715.715 0 0 1-.703-.727v-7.182h14.328v7.182c0 .4-.315.727-.702.727zm-12.923-10.84h1.648v.204c0 .304.238.551.532.551a.542.542 0 0 0 .533-.551v-.204h3.216v.204c0 .304.238.551.532.551a.542.542 0 0 0 .533-.551v-.204h3.216v.204c0 .304.238.551.533.551a.542.542 0 0 0 .532-.551v-.204h1.648c.388 0 .703.326.703.726v1.102h-14.329v-1.102c0-.4.316-.726.703-.726zm12.932-1.103h-1.649v-.204a.542.542 0 0 0-.533-.551.542.542 0 0 0-.533.551v.204h-3.217v-.204a.542.542 0 0 0-.534-.551.542.542 0 0 0-.533.551v.204h-3.217v-.204a.542.542 0 0 0-.534-.551.542.542 0 0 0-.533.551v.204h-1.65c-.974 0-1.768.82-1.768 1.83v9.386c0 1.009.794 1.83 1.77 1.83H792.7c.976 0 1.77-.821 1.77-1.83v-9.387c0-1.008-.794-1.829-1.77-1.829z"/><path id="9ss7b" d="M782.959 401.34c-.358 0-.359.576 0 .576.358 0 .359-.576 0-.576z"/><path id="9ss7c" d="M784.599 401.34c-.358 0-.359.576 0 .576.358 0 .359-.576 0-.576z"/><path id="9ss7d" d="M786.239 401.34c-.358 0-.359.576 0 .576.358 0 .359-.576 0-.576z"/><path id="9ss7e" d="M787.869 401.34c-.358 0-.359.576 0 .576.358 0 .359-.576 0-.576z"/><path id="9ss7f" d="M789.509 401.34c-.358 0-.359.576 0 .576.358 0 .359-.576 0-.576z"/><path id="9ss7g" d="M791.149 401.34c-.358 0-.359.576 0 .576.358 0 .359-.576 0-.576z"/><path id="9ss7h" d="M781.329 402.62c-.358 0-.359.576 0 .576.358 0 .359-.576 0-.576z"/><path id="9ss7i" d="M782.959 402.62c-.358 0-.359.576 0 .576.358 0 .359-.576 0-.576z"/><path id="9ss7j" d="M784.599 402.62c-.358 0-.359.576 0 .576.358 0 .359-.576 0-.576z"/><path id="9ss7k" d="M786.239 402.62c-.358 0-.359.576 0 .576.358 0 .359-.576 0-.576z"/><path id="9ss7l" d="M787.869 402.62c-.358 0-.359.576 0 .576.358 0 .359-.576 0-.576z"/><path id="9ss7m" d="M789.509 402.62c-.358 0-.359.576 0 .576.358 0 .359-.576 0-.576z"/><path id="9ss7n" d="M791.149 402.62c-.358 0-.359.576 0 .576.358 0 .359-.576 0-.576z"/><path id="9ss7o" d="M781.329 403.9c-.358 0-.359.576 0 .576.358 0 .359-.576 0-.576z"/><path id="9ss7p" d="M782.959 403.9c-.358 0-.359.576 0 .576.358 0 .359-.576 0-.576z"/><path id="9ss7q" d="M784.599 403.9c-.358 0-.359.576 0 .576.358 0 .359-.576 0-.576z"/><path id="9ss7r" d="M786.239 403.9c-.358 0-.359.576 0 .576.358 0 .359-.576 0-.576z"/><path id="9ss7s" d="M787.869 403.9c-.358 0-.359.576 0 .576.358 0 .359-.576 0-.576z"/><path id="9ss7t" d="M789.509 403.9c-.358 0-.359.576 0 .576.358 0 .359-.576 0-.576z"/><path id="9ss7u" d="M791.149 403.9c-.358 0-.359.576 0 .576.358 0 .359-.576 0-.576z"/><path id="9ss7v" d="M781.329 405.18c-.358 0-.359.575 0 .575.358 0 .359-.575 0-.575z"/><path id="9ss7w" d="M782.959 405.18c-.358 0-.359.575 0 .575.358 0 .359-.575 0-.575z"/><path id="9ss7x" d="M784.599 405.18c-.358 0-.359.575 0 .575.358 0 .359-.575 0-.575z"/><path id="9ss7y" d="M786.239 405.18c-.358 0-.359.575 0 .575.358 0 .359-.575 0-.575z"/><path id="9ss7z" d="M787.869 405.18c-.358 0-.359.575 0 .575.358 0 .359-.575 0-.575z"/><path id="9ss7A" d="M789.509 405.18c-.358 0-.359.575 0 .575.358 0 .359-.575 0-.575z"/><path id="9ss7B" d="M791.149 405.18c-.358 0-.359.575 0 .575.358 0 .359-.575 0-.575z"/></defs><g><g transform="translate(-778 -395)"><g/><g/><g><use fill="#1c5df4" xlink:href="#9ss7a"/></g><g><use fill="#1c5df4" xlink:href="#9ss7b"/></g><g><use fill="#1c5df4" xlink:href="#9ss7c"/></g><g><use fill="#1c5df4" xlink:href="#9ss7d"/></g><g><use fill="#1c5df4" xlink:href="#9ss7e"/></g><g><use fill="#1c5df4" xlink:href="#9ss7f"/></g><g><use fill="#1c5df4" xlink:href="#9ss7g"/></g><g><use fill="#1c5df4" xlink:href="#9ss7h"/></g><g><use fill="#1c5df4" xlink:href="#9ss7i"/></g><g><use fill="#1c5df4" xlink:href="#9ss7j"/></g><g><use fill="#1c5df4" xlink:href="#9ss7k"/></g><g><use fill="#1c5df4" xlink:href="#9ss7l"/></g><g><use fill="#1c5df4" xlink:href="#9ss7m"/></g><g><use fill="#1c5df4" xlink:href="#9ss7n"/></g><g><use fill="#1c5df4" xlink:href="#9ss7o"/></g><g><use fill="#1c5df4" xlink:href="#9ss7p"/></g><g><use fill="#1c5df4" xlink:href="#9ss7q"/></g><g><use fill="#1c5df4" xlink:href="#9ss7r"/></g><g><use fill="#1c5df4" xlink:href="#9ss7s"/></g><g><use fill="#1c5df4" xlink:href="#9ss7t"/></g><g><use fill="#1c5df4" xlink:href="#9ss7u"/></g><g><use fill="#1c5df4" xlink:href="#9ss7v"/></g><g><use fill="#1c5df4" xlink:href="#9ss7w"/></g><g><use fill="#1c5df4" xlink:href="#9ss7x"/></g><g><use fill="#1c5df4" xlink:href="#9ss7y"/></g><g><use fill="#1c5df4" xlink:href="#9ss7z"/></g><g><use fill="#1c5df4" xlink:href="#9ss7A"/></g><g><use fill="#1c5df4" xlink:href="#9ss7B"/></g></g></g></svg>