<svg xmlns="http://www.w3.org/2000/svg" xmlns:xlink="http://www.w3.org/1999/xlink" width="16" height="21" viewBox="0 0 16 21"><defs><path id="elv1a" d="M65.24 97c.12 0 .24.05.33.13l3.29 3.3c.09.08.14.2.14.33v16.48c0 .24-.22.47-.47.47H53.47a.49.49 0 0 1-.47-.47V97.47c0-.21.2-.47.47-.47zm-11.3 19.76h14.12v-15.52h-2.82a.47.47 0 0 1-.48-.48v-2.82H53.94zm11.77-16.47h1.69l-1.7-1.69zm-8-.94c.26 0 .47.21.47.47v.3c.61.13 1.09.52 1.34.95.13.2.05.52-.16.64a.49.49 0 0 1-.65-.16 1.21 1.21 0 0 0-1-.55c-.31 0-.56.09-.71.21a.58.58 0 0 0-.24.5c0 .4.7.56 1.12.73.32.13.69.22 1.04.44.35.2.67.64.67 1.18 0 .5-.23.93-.58 1.22-.24.2-.52.32-.83.38v.28a.47.47 0 0 1-.94 0v-.3a2.13 2.13 0 0 1-1.35-.95.49.49 0 0 1 .16-.65.49.49 0 0 1 .65.17 1.21 1.21 0 0 0 1.71.33.57.57 0 0 0 .24-.48c0-.42-.69-.57-1.12-.74-.32-.13-.69-.22-1.04-.44a1.4 1.4 0 0 1-.67-1.17c0-.5.23-.95.58-1.23.24-.2.53-.32.84-.38v-.28c0-.26.2-.47.47-.47zm8 4.24a.47.47 0 1 1 0 .94h-3.77a.47.47 0 1 1 0-.94zm0 3.3a.47.47 0 1 1 0 .93h-9.42a.47.47 0 1 1 0-.94zm0 3.29a.47.47 0 1 1 0 .94h-9.42a.47.47 0 1 1 0-.94zm0 3.3a.47.47 0 1 1 0 .93h-9.42a.47.47 0 1 1 0-.94z"/></defs><g><g transform="translate(-53 -97)"><use fill="#676767" xlink:href="#elv1a"/></g></g></svg>