<svg xmlns="http://www.w3.org/2000/svg" xmlns:xlink="http://www.w3.org/1999/xlink" width="20" height="17" viewBox="0 0 20 17"><defs><path id="oj5ea" d="M130 24.26v11.4c0 1.22-.96 2.22-2.15 2.22h-15.7c-1.19 0-2.15-1-2.15-2.22v-11.4c0-1.23.96-2.22 2.15-2.22h2v-.25c0-.37.29-.67.65-.67.36 0 .65.3.65.67v.25h3.9v-.25c0-.37.3-.67.65-.67.36 0 .65.3.65.67v.25h3.9v-.25c0-.37.3-.67.65-.67.36 0 .65.3.65.67v.25h2c1.19 0 2.15 1 2.15 2.22zm-18.7 0v1.34h17.4v-1.34a.87.87 0 0 0-.85-.88h-2v.24c0 .37-.29.67-.65.67a.66.66 0 0 1-.65-.67v-.24h-3.9v.24c0 .37-.3.67-.65.67a.66.66 0 0 1-.65-.67v-.24h-3.9v.24c0 .37-.3.67-.65.67a.66.66 0 0 1-.65-.67v-.24h-2c-.47 0-.86.4-.86.88zm17.4 11.4v-8.73h-17.4v8.73c0 .48.38.88.85.88h15.7c.47 0 .86-.4.85-.88z"/></defs><g><g transform="translate(-110 -21)"><use fill="#0096d0" xlink:href="#oj5ea"/></g></g></svg>