<svg xmlns="http://www.w3.org/2000/svg" xmlns:xlink="http://www.w3.org/1999/xlink" width="112" height="89" viewBox="0 0 112 89"><defs><path id="4vona" d="M878 313h-5l2.5-5 2.5 5"/><path id="4vonb" d="M807 324h-7l3.5-6 3.5 6"/><path id="4vonc" d="M905 341.5l-4.5 4.5-4.5-4.5 4.5-4.5 4.5 4.5"/><path id="4vond" d="M892.7 330l-.7-.18.65-2.37 2.08.55.56-2.03 2.08.54.56-2.03 2.08.55.56-2.03 2.43.63-.19.68-1.73-.45-.56 2.02-2.08-.54-.56 2.03-2.08-.55-.56 2.03-2.08-.54-.47 1.69"/><path id="4vone" d="M807.24 344l-1.1-1.9-2.28 1.31-1.32-2.28-2.28 1.32-1.32-2.29-2.28 1.32-1.32-2.28-1.9 1.1-.44-.76 2.66-1.54 1.32 2.28 2.28-1.31 1.32 2.28 2.28-1.32 1.32 2.29 2.28-1.32 1.54 2.66-.76.44"/><path id="4vonf" d="M862.56 309l-.56-.13.64-2 2.1.48.56-1.77 2.1.48.56-1.77 2.1.47.56-1.76 2.38.54-.15.46-1.82-.4-.56 1.76-2.1-.47-.56 1.76-2.1-.47-.57 1.76-2.1-.47-.48 1.53"/><path id="4vong" d="M888 315l-1.67 4-3.33-2.67zm-1.33 5l2.33-6-7 2z"/><path id="4vonh" d="M855 303.67l-6 5.33-3-8zm-6.67 7.33l8.67-8-13-4z"/><path id="4voni" d="M817.7 317l-.7-.7 3.3-3.3.7.7-3.3 3.3"/><path id="4vonj" d="M865.7 324l-.7-.7 3.3-3.3.7.7-3.3 3.3"/><path id="4vonk" d="M820.3 317l-3.3-3.3.7-.7 3.3 3.3-.7.7"/><path id="4vonl" d="M868.3 324l-3.3-3.3.7-.7 3.3 3.3-.7.7"/><path id="4vonm" d="M815 335h4v-4h-4z"/><path id="4vonn" d="M833 319h3v3h-3zm-1 4h5v-5h-5z"/><path id="4vono" d="M884 336.5a1.5 1.5 0 1 1 3 0 1.5 1.5 0 0 1-3 0z"/><path id="4vonp" d="M808 354.5a1.5 1.5 0 1 1 3 0 1.5 1.5 0 0 1-3 0z"/><path id="4vonq" d="M832 306l1.67-4 3.33 2.67zm6-1l-4.67-4-2.33 6z"/><path id="4vonr" d="M849 347h6a1 1 0 1 0 0-2h-6a1 1 0 1 0 0 2z"/><path id="4vons" d="M864 361h-6a1 1 0 1 0 0 2h6a1 1 0 1 0 0-2z"/><path id="4vont" d="M840 355h5a1 1 0 1 0 0-2h-5a1 1 0 1 0 0 2z"/><path id="4vonu" d="M852 354a1 1 0 0 0 1 1h7a1 1 0 1 0 0-2h-7a1 1 0 0 0-1 1z"/><path id="4vonv" d="M849 355c.26 0 .52-.11.71-.3.18-.18.29-.44.29-.7 0-.28-.11-.53-.29-.72a1.04 1.04 0 0 0-1.42 0 1.02 1.02 0 0 0 0 1.43c.19.18.45.29.71.29z"/><path id="4vonw" d="M854 361h-10a1 1 0 1 0 0 2h10a1 1 0 1 0 0-2z"/><path id="4vonx" d="M840 363c.27 0 .52-.11.71-.3.18-.18.29-.44.29-.7 0-.27-.11-.53-.29-.72a1.04 1.04 0 0 0-1.42 0 1.02 1.02 0 0 0 0 1.43c.19.18.45.29.71.29z"/><path id="4vony" d="M864 355c.26 0 .52-.11.71-.3.18-.18.29-.44.29-.7 0-.28-.11-.53-.29-.72a1.04 1.04 0 0 0-1.42 0 1.02 1.02 0 0 0 0 1.43c.19.18.45.29.71.29z"/><path id="4vonz" d="M882 354.56V388h-60v-33.44l6-5.59V337h12.87l8.59-8a3.74 3.74 0 0 1 5.08 0l8.6 8H876v11.97zM824 357v28l18-13.77c-.02-.08-.05-.15-.05-.23 0-.08.03-.15.05-.23zm2 29h52l-18.35-14h-15.3zm36-15l18 14v-28zm14-19v6l2.92-2.63c.02-.03.05-.04.08-.06zm-32-15h16l-6.85-6.54a1.67 1.67 0 0 0-2.3 0zm-14 22.08L844.34 370h15.32L874 359.07V339h-44zm-2-7.08l-3 3.31c.03.02.06.03.08.06L828 358z"/><linearGradient id="4vonA" x1="824.63" x2="871.39" y1="361.39" y2="353.95" gradientUnits="userSpaceOnUse"><stop offset="0" stop-color="#0096d0"/><stop offset="1" stop-color="#1a5289"/></linearGradient></defs><g><g transform="translate(-793 -299)"><use fill="#0096d0" xlink:href="#4vona"/></g><g transform="translate(-793 -299)"><use fill="#0096d0" xlink:href="#4vonb"/></g><g transform="translate(-793 -299)"><use fill="#0096d0" xlink:href="#4vonc"/></g><g transform="translate(-793 -299)"><use fill="#0096d0" xlink:href="#4vond"/></g><g transform="translate(-793 -299)"><use fill="#0096d0" xlink:href="#4vone"/></g><g transform="translate(-793 -299)"><use fill="#0096d0" xlink:href="#4vonf"/></g><g transform="translate(-793 -299)"><use fill="#0096d0" xlink:href="#4vong"/></g><g transform="translate(-793 -299)"><use fill="#0096d0" xlink:href="#4vonh"/></g><g transform="translate(-793 -299)"><use fill="#0096d0" xlink:href="#4voni"/></g><g transform="translate(-793 -299)"><use fill="#0096d0" xlink:href="#4vonj"/></g><g transform="translate(-793 -299)"><use fill="#0096d0" xlink:href="#4vonk"/></g><g transform="translate(-793 -299)"><use fill="#0096d0" xlink:href="#4vonl"/></g><g transform="translate(-793 -299)"><use fill="#0096d0" xlink:href="#4vonm"/></g><g transform="translate(-793 -299)"><use fill="#0096d0" xlink:href="#4vonn"/></g><g transform="translate(-793 -299)"><use fill="#0096d0" xlink:href="#4vono"/></g><g transform="translate(-793 -299)"><use fill="#0096d0" xlink:href="#4vonp"/></g><g transform="translate(-793 -299)"><use fill="#0096d0" xlink:href="#4vonq"/></g><g transform="translate(-793 -299)"><use fill="#0096d0" xlink:href="#4vonr"/></g><g transform="translate(-793 -299)"><use fill="#4a4a4a" xlink:href="#4vons"/></g><g transform="translate(-793 -299)"><use fill="#4a4a4a" xlink:href="#4vont"/></g><g transform="translate(-793 -299)"><use fill="#0096d0" xlink:href="#4vonu"/></g><g transform="translate(-793 -299)"><use fill="#4a4a4a" xlink:href="#4vonv"/></g><g transform="translate(-793 -299)"><use fill="#0096d0" xlink:href="#4vonw"/></g><g transform="translate(-793 -299)"><use fill="#4a4a4a" xlink:href="#4vonx"/></g><g transform="translate(-793 -299)"><use fill="#4a4a4a" xlink:href="#4vony"/></g><g transform="translate(-793 -299)"><use fill="url(#4vonA)" xlink:href="#4vonz"/></g></g></svg>