<svg xmlns="http://www.w3.org/2000/svg" xmlns:xlink="http://www.w3.org/1999/xlink" width="36" height="36" viewBox="0 0 36 36"><defs><path id="xypka" d="M812.8 281c0 9.81-7.99 17.8-17.8 17.8s-17.8-7.99-17.8-17.8 7.99-17.8 17.8-17.8 17.8 7.99 17.8 17.8zm-2 0c0-8.71-7.09-15.8-15.8-15.8s-15.8 7.09-15.8 15.8 7.09 15.8 15.8 15.8 15.8-7.09 15.8-15.8zM796 268.53V281a1 1 0 0 1-.3.72l-6.87 6.6a1 1 0 0 1-1.42-.03 1 1 0 0 1 .03-1.41l6.56-6.3v-12.05a1 1 0 1 1 2 0z"/></defs><g><g transform="translate(-777 -263)"><use fill="#0096d0" xlink:href="#xypka"/></g></g></svg>