<svg xmlns="http://www.w3.org/2000/svg" xmlns:xlink="http://www.w3.org/1999/xlink" width="109" height="28" viewBox="0 0 109 28"><defs><path id="cqada" d="M822.58 313.6c-.26 0-.52-.06-.78-.12-1.11-.38-1.9-1.45-2.35-3.21a17.29 17.29 0 0 0-3.4-6.35l1.57-1.13c1.9 2.39 3.2 4.78 3.79 7.04.26 1 .65 1.76 1.04 1.89.33.12.72-.13 1.05-.32.26-.19 2.68-2.39 1.7-10.5l1.96-.19c.98 8.5-1.37 11.32-2.42 12.14-.72.5-1.44.75-2.16.75z"/><path id="cqadb" d="M803.53 311.9c-3.76-4.63-6.16-13.04-5.38-18.78.39-2.8 1.49-4.98 3.24-6.17 2.92-1.75 5.7.28 6.48.91.98.77 1.95 2.24 2.86 3.64.52.84 1.36 2.04 1.68 2.25.52.28 1.24-.14 2.01-1.48l1.63 1.2c-1.82 2.87-3.5 2.73-4.54 2.1-.65-.35-1.3-1.26-2.34-2.87a18.9 18.9 0 0 0-2.46-3.23c-.72-.56-2.47-1.82-4.28-.77-1.24.84-2.01 2.38-2.27 4.63-.72 5.18 1.49 12.82 4.86 17.02.71.74 1.36.7 1.5.7 1.08-.12 1.87-1.33 2.91-3.36 1.3-2.68 2.7-6.9 13.43-10.86a6.15 6.15 0 0 0 3.82-3.5c.45-1.27.3-5.38-3.4-4.82-3.48.53-7.57 3.31-10.74 1.52l.85-1.89c1.49.77 4.64-.49 7.78-1.47 8.05-2.52 8.24 5.6 7.37 7.87-.87 2.28-2.55 3.28-5.1 4.25-9.88 3.75-11.93 9.64-11.93 9.64-1.37 2.73-2.93 4.69-4.7 4.87-1.79.17-3.28-1.4-3.28-1.4z"/><path id="cqadc" d="M834.81 303.94c1.11 0 1.88.35 2.3 1.04.43.7.64 1.66.64 2.88v4.4c0 .3-.1.55-.29.75-.19.2-.43.3-.72.3s-.53-.1-.72-.3c-.19-.2-.28-.45-.28-.74v-4.4c0-.64-.12-1.13-.36-1.5-.25-.35-.67-.54-1.27-.54-.63 0-1.12.2-1.47.58-.35.39-.53.87-.53 1.45v4.4c0 .3-.1.55-.28.75-.2.2-.43.3-.72.3-.3 0-.53-.1-.72-.3-.2-.2-.29-.45-.29-.74v-10.63c0-.3.1-.55.29-.75.19-.2.43-.3.72-.3s.53.1.72.3c.19.2.28.45.28.75v3.8c.3-.41.69-.77 1.15-1.06.47-.3.98-.44 1.55-.44zm7.01 8.33c0 .3-.09.54-.28.74-.2.2-.43.3-.72.3-.3 0-.53-.1-.72-.3-.2-.2-.29-.45-.29-.74v-7.1c0-.3.1-.55.29-.75.19-.2.43-.3.72-.3s.53.1.72.3c.19.2.28.45.28.74zM840.8 303c-.38 0-.65-.07-.8-.2-.16-.12-.24-.34-.24-.66v-.33c0-.32.09-.54.25-.67.17-.13.44-.19.8-.19.4 0 .67.06.83.19.16.13.23.35.23.67v.33c0 .33-.08.56-.24.68-.16.12-.44.18-.83.18zm7.42 8.37c.15 0 .3.08.42.23.13.16.2.36.2.61 0 .31-.17.58-.5.79-.33.2-.7.32-1.11.32-.7 0-1.28-.16-1.76-.46-.47-.3-.71-.95-.71-1.93v-4.75h-.77a.9.9 0 0 1-.67-.28.95.95 0 0 1-.27-.68.91.91 0 0 1 .94-.93h.77v-1.1c0-.3.1-.55.3-.75.19-.2.43-.3.72-.3.28 0 .52.1.7.3.2.2.3.45.3.75v1.1h1.18c.27 0 .5.09.67.27.18.19.27.42.27.69a.91.91 0 0 1-.94.93h-1.19v4.66c0 .24.06.41.19.52.12.11.29.17.5.17.09 0 .21-.03.37-.07a.98.98 0 0 1 .39-.09zm10.58-2.87a.9.9 0 0 1-.32.67c-.2.17-.44.26-.7.26h-5.54a2.6 2.6 0 0 0 2.55 2.17c.46 0 .82-.05 1.07-.13.26-.09.47-.18.62-.28l.3-.2c.2-.1.4-.15.58-.15.23 0 .43.09.6.26.17.17.25.37.25.6 0 .3-.15.59-.47.84a4.8 4.8 0 0 1-2.85.95c-.94 0-1.76-.2-2.46-.6-.7-.4-1.23-.96-1.61-1.66-.39-.7-.58-1.5-.58-2.39 0-.98.2-1.85.6-2.6.41-.74.94-1.3 1.6-1.7.66-.4 1.37-.6 2.12-.6.73 0 1.43.21 2.08.62.66.42 1.18.97 1.57 1.67.4.7.59 1.46.59 2.27zm-4.24-2.67c-1.3 0-2.07.63-2.3 1.88h4.4v-.12c-.05-.48-.28-.9-.7-1.24a2.14 2.14 0 0 0-1.4-.52z"/><path id="cqadd" d="M870.75 311.3c.3 0 .54.1.73.29.2.19.3.43.3.73 0 .28-.1.52-.3.71a1 1 0 0 1-.73.29h-5.45c-.29 0-.53-.1-.73-.3-.2-.2-.29-.46-.29-.75v-9.94c0-.3.1-.55.3-.75.2-.2.46-.3.77-.3.28 0 .52.1.72.3.2.2.3.45.3.75v8.97zm10.05-7.36c.3 0 .53.1.72.3.2.2.29.44.29.75v7.28c0 .3-.1.54-.29.74-.19.2-.43.3-.72.3s-.53-.1-.71-.29a1.1 1.1 0 0 1-.3-.74c-.27.34-.65.62-1.13.85-.47.24-.97.36-1.5.36-.77 0-1.47-.2-2.1-.61a4.25 4.25 0 0 1-1.48-1.7 5.4 5.4 0 0 1-.54-2.46c0-.91.17-1.74.53-2.46a4.2 4.2 0 0 1 1.47-1.7 3.8 3.8 0 0 1 3.56-.31c.47.2.87.45 1.2.76v-.02c0-.3.09-.55.28-.75.2-.2.43-.3.72-.3zm-3.39 7.66c.73 0 1.32-.28 1.78-.82.46-.55.69-1.23.69-2.06 0-.82-.23-1.5-.69-2.06a2.2 2.2 0 0 0-1.78-.83c-.71 0-1.3.28-1.76.83a3.11 3.11 0 0 0-.69 2.06c0 .83.23 1.51.68 2.06a2.2 2.2 0 0 0 1.77.82zm11.23-7.66c.77 0 1.47.2 2.1.61.62.41 1.11.98 1.48 1.7.36.72.54 1.54.54 2.46 0 .91-.18 1.74-.54 2.46a4.2 4.2 0 0 1-1.46 1.7 3.67 3.67 0 0 1-3.58.28c-.47-.22-.87-.5-1.18-.81v.1c0 .3-.1.55-.28.75-.2.2-.43.3-.72.3-.3 0-.54-.1-.73-.3-.19-.19-.28-.44-.28-.75v-10.8c0-.3.1-.55.28-.75.2-.2.43-.3.73-.3.29 0 .53.1.72.3.19.2.28.45.28.75v3.6a3.49 3.49 0 0 1 2.64-1.3zm-.26 7.66c.72 0 1.3-.28 1.76-.83.46-.55.7-1.24.7-2.06a3.1 3.1 0 0 0-.69-2.06 2.2 2.2 0 0 0-1.77-.82c-.72 0-1.32.28-1.77.82a3.08 3.08 0 0 0-.7 2.06c0 .82.24 1.51.7 2.06a2.2 2.2 0 0 0 1.77.83zm14.11-3.1a.9.9 0 0 1-.32.67c-.2.17-.43.26-.7.26h-5.54a2.6 2.6 0 0 0 2.55 2.17c.46 0 .82-.05 1.07-.13.26-.09.47-.18.62-.28l.3-.2c.2-.1.4-.15.58-.15.23 0 .43.09.6.26.17.17.25.37.25.6 0 .3-.15.59-.47.84a4.8 4.8 0 0 1-2.85.95c-.94 0-1.76-.2-2.46-.6-.7-.4-1.23-.96-1.61-1.66-.38-.7-.57-1.5-.57-2.39 0-.98.2-1.85.6-2.6.4-.74.93-1.3 1.6-1.7a3.85 3.85 0 0 1 4.2.03 4.57 4.57 0 0 1 2.16 3.94zm-4.24-2.67c-1.3 0-2.07.63-2.3 1.88h4.4v-.12c-.05-.48-.28-.9-.7-1.24a2.14 2.14 0 0 0-1.4-.52zm8.1 6.44c0 .3-.1.54-.3.74-.2.2-.43.3-.73.3a.93.93 0 0 1-.7-.3c-.19-.2-.29-.45-.29-.74v-10.63c0-.3.1-.55.3-.75.2-.2.44-.3.73-.3.28 0 .51.1.7.3.2.2.29.45.29.75z"/></defs><g><g transform="translate(-798 -286)"><use fill="#fff" xlink:href="#cqada"/></g><g transform="translate(-798 -286)"><use fill="#fff" xlink:href="#cqadb"/></g><g transform="translate(-798 -286)"><use fill="#fff" xlink:href="#cqadc"/></g><g transform="translate(-798 -286)"><use fill="#fff" xlink:href="#cqadd"/></g></g></svg>