<?xml version="1.0" encoding="UTF-8"?>
<svg width="20px" height="20px" viewBox="0 0 16 16" version="1.1" xmlns="http://www.w3.org/2000/svg" xmlns:xlink="http://www.w3.org/1999/xlink">
    <!-- Generator: Sketch 52.4 (67378) - http://www.bohemiancoding.com/sketch -->
    <title>Icons/File</title>
    <desc>Created with Sketch.</desc>
    <defs>
        <path d="M11.5679844,0.148837209 C12.1038212,0.148837209 12.5382027,0.616632712 12.5382027,1.19368771 L12.5382027,13.7318937 C12.5382027,14.3089487 12.1038212,14.7767442 11.5679844,14.7767442 L1.21898898,14.7767442 C0.683152194,14.7767442 0.248770655,14.3089487 0.248770655,13.7318937 L0.248770655,4.32823921 C0.24815192,3.96004295 0.427530814,3.6186749 0.720943571,3.42966778 L3.30819243,0.643399779 C3.48446686,0.336991518 3.7949439,0.150065915 4.12964394,0.148837209 L11.5679844,0.148837209 Z M3.15942562,2.28033223 L2.22801603,3.28338871 L3.15942562,3.28338871 L3.15942562,2.28033223 Z M11.5679844,13.7318937 L11.5550482,1.20761905 L4.14904831,1.20761905 L4.14904831,1.22851606 L4.12964394,1.24941307 L4.12964394,4.34217055 L1.25779771,4.34217055 L1.23839334,4.36306756 L1.21898898,4.36306756 L1.21898898,13.7318937 L11.5679844,13.7318937 Z M9.62754776,8.15935771 C9.89546615,8.15935771 10.1126569,8.39325546 10.1126569,8.68178296 C10.1126569,8.97031046 9.89546615,9.20420821 9.62754776,9.20420821 L3.15942562,9.20420821 C2.89150723,9.20420821 2.67431646,8.97031046 2.67431646,8.68178296 C2.67431646,8.39325546 2.89150723,8.15935771 3.15942562,8.15935771 L9.62754776,8.15935771 Z M9.62754776,5.7 C9.89546615,5.7 10.1126569,5.93389775 10.1126569,6.22242525 C10.1126569,6.51095275 9.89546615,6.7448505 9.62754776,6.7448505 L3.15942562,6.7448505 C2.89150723,6.7448505 2.67431646,6.51095275 2.67431646,6.22242525 C2.67431646,5.93389775 2.89150723,5.7 3.15942562,5.7 L9.62754776,5.7 Z M8.65732944,10.5973422 C8.92524783,10.5973422 9.1424386,10.83124 9.1424386,11.1197675 C9.1424386,11.408295 8.92524783,11.6421927 8.65732944,11.6421927 L3.15942562,11.6421927 C2.89150723,11.6421927 2.67431646,11.408295 2.67431646,11.1197675 C2.67431646,10.83124 2.89150723,10.5973422 3.15942562,10.5973422 L8.65732944,10.5973422 Z" id="path-1"></path>
    </defs>
    <g id="Icons/File" stroke="none" stroke-width="1" fill="none" fill-rule="evenodd">
        <g id="Fill-89" transform="translate(1.000000, 0.000000)">
            <g id="Color/Black">
                <mask id="mask-2" fill="white">
                    <use xlink:href="#path-1"></use>
                </mask>
                <use id="Mask" stroke="#000000" stroke-width="0.1" fill="#000000" xlink:href="#path-1"></use>
                <g id="Color/Grey" mask="url(#mask-2)" fill="#000000" fill-rule="nonzero">
                    <g transform="translate(-0.928571, 0.000000)" id="Rectangle-Copy">
                        <rect x="0" y="0" width="15" height="16"></rect>
                    </g>
                </g>
            </g>
        </g>
    </g>
</svg>