<svg xmlns="http://www.w3.org/2000/svg" xmlns:xlink="http://www.w3.org/1999/xlink" width="15" height="15" viewBox="0 0 15 15"><defs><path id="xecma" d="M442 325.32v-9.76a2.56 2.56 0 0 1 2.56-2.56h9.76a2.56 2.56 0 0 1 2.56 2.56v9.76a2.56 2.56 0 0 1-2.56 2.56h-9.76a2.56 2.56 0 0 1-2.56-2.56zm1.38 0c0 .65.53 1.18 1.18 1.18h9.76c.65 0 1.18-.53 1.18-1.18v-9.76c0-.65-.53-1.18-1.18-1.18h-9.76c-.65 0-1.18.53-1.18 1.18z"/><path id="xecmb" d="M451.34 321.16l.98-.98-.98-.98-2.2-2.2-.98.98 1.5 1.5H446v1.38h3.69l-1.53 1.52.98.98 2.2-2.2z"/></defs><g><g transform="translate(-442 -313)"><use fill="#0096d0" xlink:href="#xecma"/></g><g transform="translate(-442 -313)"><use fill="#0096d0" xlink:href="#xecmb"/></g></g></svg>