<?xml version="1.0" encoding="UTF-8"?>
<svg width="6px" height="6px" viewBox="0 0 6 6" version="1.1" xmlns="http://www.w3.org/2000/svg" xmlns:xlink="http://www.w3.org/1999/xlink">
    <!-- Generator: Sketch 48.2 (47327) - http://www.bohemiancoding.com/sketch -->
    <title>refresh-button</title>
    <desc>Created with Sketch.</desc>
    <defs></defs>
    <g id="1-Group-Expand" stroke="none" stroke-width="1" fill="none" fill-rule="evenodd" transform="translate(-1127.000000, -178.000000)">
        <g id="COA/List" transform="translate(160.000000, 161.000000)" fill="#A8ABB0" fill-rule="nonzero">
            <g id="Group">
                <g id="refresh-button" transform="translate(967.000000, 17.000000)">
                    <path d="M5.1,0.9 C4.575,0.3375 3.825,0 3,0 C1.35,0 0,1.35 0,3 C0,4.65 1.35,6 3,6 C4.3875,6 5.55,5.025 5.8875,3.75 L5.1,3.75 C4.8,4.6125 3.975,5.25 3,5.25 C1.7625,5.25 0.75,4.2375 0.75,3 C0.75,1.7625 1.7625,0.75 3,0.75 C3.6375,0.75 4.1625,1.0125 4.575,1.425 L3.375,2.625 L6,2.625 L6,0 L5.1,0.9 Z" id="Shape"></path>
                </g>
            </g>
        </g>
    </g>
</svg>