<?xml version="1.0" encoding="UTF-8"?>
<svg width="22px" height="22px" viewBox="0 0 22 22" version="1.1" xmlns="http://www.w3.org/2000/svg" xmlns:xlink="http://www.w3.org/1999/xlink">
    <!-- Generator: Sketch 50.2 (55047) - http://www.bohemiancoding.com/sketch -->
    <title>Group 6 Copy 6</title>
    <desc>Created with Sketch.</desc>
    <defs></defs>
    <g id="Admin" stroke="none" stroke-width="1" fill="none" fill-rule="evenodd">
        <g id="Group-6-Copy-6" fill="#898C93">
            <path d="M22,1.5741 C22,0.765233333 21.3422,0.107433333 20.5333333,0.107433333 L1.46666667,0.107433333 C0.6578,0.107433333 0,0.765233333 0,1.5741 C0,2.25573333 0.469333333,2.8248 1.1,2.9887 L1.1,20.7925667 L2.2,19.6925667 L4.4,21.8925667 L6.6,19.6925667 L8.8,21.8925667 L11,19.6925667 L13.2,21.8925667 L15.4,19.6925667 L17.6,21.8925667 L19.8,19.6925667 L20.9,20.7925667 L20.9,2.9887 C21.5306667,2.8248 22,2.25573333 22,1.5741 Z M20.1666667,19.0223 L19.8,18.6556333 L17.6,20.8556333 L15.4,18.6556333 L13.2,20.8556333 L11,18.6556333 L8.8,20.8556333 L6.6,18.6556333 L4.4,20.8556333 L2.2,18.6556333 L1.83333333,19.0223 L1.83333333,3.04076667 L1.83333333,1.94076667 L20.1666667,1.94076667 L20.1666667,3.04076667 L20.1666667,19.0223 Z M20.9,2.2088 L20.9,1.20743333 L1.1,1.20743333 L1.1,2.2088 C0.8811,2.0823 0.733333333,1.84506667 0.733333333,1.5741 C0.733333333,1.16966667 1.06223333,0.840766667 1.46666667,0.840766667 L20.5333333,0.840766667 C20.9377667,0.840766667 21.2666667,1.16966667 21.2666667,1.5741 C21.2666667,1.84506667 21.1189,2.0823 20.9,2.2088 Z" id="Shape"></path>
            <path d="M7.61026204,8.45645919 L2.20876102,13.8579602 C2.16187693,13.9048443 2.13553772,13.9684328 2.13553772,14.0347369 C2.13553772,14.1728081 2.24746653,14.2847369 2.38553772,14.2847369 L7.78703873,14.2847369 C7.92510992,14.2847369 8.03703873,14.1728081 8.03703873,14.0347369 L8.03703873,8.63323588 C8.03703873,8.56693176 8.01069952,8.50334328 7.96381543,8.45645919 C7.86618435,8.35882812 7.70789311,8.35882812 7.61026204,8.45645919 Z" id="Rectangle" stroke="#898C93" stroke-width="0.5" transform="translate(5.372274, 11.619972) rotate(-45.000000) translate(-5.372274, -11.619972) "></path>
            <path d="M18.3189542,14.7741 L10.7699346,14.7741 C10.4921307,14.7741 10.2666667,14.9976 10.2666667,15.2741 C10.2666667,15.5506 10.4921307,15.7741 10.7699346,15.7741 L18.3189542,15.7741 C18.5967582,15.7741 18.8222222,15.5506 18.8222222,15.2741 C18.8222222,14.9976 18.5967582,14.7741 18.3189542,14.7741 Z" id="Shape"></path>
            <path d="M18.3189542,9.64076667 L10.7699346,9.64076667 C10.4921307,9.64076667 10.2666667,9.86426667 10.2666667,10.1407667 C10.2666667,10.4172667 10.4921307,10.6407667 10.7699346,10.6407667 L18.3189542,10.6407667 C18.5967582,10.6407667 18.8222222,10.4172667 18.8222222,10.1407667 C18.8222222,9.86426667 18.5967582,9.64076667 18.3189542,9.64076667 Z" id="Shape"></path>
            <path d="M18.4148148,12.2074333 L14.3407407,12.2074333 C14.1158519,12.2074333 13.9333333,12.4309333 13.9333333,12.7074333 C13.9333333,12.9839333 14.1158519,13.2074333 14.3407407,13.2074333 L18.4148148,13.2074333 C18.6397037,13.2074333 18.8222222,12.9839333 18.8222222,12.7074333 C18.8222222,12.4309333 18.6397037,12.2074333 18.4148148,12.2074333 Z" id="Shape"></path>
            <path d="M10.2666667,12.7074333 C10.2666667,12.9839333 10.4309333,13.2074333 10.6333333,13.2074333 L11.3666667,13.2074333 C11.5690667,13.2074333 11.7333333,12.9839333 11.7333333,12.7074333 C11.7333333,12.4309333 11.5690667,12.2074333 11.3666667,12.2074333 L10.6333333,12.2074333 C10.4309333,12.2074333 10.2666667,12.4309333 10.2666667,12.7074333 Z" id="Shape"></path>
            <path d="M18.8222222,7.5741 C18.8222222,7.2976 18.5967582,7.0741 18.3189542,7.0741 L10.7699346,7.0741 C10.4921307,7.0741 10.2666667,7.2976 10.2666667,7.5741 C10.2666667,7.8506 10.4921307,8.0741 10.7699346,8.0741 L18.3189542,8.0741 C18.5967582,8.0741 18.8222222,7.8506 18.8222222,7.5741 Z" id="Shape"></path>
            <path d="M13.3216667,13.0661047 C13.4116667,12.9705072 13.4666667,12.8447211 13.4666667,12.708872 C13.4666667,12.5725198 13.4116667,12.4422053 13.3216667,12.3516393 C13.1366667,12.1654758 12.8016667,12.1654758 12.6116667,12.3516393 C12.5216667,12.4467336 12.4666667,12.5780544 12.4666667,12.708872 C12.4666667,12.8396896 12.5216667,12.9705072 12.6116667,13.0661047 C12.7066667,13.1566708 12.8366667,13.2120167 12.9666667,13.2120167 C13.0966667,13.2120167 13.2266667,13.1566708 13.3216667,13.0661047 Z" id="Shape"></path>
            <circle id="Oval" cx="14.8" cy="4.2741" r="1"></circle>
            <circle id="Oval" cx="13.3333333" cy="4.2741" r="1"></circle>
            <circle id="Oval" cx="16.2666667" cy="4.2741" r="1"></circle>
            <circle id="Oval" cx="11.8666667" cy="4.2741" r="1"></circle>
            <circle id="Oval" cx="17.7333333" cy="4.2741" r="1"></circle>
            <circle id="Oval" cx="7.46666667" cy="4.2741" r="1"></circle>
            <circle id="Oval" cx="8.93333333" cy="4.2741" r="1"></circle>
            <circle id="Oval" cx="10.4" cy="4.2741" r="1"></circle>
            <circle id="Oval" cx="19.2" cy="4.2741" r="1"></circle>
            <circle id="Oval" cx="6" cy="4.2741" r="1"></circle>
            <circle id="Oval" cx="4.53333333" cy="4.2741" r="1"></circle>
            <circle id="Oval" cx="3.06666667" cy="4.2741" r="1"></circle>
        </g>
    </g>
</svg>