<svg xmlns="http://www.w3.org/2000/svg" xmlns:xlink="http://www.w3.org/1999/xlink" width="139" height="36" viewBox="0 0 139 36"><defs><path id="2vr0a" d="M596.77 329.1s18.34 7.29 24.11 1c5.78-6.29 8.6-13.56 12.65-10.36 4.05 3.2 9.95 14.46 15.82 11.36 5.87-3.1 13.93-13.27 21.35-10.8 7.41 2.47 9.59 9.37 15.02 6.8 5.43-2.55 8.8-22.62 17-18.56 8.2 4.06 11.67 14.04 17.8 14.08 6.11.04 3.74 10.45 9.87 7.2 6.14-3.27 11.72-5.23 15.03 6.76 3.31 12 .4 32.42.4 32.42L594 364.51l2.77-35.4z"/><linearGradient id="2vr0b" x1="670.5" x2="670.5" y1="145.52" y2="342.78" gradientUnits="userSpaceOnUse"><stop offset="0" stop-color="#2875ef"/><stop offset="1" stop-color="#0051ff" stop-opacity="0"/></linearGradient></defs><g><g clip-path="url(#clip-36EB271B-BC29-445C-AD84-9B34CA0634FC)" transform="translate(-604 -307)"><use fill="url(#2vr0b)" xlink:href="#2vr0a"/><use fill="#fff" fill-opacity="0" stroke="#2875ef" stroke-miterlimit="50" stroke-width="2" xlink:href="#2vr0a"/></g></g></svg>