<svg xmlns="http://www.w3.org/2000/svg" xmlns:xlink="http://www.w3.org/1999/xlink" width="52" height="52" viewBox="0 0 52 52"><defs><path id="7h42a" d="M747 282c0 14.34-11.66 26-26 26s-26-11.66-26-26 11.66-26 26-26 26 11.66 26 26zm-4.73 0a21.28 21.28 0 0 0-42.54 0 21.28 21.28 0 0 0 42.54 0zm-8.03-7.8c.86.95.86 2.44-.08 3.3l-14.58 13.88c-.47.39-1.1.63-1.65.63a2.4 2.4 0 0 1-1.66-.71l-8.35-8.35a2.28 2.28 0 0 1 0-3.31 2.28 2.28 0 0 1 3.31 0l6.7 6.7 12.92-12.3a2.38 2.38 0 0 1 3.39.16z"/><linearGradient id="7h42b" x1="695" x2="747.01" y1="282" y2="282" gradientUnits="userSpaceOnUse"><stop offset="0" stop-color="#00cfad"/><stop offset=".34" stop-color="#21b7d0"/><stop offset=".48" stop-color="#2facdf"/><stop offset=".6" stop-color="#2ea5e1"/><stop offset=".77" stop-color="#2c90e7"/><stop offset=".98" stop-color="#276ff1"/><stop offset="1" stop-color="#276cf2"/></linearGradient></defs><g><g transform="translate(-695 -256)"><use fill="url(#7h42b)" xlink:href="#7h42a"/></g></g></svg>