<?xml version="1.0" encoding="UTF-8"?>
<svg width="17px" height="23px" viewBox="0 0 17 23" version="1.1" xmlns="http://www.w3.org/2000/svg" xmlns:xlink="http://www.w3.org/1999/xlink">
    <!-- Generator: Sketch 52.5 (67469) - http://www.bohemiancoding.com/sketch -->
    <title>clipboard</title>
    <desc>Created with Sketch.</desc>
    <g id="WebApp---Admin" stroke="none" stroke-width="1" fill="none" fill-rule="evenodd">
        <g id="Dashboard" transform="translate(-51.000000, -575.000000)" fill="#898C93">
            <g id="Data-report(active)-Copy" transform="translate(22.000000, 576.000000)">
                <g id="clipboard" transform="translate(30.000000, 0.000000)">
                    <path d="M7.91658333,6.812125 C6.13391667,6.812125 4.683625,8.26241667 4.683625,10.0450833 C4.683625,11.82775 6.13391667,13.2780417 7.91658333,13.2780417 C9.69925,13.2780417 11.1495417,11.82775 11.1495417,10.0450833 C11.1495417,8.26241667 9.69925,6.812125 7.91658333,6.812125 Z M8.229125,7.45654167 C9.40070833,7.59716667 10.359875,8.52241667 10.505125,9.73254167 L8.229125,9.73254167 L8.229125,7.45654167 Z M7.91658333,12.6529583 C6.47858333,12.6529583 5.30866667,11.4830417 5.30866667,10.0450417 C5.30866667,8.712875 6.31295833,7.6115 7.60404167,7.4565 L7.60404167,9.957 C7.60404167,10.1778333 7.78375,10.3575417 8.00458333,10.3575417 L10.5050833,10.3575417 C10.350125,11.6487083 9.24875,12.6529583 7.91658333,12.6529583 Z" id="Shape" fill-rule="nonzero"></path>
                    <path d="M11.9337917,14.1442083 C12.1064583,14.1442083 12.2463333,14.2840833 12.2463333,14.4567083 C12.2463333,14.6293333 12.1064583,14.7692083 11.9338333,14.7692083 L5.30116667,14.7692083 C5.12858333,14.7692083 4.98866667,14.6293333 4.98866667,14.4567083 C4.98866667,14.2840833 5.12858333,14.1442083 5.30116667,14.1442083 L11.9337917,14.1442083 Z M11.9337917,15.6217083 C12.1064583,15.6217083 12.2463333,15.7615833 12.2463333,15.9342083 C12.2463333,16.1068333 12.1064583,16.2467083 11.9338333,16.2467083 L5.30116667,16.2467083 C5.12858333,16.2467083 4.98866667,16.1068333 4.98866667,15.9342083 C4.98866667,15.7615833 5.12858333,15.6217083 5.30116667,15.6217083 L11.9337917,15.6217083 Z M11.9337917,17.09925 C12.1064583,17.09925 12.2463333,17.239125 12.2463333,17.41175 C12.2463333,17.584375 12.1064583,17.72425 11.9338333,17.72425 L5.30116667,17.72425 C5.12858333,17.72425 4.98866667,17.584375 4.98866667,17.41175 C4.98866667,17.239125 5.12858333,17.09925 5.30116667,17.09925 L11.9337917,17.09925 Z M3.982125,14.1504583 C4.1255,14.1772917 4.23379167,14.3065833 4.23379167,14.4567083 C4.23379167,14.6273333 4.09466667,14.7692083 3.92129167,14.7692083 C3.74858333,14.7692083 3.60879167,14.629 3.60879167,14.4567083 C3.60879167,14.3033333 3.720375,14.1765833 3.86004167,14.1504583 C3.90045833,14.142125 3.942125,14.142125 3.982125,14.1504583 Z M3.982125,15.6280417 C4.12116667,15.6540417 4.23379167,15.77975 4.23379167,15.9342917 C4.23379167,16.1019167 4.09833333,16.2467917 3.92129167,16.2467917 C3.74716667,16.2467917 3.60879167,16.1045833 3.60879167,15.9342917 C3.60879167,15.777625 3.724,15.6535 3.86004167,15.6280417 C3.90045833,15.6197083 3.942125,15.6197083 3.982125,15.6280417 Z M3.98254167,17.1052083 C4.140875,17.1387917 4.23379167,17.2739167 4.23375,17.4118333 C4.23375,17.5809583 4.09641667,17.7243333 3.92125,17.7243333 C3.75204167,17.7243333 3.60875,17.5867083 3.60875,17.4118333 C3.60875,17.2114167 3.7935,17.0672083 3.98254167,17.1052083 Z" id="Combined-Shape"></path>
                    <path d="M15.518375,11.8952917 C15.34575,11.8952917 15.205875,12.0351667 15.205875,12.2077917 L15.205875,19.8890833 C15.205875,20.3407917 14.8384167,20.7082083 14.38675,20.7082083 L1.4465,20.7082083 C0.994833333,20.7082083 0.627375,20.34075 0.627375,19.8890833 L0.627375,3.76975 C0.627375,3.31804167 0.994875,2.950625 1.4465,2.950625 L4.09383333,2.950625 L4.09383333,3.12466667 C4.09383333,3.12479167 4.09383333,3.12491667 4.09383333,3.12508333 C4.09383333,3.57566667 4.458375,3.94016667 4.906375,3.94016667 L4.90929167,3.94016667 L5.02375,3.94016667 L5.02375,4.496875 L2.213125,4.496875 C1.92120833,4.496875 1.68366667,4.734375 1.68366667,5.02633333 L1.68366667,19.1142083 C1.68366667,19.406125 1.92116667,19.6436667 2.213125,19.6436667 L7.21870833,19.6436667 C7.39133333,19.6436667 7.53120833,19.5037917 7.53120833,19.3311667 C7.53120833,19.1585417 7.39133333,19.0186667 7.21870833,19.0186667 L2.30870833,19.0186667 L2.30870833,5.12183333 L5.02375,5.12183333 L13.524375,5.12183333 L13.524375,19.0185417 L8.67716667,19.0185417 C8.50454167,19.0185417 8.36466667,19.1584167 8.36466667,19.3310417 C8.36466667,19.5036667 8.50454167,19.6435417 8.67716667,19.6435417 L13.6200417,19.6435417 C13.9119583,19.6435417 14.1494583,19.4060417 14.1494583,19.1140833 L14.1494583,5.02625 C14.1494583,4.73433333 13.912,4.49679167 13.6200417,4.49679167 L10.8094167,4.49679167 L10.8094167,3.940125 L10.9238333,3.940125 C11.3747917,3.940125 11.7392917,3.57558333 11.7392917,3.12758333 L11.7392917,3.12466667 L11.7392917,2.950625 L14.386625,2.950625 C14.8383333,2.950625 15.20575,3.31808333 15.20575,3.76975 L15.20575,10.7494583 C15.2057917,10.9220417 15.3456667,11.0619583 15.5182917,11.0619583 C15.6909167,11.0619583 15.8307917,10.9220833 15.8307917,10.7494583 L15.8307917,3.76975 C15.8307917,2.97345833 15.1829167,2.32558333 14.386625,2.32558333 L11.7392917,2.32558333 L11.7392917,2.13616667 C11.7392917,1.688125 11.37475,1.323625 10.92675,1.323625 L9.224875,1.323625 L9.224875,0.815458333 C9.224875,0.365833333 8.85908333,0 8.40941667,0 L7.42383333,0 C6.97416667,0 6.608375,0.365833333 6.608375,0.815458333 L6.608375,1.32354167 L4.9065,1.32354167 C4.45845833,1.32354167 4.09395833,1.68804167 4.09395833,2.13608333 L4.09395833,2.3255 L1.446625,2.3255 C0.650333333,2.3255 0.00245833333,2.973375 0.00245833333,3.76966667 L0.00245833333,19.8890833 C0.00245833333,20.685375 0.650333333,21.33325 1.446625,21.33325 L14.38675,21.33325 C15.1830417,21.33325 15.8309167,20.685375 15.8309167,19.8890833 L15.8309167,12.2078333 C15.830875,12.0351667 15.691,11.8952917 15.518375,11.8952917 Z M10.184375,4.49683333 L5.64879167,4.49683333 L5.64879167,3.940125 L10.184375,3.940125 L10.184375,4.49683333 Z M7.42379167,0.625041667 L8.409375,0.625041667 C8.512625,0.625041667 8.59979167,0.71225 8.59979167,0.815458333 L8.59979167,1.32354167 L7.23333333,1.32354167 L7.23333333,0.815458333 C7.23333333,0.712208333 7.32058333,0.625041667 7.42379167,0.625041667 Z M4.718875,2.136125 C4.718875,2.0345 4.80475,1.948625 4.906375,1.948625 C5.17279167,1.948625 10.6628333,1.948625 10.9267083,1.948625 C11.0283333,1.948625 11.1142083,2.0345 11.1142083,2.136125 C11.1142083,2.50533333 11.1142083,2.77308333 11.1142083,3.124625 C11.1142083,3.227875 11.027,3.31504167 10.9237917,3.31504167 C10.7937083,3.31504167 5.09991667,3.31504167 4.90929167,3.31504167 C4.806125,3.31504167 4.719,3.22795833 4.718875,3.12479167 L4.718875,2.136125 Z" id="Shape" stroke="#898C93" stroke-width="0.2" fill-rule="nonzero"></path>
                </g>
            </g>
        </g>
    </g>
</svg>