<svg xmlns="http://www.w3.org/2000/svg" width="19" height="19" viewBox="0 0 19 19"><defs><clipPath id="9u72a"><path d="M5.564 14.12V8.162h1.47v5.958zm2.523 1.042V7.12H4.522v8.042zm3.004-1.042V8.162h1.47v5.958zm2.512 1.042V7.12H10.05v8.042zM9.063 1.164l8.02 3.991V7.12h-1.508v8.042h1.508v1.958H1.043v-1.958H2.55V7.12H1.042V5.155zM1.507 8.162v5.958H0v4.042h18.125V14.12h-1.507V8.162h1.507V4.51L9.063 0 0 4.51v3.652z"/></clipPath></defs><g><g><g><path fill="#979797" d="M5.564 14.12V8.162h1.47v5.958zm2.523 1.042V7.12H4.522v8.042zm3.004-1.042V8.162h1.47v5.958zm2.512 1.042V7.12H10.05v8.042zM9.063 1.164l8.02 3.991V7.12h-1.508v8.042h1.508v1.958H1.043v-1.958H2.55V7.12H1.042V5.155zM1.507 8.162v5.958H0v4.042h18.125V14.12h-1.507V8.162h1.507V4.51L9.063 0 0 4.51v3.652z"/></g><g clip-path="url(#9u72a)"><g><path fill="#1c5df4" d="M-7-7h31v31H-7z"/></g></g></g></g></svg>