<?xml version="1.0" encoding="UTF-8"?>
<svg width="27px" height="25px" viewBox="0 0 27 25" version="1.1" xmlns="http://www.w3.org/2000/svg" xmlns:xlink="http://www.w3.org/1999/xlink">
    <!-- Generator: Sketch 47.1 (45422) - http://www.bohemiancoding.com/sketch -->
    <title>ico_message</title>
    <desc>Created with Sketch.</desc>
    <defs>
        <path d="M13.3936039,2.00003637 C9.40078938,1.9894902 5.75684967,4.27312531 4.02542279,7.87101915 C2.29399592,11.468913 2.78290419,15.7414128 5.28235391,18.8551614 L3.76510391,22.4199114 C3.68996744,22.597147 3.7178567,22.8012903 3.83777907,22.9518778 C3.95770144,23.1024652 4.15042179,23.1753431 4.33997891,23.1417864 L9.92597891,22.1652864 C13.8226693,23.5489812 18.1689519,22.4883079 20.9901898,19.4651598 C23.8114277,16.4420118 24.5696219,12.0328915 22.9203038,8.24098473 C21.2709856,4.44907793 17.5286736,1.99748648 13.3936039,2.00003637 Z M13.3936039,21.7164114 C12.2877859,21.7163906 11.1908436,21.5190477 10.1543539,21.1336614 C10.0702862,21.1035938 9.9799393,21.0954625 9.89185391,21.1100364 L5.10910391,21.9421614 L6.37172891,18.9706614 C6.44948666,18.7874522 6.41695959,18.5760262 6.28772891,18.4246614 C3.45458661,15.0863217 3.32510288,10.2266138 5.97645587,6.7421434 C8.62780886,3.25767299 13.3460992,2.08666343 17.3190124,3.9270894 C21.2919255,5.76751537 23.4497208,10.1238265 22.5062546,14.3994643 C21.5627883,18.675102 17.7720969,21.7188145 13.3936039,21.7164114 Z M9.63275,14.2655 C10.5344929,14.2655 11.2655,13.5344929 11.2655,12.63275 C11.2655,11.7310071 10.5344929,11 9.63275,11 C8.73100707,11 8,11.7310071 8,12.63275 C8,13.5344929 8.73100707,14.2655 9.63275,14.2655 Z M13.63275,14.2655 C14.5344929,14.2655 15.2655,13.5344929 15.2655,12.63275 C15.2655,11.7310071 14.5344929,11 13.63275,11 C12.7310071,11 12,11.7310071 12,12.63275 C12,13.5344929 12.7310071,14.2655 13.63275,14.2655 Z M17.63275,14.2655 C18.5344929,14.2655 19.2655,13.5344929 19.2655,12.63275 C19.2655,11.7310071 18.5344929,11 17.63275,11 C16.7310071,11 16,11.7310071 16,12.63275 C16,13.5344929 16.7310071,14.2655 17.63275,14.2655 Z" id="path-1"></path>
    </defs>
    <g id="Symbols" stroke="none" stroke-width="1" fill="none" fill-rule="evenodd">
        <g id="ico_message">
            <mask id="mask-2" fill="white">
                <use xlink:href="#path-1"></use>
            </mask>
            <use id="Mask" fill="#727272" fill-rule="nonzero" xlink:href="#path-1"></use>
            <g id="color-normal" mask="url(#mask-2)" fill="#727272">
                <rect id="Rectangle-3" x="0" y="0" width="27" height="25"></rect>
            </g>
        </g>
    </g>
</svg>