<?xml version="1.0" encoding="UTF-8"?>
<svg width="27px" height="25px" viewBox="0 0 27 25" version="1.1" xmlns="http://www.w3.org/2000/svg" xmlns:xlink="http://www.w3.org/1999/xlink">
    <!-- Generator: Sketch 47.1 (45422) - http://www.bohemiancoding.com/sketch -->
    <title>ico_client</title>
    <desc>Created with Sketch.</desc>
    <defs>
        <path d="M7.71946237,10.8312303 L18.2783525,10.8312303 L18.4318991,9.73817035 C18.5598547,8.79652997 18.3039436,7.83123028 17.7255846,7.08832808 C17.0909252,6.27444795 16.1440543,5.81072555 15.1306465,5.81072555 L14.076293,5.81072555 L13.0014666,7.39589905 L11.9317583,5.80599369 L10.8774048,5.80599369 C9.86399701,5.80599369 8.91712611,6.26971609 8.27734847,7.08359621 C7.69898948,7.82649842 7.43796021,8.79179811 7.57103395,9.73817035 L7.71946237,10.8312303 Z M8.95807187,7.54258675 C9.43918466,6.93217666 10.140381,6.58201893 10.882523,6.58201893 L11.4660002,6.58201893 L13.0014666,8.86277603 L14.5369329,6.58201893 L15.1255283,6.58201893 C15.8676704,6.58201893 16.5688667,6.93217666 17.0448612,7.54258675 C17.5003829,8.12933754 17.7051117,8.89589905 17.6027473,9.64353312 L17.5464469,10.0599369 L8.45648621,10.0599369 L8.40018577,9.64353312 C8.29782135,8.89116719 8.5025502,8.12460568 8.95807187,7.54258675 Z M13.0014666,5.42271293 C14.4601596,5.42271293 15.5145131,3.57255521 15.5145131,2.32334385 C15.5145131,1.04100946 14.3885045,0 13.0014666,0 C11.6144286,0 10.48842,1.04100946 10.48842,2.32334385 C10.48842,3.57255521 11.5427735,5.42271293 13.0014666,5.42271293 Z M13.0014666,0.776025237 C13.9227464,0.776025237 14.6751249,1.47160883 14.6751249,2.32334385 C14.6751249,3.28391167 13.8101455,4.6466877 13.0014666,4.6466877 C12.1927876,4.6466877 11.3278082,3.28391167 11.3278082,2.32334385 C11.3278082,1.47160883 12.0801868,0.776025237 13.0014666,0.776025237 Z M7.59150684,18.9747634 L6.53715329,18.9747634 L5.46744508,20.5646688 L4.39773687,18.9747634 L3.34338332,18.9747634 C2.32997554,18.9747634 1.38310463,19.4384858 0.743326995,20.2523659 C0.16496801,20.9952681 -0.0960612668,21.9652997 0.0318942609,22.9069401 L0.180322673,24 L10.7392128,24 L10.8927595,22.9069401 C11.020715,21.9652997 10.7648039,21 10.1864449,20.2570978 C9.55178552,19.4384858 8.60491462,18.9747634 7.59150684,18.9747634 Z M10.0636076,22.807571 L10.0073072,23.2239748 L0.922464734,23.2239748 L0.866164302,22.807571 C0.763799879,22.0599369 0.963410503,21.2933754 1.4240504,20.7066246 C1.90516319,20.0962145 2.60635948,19.7460568 3.34850154,19.7460568 L3.93709697,19.7460568 L5.4725633,22.0268139 L7.00802963,19.7460568 L7.59662506,19.7460568 C8.33876712,19.7460568 9.03996341,20.0962145 9.51595798,20.7066246 C9.96124321,21.2933754 10.1659721,22.0599369 10.0636076,22.807571 Z M5.46744508,18.5867508 C6.92613809,18.5867508 7.98049164,16.7365931 7.98049164,15.4873817 C7.98049164,14.2050473 6.854483,13.1640379 5.46744508,13.1640379 C4.08040716,13.1640379 2.95439851,14.2050473 2.95439851,15.4873817 C2.95439851,16.7365931 4.00875206,18.5867508 5.46744508,18.5867508 Z M5.46744508,13.9400631 C6.38872488,13.9400631 7.14110338,14.6356467 7.14110338,15.4873817 C7.14110338,16.4479495 6.27612401,17.8107256 5.46744508,17.8107256 C4.65876614,17.8107256 3.78866855,16.4479495 3.78866855,15.4873817 C3.78866855,14.6356467 4.54104706,13.9400631 5.46744508,13.9400631 Z M25.2596061,20.2523659 C24.6249467,19.4384858 23.6780758,18.9747634 22.664668,18.9747634 L21.6103145,18.9747634 L20.5406062,20.5646688 L19.470898,18.9747634 L18.4165445,18.9747634 C17.4031367,18.9747634 16.4562658,19.4384858 15.8164882,20.2523659 C15.2381292,20.9952681 14.9770999,21.9605678 15.1101736,22.9069401 L15.2586021,24 L25.8174922,24 L25.9659206,22.9069401 C26.0989944,21.9652997 25.8379651,20.9952681 25.2596061,20.2523659 Z M25.1367688,22.807571 L25.0804684,23.2239748 L15.9956259,23.2239748 L15.9393255,22.807571 C15.836961,22.0599369 16.0365717,21.2933754 16.4972116,20.7066246 C16.9783244,20.0962145 17.6795206,19.7460568 18.4216627,19.7460568 L19.0102581,19.7460568 L20.5457245,22.0268139 L22.0811908,19.7460568 L22.6697862,19.7460568 C23.4119283,19.7460568 24.1131246,20.0962145 24.5891191,20.7066246 C25.0395226,21.2933754 25.2391332,22.0599369 25.1367688,22.807571 Z M20.5406062,18.5867508 C21.9992993,18.5867508 23.0536528,16.7365931 23.0536528,15.4873817 C23.0536528,14.2050473 21.9276442,13.1640379 20.5406062,13.1640379 C19.1535683,13.1640379 18.0275597,14.2050473 18.0275597,15.4873817 C18.0275597,16.7365931 19.0819132,18.5867508 20.5406062,18.5867508 Z M20.5406062,13.9400631 C21.461886,13.9400631 22.2142645,14.6356467 22.2142645,15.4873817 C22.2142645,16.4479495 21.3492852,17.8107256 20.5406062,17.8107256 C19.7319273,17.8107256 18.8669479,16.4479495 18.8669479,15.4873817 C18.8669479,14.6356467 19.6142082,13.9400631 20.5406062,13.9400631 Z M13.845973,17.2003155 L16.0570446,19.2444795 L16.6507582,18.6955836 L14.4396867,16.6514196 C14.5881151,16.4195584 14.6751249,16.1545741 14.6751249,15.8706625 C14.6751249,15.1514196 14.1377116,14.5504732 13.4211607,14.3753943 L13.4211607,11.6119874 L12.5817724,11.6119874 L12.5817724,14.3753943 C11.8601032,14.5504732 11.3278082,15.1514196 11.3278082,15.8706625 C11.3278082,16.159306 11.4199362,16.4242902 11.5632464,16.6514196 L9.35729312,18.6908517 L9.95100677,19.2397476 L12.1569601,17.2003155 C12.4077529,17.3375394 12.6943733,17.4179811 13.0014666,17.4179811 C13.3085598,17.4227129 13.5951802,17.3375394 13.845973,17.2003155 Z M13.0014666,15.0993691 C13.4621065,15.0993691 13.8408548,15.444795 13.8408548,15.8753943 C13.8408548,16.3012618 13.4672247,16.6514196 13.0014666,16.6514196 C12.5357084,16.6514196 12.1620783,16.3059937 12.1620783,15.8753943 C12.1620783,15.444795 12.5408267,15.0993691 13.0014666,15.0993691 Z" id="path-1"></path>
    </defs>
    <g id="Symbols" stroke="none" stroke-width="1" fill="none" fill-rule="evenodd">
        <g id="ico_client">
            <mask id="mask-2" fill="white">
                <use xlink:href="#path-1"></use>
            </mask>
            <g id="Mask" fill-rule="nonzero">
                <use fill="#727272" fill-rule="evenodd" xlink:href="#path-1"></use>
                <path stroke="#727272" stroke-width="0.15" d="M13.0028122,7.26354481 L14.076293,5.73572555 L15.1306465,5.73572555 C16.1690764,5.73572555 17.137044,6.21162535 17.784765,7.04225543 C18.3747995,7.80015485 18.63705,8.78544662 18.5061699,9.74860347 L18.2783525,10.9062303 L7.71946237,10.9062303 L7.64514442,10.841322 L7.4967646,9.7486137 C7.3613924,8.78589571 7.62500324,7.79944397 8.21838517,7.03724614 C8.87158765,6.20628787 9.83972051,5.73099369 10.8774048,5.73099369 L11.993985,5.76412679 L13.0028122,7.26354481 Z M9.01697514,7.5890131 L9.01713334,7.58881167 C8.57351739,8.15561868 8.37499663,8.90207646 8.4745095,9.63348408 L8.45648621,9.98493691 L17.4721232,10.0498879 L17.5284406,9.63335921 C17.6279298,8.90672444 17.4293899,8.16019455 16.9857177,7.58870659 C16.5241362,6.99677971 15.8448536,6.65701893 15.1255283,6.65701893 L14.5991477,6.62390356 L13.0636813,8.90466066 L12.9392518,8.90466066 L11.4660002,6.65701893 L10.882523,6.65701893 C10.1637967,6.65701893 9.48413379,6.99630725 9.01697514,7.5890131 Z M13.0014666,5.49771293 C11.6346513,5.49771293 10.41342,3.80333695 10.41342,2.32334385 C10.41342,0.998216086 11.5742649,-0.075 13.0014666,-0.075 C14.4286682,-0.075 15.5895131,0.998216086 15.5895131,2.32334385 C15.5895131,3.80333695 14.3682818,5.49771293 13.0014666,5.49771293 Z M13.0014666,0.851025237 C12.1203504,0.851025237 11.4028082,1.51440221 11.4028082,2.32334385 C11.4028082,3.30056781 12.2782309,4.5716877 13.0014666,4.5716877 C13.7247022,4.5716877 14.6001249,3.30056781 14.6001249,2.32334385 C14.6001249,1.51440221 13.8825827,0.851025237 13.0014666,0.851025237 Z M5.46856246,20.4319752 L6.53715329,18.8997634 L7.59150684,18.8997634 C8.63127959,18.8997634 9.59881892,19.3767453 10.2456253,20.2110251 C10.8356598,20.9689246 11.0979103,21.9542163 10.9670302,22.9173732 L10.7392128,24.075 L0.106004731,24.0100918 L-0.0424227479,22.9170387 C-0.172961393,21.9563888 0.0927805243,20.9659032 0.684363694,20.2060159 C1.33756618,19.3750576 2.30569904,18.8997634 3.34338332,18.8997634 L4.45996357,18.9328965 L5.46856246,20.4319752 Z M9.9892839,22.7975219 L9.9893009,22.7973971 C10.0883505,22.073973 9.8922274,21.3264973 9.45681441,20.7527444 C8.99523296,20.1608176 8.31595038,19.8210568 7.59662506,19.8210568 L7.0702444,19.7879414 L5.53477807,22.0686985 L5.41034853,22.0686985 L3.93709697,19.8210568 L3.34850154,19.8210568 C2.62977521,19.8210568 1.95011232,20.1603451 1.48304276,20.7529377 C1.03723342,21.3207977 0.840345769,22.066117 0.940488031,22.7975219 L0.922464734,23.1489748 L9.93298347,23.2139257 L9.9892839,22.7975219 Z M5.46744508,18.6617508 C4.10062982,18.6617508 2.87939851,16.9673748 2.87939851,15.4873817 C2.87939851,14.1622539 4.04024347,13.0890379 5.46744508,13.0890379 C6.89464668,13.0890379 8.05549164,14.1622539 8.05549164,15.4873817 C8.05549164,16.9673748 6.83426034,18.6617508 5.46744508,18.6617508 Z M5.46744508,14.0150631 C4.58197236,14.0150631 3.86366855,14.6777461 3.86366855,15.4873817 C3.86366855,16.4633964 4.74345729,17.7357256 5.46744508,17.7357256 C6.19068073,17.7357256 7.06610338,16.4646057 7.06610338,15.4873817 C7.06610338,14.6784401 6.34856119,14.0150631 5.46744508,14.0150631 Z M20.5417236,20.4319752 L21.6103145,18.8997634 L22.664668,18.8997634 C23.7030979,18.8997634 24.6710655,19.3756632 25.3187497,20.2062461 L25.3187864,20.2062933 C25.9112559,20.9673204 26.1757296,21.9582946 26.0402386,22.9170318 L25.8174922,24.075 L15.1842841,24.0100918 L15.0359043,22.9173834 C14.9005321,21.9546654 15.1641429,20.9682137 15.7575249,20.2060159 C16.4107273,19.3750576 17.3788602,18.8997634 18.4165445,18.8997634 L19.5331247,18.9328965 L20.5417236,20.4319752 Z M25.0624451,22.7975219 L25.0624621,22.7973971 C25.1621514,22.0693012 24.967645,21.3229098 24.5299756,20.7527444 C24.0683941,20.1608176 23.3891115,19.8210568 22.6697862,19.8210568 L22.1434056,19.7879414 L20.6079392,22.0686985 L20.4835097,22.0686985 L19.0102581,19.8210568 L18.4216627,19.8210568 C17.7029364,19.8210568 17.0232735,20.1603451 16.5562039,20.7529377 C16.1103946,21.3207977 15.9135069,22.066117 16.0136492,22.7975219 L15.9956259,23.1489748 L25.0061446,23.2139257 L25.0624451,22.7975219 Z M20.5406062,18.6617508 C19.173791,18.6617508 17.9525597,16.9673748 17.9525597,15.4873817 C17.9525597,14.1622539 19.1134046,13.0890379 20.5406062,13.0890379 C21.9678078,13.0890379 23.1286528,14.1622539 23.1286528,15.4873817 C23.1286528,16.9673748 21.9074215,18.6617508 20.5406062,18.6617508 Z M20.5406062,14.0150631 C19.6561696,14.0150631 18.9419479,14.6767662 18.9419479,15.4873817 C18.9419479,16.4646057 19.8173706,17.7357256 20.5406062,17.7357256 C21.2638419,17.7357256 22.1392645,16.4646057 22.1392645,15.4873817 C22.1392645,14.6784401 21.4217224,14.0150631 20.5406062,14.0150631 Z M13.8340992,17.2914791 C13.5707605,17.4265143 13.2885293,17.4974127 13.0014666,17.4929811 C12.690898,17.4929811 12.3912731,17.4140152 12.2078738,17.2553863 L10.0019205,19.2948185 L9.90009308,19.2948185 L9.30637943,18.7459226 L9.30637943,18.6357809 L11.4998171,16.6914411 C11.3401691,16.4384182 11.2528082,16.1595225 11.2528082,15.8706625 C11.2528082,15.1273853 11.7971694,14.4885656 12.5067724,14.3753943 L12.5067724,11.6119874 L12.5817724,11.5369874 L13.4211607,11.5369874 L13.4961607,11.6119874 L13.4389622,14.3025376 C14.2029892,14.4892165 14.7501249,15.1294578 14.7501249,15.8706625 C14.7501249,16.1606987 14.6639328,16.4402308 14.4906004,16.5963487 L16.7016719,18.6405128 L16.7016719,18.7506544 L16.1079582,19.2995503 L16.0061309,19.2995503 L13.8340992,17.2914791 Z M13.0014666,15.1743691 C12.5791556,15.1743691 12.2370783,15.4892951 12.2370783,15.8753943 C12.2370783,16.2632003 12.5758721,16.5764196 13.0014666,16.5764196 C13.4252333,16.5764196 13.7658548,16.2601819 13.7658548,15.8753943 C13.7658548,15.4892951 13.4237775,15.1743691 13.0014666,15.1743691 Z"></path>
            </g>
            <g id="color-normal" mask="url(#mask-2)" fill="#727272">
                <rect id="Rectangle-3" x="0" y="0" width="27" height="25"></rect>
            </g>
        </g>
    </g>
</svg>