<svg xmlns="http://www.w3.org/2000/svg" xmlns:xlink="http://www.w3.org/1999/xlink" width="20" height="19" viewBox="0 0 20 19"><defs><path id="5jima" d="M59.44 18.95v5.07a2 2 0 0 1-2.05 1.95h-5.34A2 2 0 0 1 50 24.02v-5.07A2 2 0 0 1 52.05 17h5.31c1.14 0 2.06.87 2.08 1.95zM58.3 24v-5.04c0-.49-.43-.87-.91-.87h-5.34a.9.9 0 0 0-.9.87V24c0 .5.42.87.9.87h5.31a.9.9 0 0 0 .91-.87zM70 18.95v5.07a2 2 0 0 1-2.05 1.95H62.6a2 2 0 0 1-2.05-1.95v-5.07A2 2 0 0 1 62.6 17h5.3c1.15 0 2.06.87 2.09 1.95zM68.86 24v-5.04c0-.49-.43-.87-.91-.87H62.6a.9.9 0 0 0-.91.87V24c0 .5.43.87.91.87h5.3a.9.9 0 0 0 .92-.87zM70 28.98v5.07A2 2 0 0 1 67.95 36H62.6a2 2 0 0 1-2.05-1.95v-5.07a2 2 0 0 1 2.05-1.95h5.3c1.15 0 2.06.87 2.09 1.95zm-1.14 5.04v-5.04c0-.49-.43-.87-.91-.87H62.6a.9.9 0 0 0-.91.87v5.04c0 .49.43.87.91.87h5.3a.9.9 0 0 0 .92-.87zm-9.42-5.04v5.07A2 2 0 0 1 57.4 36h-5.34A2 2 0 0 1 50 34.05v-5.07a2 2 0 0 1 2.05-1.95h5.31c1.14 0 2.06.87 2.08 1.95zm-1.14 5.04v-5.04c0-.49-.43-.87-.91-.87h-5.34a.9.9 0 0 0-.9.87v5.04c0 .49.42.87.9.87h5.31a.9.9 0 0 0 .91-.87z"/></defs><g><g transform="translate(-50 -17)"><use fill="#898c93" xlink:href="#5jima"/></g></g></svg>