<svg xmlns="http://www.w3.org/2000/svg" xmlns:xlink="http://www.w3.org/1999/xlink" width="18" height="14" viewBox="0 0 18 14"><defs><path id="m1coa" d="M744 21.85c0-.47.4-.85.9-.85h16.2c.5 0 .9.38.9.85s-.4.85-.9.85h-16.2c-.5 0-.9-.38-.9-.85zm14.4 5.87c0 .47-.4.85-.9.85h-12.6c-.5 0-.9-.38-.9-.85s.4-.85.9-.85h12.6c.5 0 .9.37.9.85zm-3.6 5.86c0 .47-.4.85-.9.85h-9c-.5 0-.9-.37-.9-.85 0-.47.4-.85.9-.85h9c.5 0 .9.38.9.85z"/></defs><g><g transform="translate(-744 -21)"><use fill="#0096d0" xlink:href="#m1coa"/></g></g></svg>