<svg xmlns="http://www.w3.org/2000/svg" xmlns:xlink="http://www.w3.org/1999/xlink" width="20" height="23" viewBox="0 0 20 23"><defs><path id="smcia" d="M62.56 15.04v1.83a.5.5 0 0 1-1 0v-1.83a.5.5 0 0 1 1 0zm2.38 0v1.83a.5.5 0 0 1-1 0v-1.83a.5.5 0 0 1 1 0zm2.38 0v1.83a.5.5 0 0 1-1 0v-1.83a.5.5 0 0 1 1 0zm-11.94-.38a1.83 1.83 0 1 1-2.58 2.6 1.83 1.83 0 0 1 2.58-2.6zm-1.3 2.12a.83.83 0 1 0 .01-1.66.83.83 0 0 0 0 1.66zm5.39 4.97V19.9H52.5a2.5 2.5 0 0 1-2.5-2.5V14.5a2.5 2.5 0 0 1 2.5-2.5h14.94a2.5 2.5 0 0 1 2.5 2.5v2.91a2.5 2.5 0 0 1-2.5 2.5h-6.97v1.84h6.97a2.5 2.5 0 0 1 2.5 2.5v2.91a2.5 2.5 0 0 1-2.5 2.5h-6.97v3.4h3.27a.5.5 0 0 1 0 1H56.2a.5.5 0 0 1 0-1h3.27v-3.4H52.5a2.5 2.5 0 0 1-2.5-2.5v-2.91a2.5 2.5 0 0 1 2.5-2.5zM51 17.4c0 .83.67 1.5 1.5 1.5h14.94c.83 0 1.5-.67 1.5-1.5V14.5c0-.83-.67-1.5-1.5-1.5H52.5c-.83 0-1.5.67-1.5 1.5zm17.94 6.84a1.5 1.5 0 0 0-1.5-1.5H52.5c-.83 0-1.5.67-1.5 1.5v2.91c0 .83.67 1.5 1.5 1.5h14.94c.83 0 1.5-.67 1.5-1.5zm-7.38 2.37v-1.83a.5.5 0 0 1 1 0v1.83a.5.5 0 0 1-1 0zm2.38 0v-1.83a.5.5 0 0 1 1 0v1.83a.5.5 0 0 1-1 0zm2.38 0v-1.83a.5.5 0 0 1 1 0v1.83a.5.5 0 0 1-1 0zm-12.23.91a1.83 1.83 0 1 1 0-3.66 1.83 1.83 0 0 1 0 3.66zm0-2.65a.83.83 0 1 0 .76.5.83.83 0 0 0-.76-.5z"/></defs><g><g transform="translate(-50 -12)"><use fill="#898c93" xlink:href="#smcia"/></g></g></svg>