<?xml version="1.0" encoding="UTF-8"?>
<svg width="27px" height="25px" viewBox="0 0 27 25" version="1.1" xmlns="http://www.w3.org/2000/svg" xmlns:xlink="http://www.w3.org/1999/xlink">
    <!-- Generator: Sketch 48.2 (47327) - http://www.bohemiancoding.com/sketch -->
    <title>ico_mediagallery</title>
    <desc>Created with Sketch.</desc>
    <defs>
        <path d="M21.1270833,5.04583333 L6.89583333,5.04583333 C4.81041667,5.04583333 3.1375,6.74166667 3.1375,8.80416667 L3.1375,15.38125 C3.1375,17.4666667 4.83333333,19.1395833 6.89583333,19.1395833 L21.1270833,19.1395833 C23.2125,19.1395833 24.8854167,17.44375 24.8854167,15.38125 L24.8854167,8.80416667 C24.8854167,6.74166667 23.1895833,5.04583333 21.1270833,5.04583333 Z M23.9,15.38125 C23.9,16.9166667 22.6625,18.1541667 21.1270833,18.1541667 L6.89583333,18.1541667 C5.36041667,18.1541667 4.12291667,16.9166667 4.12291667,15.38125 L4.12291667,8.80416667 C4.12291667,7.26875 5.36041667,6.03125 6.89583333,6.03125 L21.1270833,6.03125 C22.6625,6.03125 23.9,7.26875 23.9,8.80416667 L23.9,15.38125 Z M16.9791667,11.2104167 L12.9229167,8.66666667 C12.6020833,8.46041667 12.1895833,8.46041667 11.86875,8.64375 C11.525,8.82708333 11.31875,9.17083333 11.31875,9.56041667 L11.31875,14.625 C11.31875,15.0145833 11.525,15.3583333 11.86875,15.5416667 C12.0291667,15.6333333 12.2125,15.6791667 12.3729167,15.6791667 C12.55625,15.6791667 12.7625,15.6333333 12.9229167,15.51875 L16.9791667,12.975 C17.2770833,12.7916667 17.4604167,12.4479167 17.4604167,12.08125 C17.4604167,11.7375 17.2770833,11.4166667 16.9791667,11.2104167 Z M16.4520833,12.15 L12.3958333,14.69375 C12.3958333,14.69375 12.3729167,14.7166667 12.3270833,14.69375 C12.3041667,14.6708333 12.3041667,14.6479167 12.3041667,14.6479167 L12.3041667,9.58333333 C12.3041667,9.58333333 12.3041667,9.5375 12.3270833,9.5375 C12.35,9.5375 12.35,9.5375 12.35,9.5375 C12.3729167,9.5375 12.3729167,9.5375 12.3729167,9.5375 L16.4291667,12.08125 C16.4291667,12.08125 16.4520833,12.1041667 16.4520833,12.1270833 C16.475,12.15 16.4520833,12.15 16.4520833,12.15 Z" id="path-1"></path>
    </defs>
    <g id="Symbols" stroke="none" stroke-width="1" fill="none" fill-rule="evenodd">
        <g id="ico_mediagallery">
            <mask id="mask-2" fill="white">
                <use xlink:href="#path-1"></use>
            </mask>
            <use id="Combined-Shape" fill="#727272" fill-rule="nonzero" xlink:href="#path-1"></use>
            <g id="color-normal" mask="url(#mask-2)" fill="#727272">
                <rect id="Rectangle-3" x="0" y="0" width="30" height="30"></rect>
            </g>
        </g>
    </g>
</svg>