<?xml version="1.0" encoding="UTF-8"?>
<svg width="27px" height="25px" viewBox="0 0 27 25" version="1.1" xmlns="http://www.w3.org/2000/svg" xmlns:xlink="http://www.w3.org/1999/xlink">
    <!-- Generator: Sketch 47.1 (45422) - http://www.bohemiancoding.com/sketch -->
    <title>ico_logout</title>
    <desc>Created with Sketch.</desc>
    <defs>
        <path d="M13.4999979,22 C8.26163986,22 4.00000032,17.9330532 4.00000032,12.9343601 C3.99949061,11.055869 4.60549093,9.22720265 5.72818347,7.71939518 C6.83367147,6.22400899 8.36331952,5.09080401 10.1519909,4.44643254 C10.4789244,4.3286681 10.8437095,4.48642801 10.968397,4.79861488 C11.0930844,5.11080174 10.9264634,5.45854014 10.5995299,5.57630458 C7.40812445,6.7243227 5.26654297,9.67917322 5.26654297,12.9332491 C5.26654297,17.2660917 8.9607803,20.7916183 13.5014823,20.7916183 C18.0421842,20.7916183 21.7364216,17.266462 21.7364216,12.9332491 C21.7364216,9.68472815 19.5978088,6.72987763 16.4153096,5.58074852 C16.0887472,5.46261375 15.9239816,5.11450503 16.0475558,4.80305882 C16.17113,4.49161261 16.5362862,4.33422303 16.8639619,4.45198747 C18.6492934,5.09672926 20.1756016,6.22956392 21.2799764,7.72383913 C22.3988496,9.2314361 23.0019097,11.0583098 22.9999955,12.9343601 C22.9999955,17.9330532 18.7383559,22 13.4999979,22 Z M13.412037,14.6111111 C13.0712064,14.6111111 12.7962963,14.3419086 12.7962963,14.010015 L12.7962963,3.60109608 C12.7962963,3.26920254 13.0726552,3 13.412037,3 C13.7514188,3 14.0277778,3.26920254 14.0277778,3.60109608 L14.0277778,14.010015 C14.0277778,14.3422773 13.7528676,14.6111111 13.412037,14.6111111 Z" id="path-1"></path>
    </defs>
    <g id="Symbols" stroke="none" stroke-width="1" fill="none" fill-rule="evenodd">
        <g id="ico_logout">
            <mask id="mask-2" fill="white">
                <use xlink:href="#path-1"></use>
            </mask>
            <use id="Combined-Shape" fill="#727272" fill-rule="nonzero" xlink:href="#path-1"></use>
            <g id="color-normal" mask="url(#mask-2)" fill="#727272">
                <rect id="Rectangle-3" x="0" y="0" width="27" height="25"></rect>
            </g>
        </g>
    </g>
</svg>