<svg xmlns="http://www.w3.org/2000/svg" xmlns:xlink="http://www.w3.org/1999/xlink" width="25" height="18" viewBox="0 0 25 18"><defs><path id="2upja" d="M467.98 24.51V35.5c0 1.38-1.1 2.48-2.47 2.48H447.5a2.46 2.46 0 0 1-2.46-2.48V24.51c0-1.38 1.1-2.48 2.46-2.48h18.02c1.37 0 2.47 1.1 2.47 2.48zm-22.4 2.95h21.85v-2h-21.85zm21.85 8.03v-7.47h-21.85v7.47c0 1.08.85 1.93 1.91 1.93h18.02c1.07 0 1.92-.85 1.92-1.93zm0-10.98c0-1.07-.85-1.93-1.92-1.93H447.5c-1.06 0-1.91.86-1.91 1.93v.36h21.85z"/></defs><g><g transform="translate(-444 -21)"><use fill="#0096d0" xlink:href="#2upja"/><use fill="#fff" fill-opacity="0" stroke="#0096d0" stroke-miterlimit="50" stroke-width=".6" xlink:href="#2upja"/></g></g></svg>