<?xml version="1.0" encoding="UTF-8"?>
<svg width="27px" height="25px" viewBox="0 0 27 25" version="1.1" xmlns="http://www.w3.org/2000/svg" xmlns:xlink="http://www.w3.org/1999/xlink">
    <!-- Generator: Sketch 47.1 (45422) - http://www.bohemiancoding.com/sketch -->
    <title>ico_coa</title>
    <desc>Created with Sketch.</desc>
    <defs>
        <path d="M11.475,17.7666667 L12.7125,17.7666667 L10.2,23.67 C10.0875,23.89 9.8625,24 9.6375,24 C9.5625,24 9.4875,24 9.4125,23.9633333 C9.1125,23.8533333 9,23.5233333 9.1125,23.23 L11.475,17.7666667 Z M14.55,17.7666667 L13.3125,17.7666667 L15.825,23.67 C15.9,23.89 16.125,24 16.35,24 C16.425,24 16.5,24 16.575,23.9633333 C16.875,23.8533333 16.9875,23.5233333 16.875,23.23 L14.55,17.7666667 Z M23.775,16.4833333 C23.775,16.7766667 23.5125,17.0333333 23.2125,17.0333333 L22.425,17.0333333 L4.65,17.0333333 L3.5625,17.0333333 C3.2625,17.0333333 3,16.7766667 3,16.4833333 C3,16.19 3.2625,15.9333333 3.5625,15.9333333 L4.0875,15.9333333 L4.0875,3.1 L3.5625,3.1 C3.2625,3.1 3,2.84333333 3,2.55 C3,2.25666667 3.2625,2 3.5625,2 L4.65,2 L22.425,2 L23.2125,2 C23.5125,2 23.775,2.25666667 23.775,2.55 C23.775,2.84333333 23.5125,3.1 23.2125,3.1 L22.9875,3.1 L22.9875,15.9333333 L23.2125,15.9333333 C23.5125,15.9333333 23.775,16.1533333 23.775,16.4833333 Z M21.8625,3.1 L5.2125,3.1 L5.2125,15.9333333 L21.8625,15.9333333 L21.8625,3.1 Z M9.3375,13.0733333 C9.6375,13.0733333 9.9,12.8166667 9.9,12.5233333 L9.9,9.77333333 C9.9,9.48 9.6375,9.22333333 9.3375,9.22333333 C9.0375,9.22333333 8.775,9.48 8.775,9.77333333 L8.775,12.5233333 C8.775,12.8166667 9,13.0733333 9.3375,13.0733333 Z M11.175,13.0733333 C11.475,13.0733333 11.7375,12.8166667 11.7375,12.5233333 L11.7375,8.12333333 C11.7375,7.83 11.475,7.57333333 11.175,7.57333333 C10.875,7.57333333 10.6125,7.83 10.6125,8.12333333 L10.6125,12.4866667 C10.6125,12.8166667 10.875,13.0733333 11.175,13.0733333 Z M7.4625,13.0733333 C7.7625,13.0733333 8.025,12.8166667 8.025,12.5233333 L8.025,6.47333333 C8.025,6.18 7.7625,5.92333333 7.4625,5.92333333 C7.1625,5.92333333 6.9,6.18 6.9,6.47333333 L6.9,12.4866667 C6.9,12.8166667 7.1625,13.0733333 7.4625,13.0733333 Z M14.6625,9.77333333 C14.6625,8.08666667 16.0875,6.69333333 17.8125,6.69333333 C19.5375,6.69333333 20.9625,8.08666667 20.9625,9.77333333 C20.9625,11.46 19.5375,12.8533333 17.8125,12.8533333 C16.0875,12.8533333 14.6625,11.46 14.6625,9.77333333 Z M15.7875,9.77333333 C15.7875,10.8733333 16.6875,11.7533333 17.8125,11.7533333 C18.9375,11.7533333 19.8375,10.8733333 19.8375,9.77333333 C19.8375,9.44333333 19.7625,9.11333333 19.575,8.82 L18.1875,10.1766667 C18.075,10.2866667 17.925,10.3233333 17.775,10.3233333 C17.625,10.3233333 17.475,10.2866667 17.3625,10.1766667 C17.1375,9.95666667 17.1375,9.62666667 17.3625,9.40666667 L18.75,8.05 C18.45,7.90333333 18.1125,7.79333333 17.775,7.79333333 C16.6875,7.79333333 15.7875,8.67333333 15.7875,9.77333333 Z" id="path-1"></path>
    </defs>
    <g id="Symbols" stroke="none" stroke-width="1" fill="none" fill-rule="evenodd">
        <g id="ico_coa">
            <mask id="mask-2" fill="white">
                <use xlink:href="#path-1"></use>
            </mask>
            <use id="Mask" fill="#727272" fill-rule="nonzero" xlink:href="#path-1"></use>
            <g id="color-normal" mask="url(#mask-2)" fill="#727272">
                <rect id="Rectangle-3" x="0" y="0" width="27" height="25"></rect>
            </g>
        </g>
    </g>
</svg>