<?xml version="1.0" encoding="UTF-8"?>
<svg width="27px" height="25px" viewBox="0 0 27 25" version="1.1" xmlns="http://www.w3.org/2000/svg" xmlns:xlink="http://www.w3.org/1999/xlink">
    <!-- Generator: Sketch 48.2 (47327) - http://www.bohemiancoding.com/sketch -->
    <title>ico_campaign</title>
    <desc>Created with Sketch.</desc>
    <defs>
        <path d="M3.82916872,11.103504 C3.45694376,11.9223989 3.45694376,12.9389149 3.82732209,13.7537902 C4.32196713,14.8191796 5.24189811,15.4937956 6.17518248,15.4937956 C10.3897072,15.4937956 15.0990024,16.6931255 19.6809519,20.0221982 L19.0343765,20.9121084 C14.6639401,17.7367132 10.1761536,16.5937956 6.17518248,16.5937956 C4.78331755,16.5937956 3.49420721,15.648448 2.82776559,14.2129931 C2.32407814,13.1048807 2.32407814,11.7564332 2.82293739,10.6592568 C3.41581217,9.27588231 4.66958475,8.37429303 6.09149223,8.26896705 C11.548619,7.8720851 14.6728229,7.08359554 19.0337602,3.90585832 L19.6815683,4.79487161 C17.0813057,6.68963662 14.4143545,7.90113107 11.6637864,8.59532208 C10.5993948,8.86395424 9.55896791,9.04649128 8.48287584,9.17090432 C8.06498662,9.21921884 7.65474383,9.25748869 7.20194666,9.29249044 C6.94408025,9.31242382 6.16859706,9.36627144 6.17199868,9.36601681 C5.16184592,9.4408481 4.26569384,10.0852752 3.82916872,11.103504 Z M11.1552095,17.4152848 C10.3504789,17.212391 9.23739052,17.0173588 7.81983299,16.8317167 C7.63361074,18.1680471 8.39937797,19.4412536 9.85433586,20.050356 C11.5977529,20.8083634 13.5456849,20.135863 14.2233935,18.5569522 C14.236476,18.5307873 14.2554119,18.4950618 14.2756841,18.4575564 C12.8602873,17.9302272 11.8174198,17.5822454 11.1552095,17.4152848 Z M15.5353607,18.2165969 C15.5041778,18.4348772 15.4488943,18.599146 15.3562251,18.7756393 C15.3428768,18.8010618 15.237298,18.988818 15.2208582,19.0195753 C14.3072807,21.1512561 11.6988436,22.051788 9.42266055,21.0620871 C7.30536968,20.1757793 6.25092236,18.1119854 6.86505995,16.0648601 L6.99846485,15.6201771 L7.45923173,15.6770428 C9.1563476,15.8864929 10.4761907,16.1096627 11.4241327,16.3486638 C12.2164125,16.5484184 13.4665083,16.9729196 15.1858033,17.6245115 L15.5976467,17.7805951 L15.5353607,18.2165969 Z M20.3649635,20.2675182 C21.942671,20.2675182 23.45,16.780685 23.45,12.4087591 C23.45,8.03683327 21.942671,4.55 20.3649635,4.55 C18.787256,4.55 17.279927,8.03683327 17.279927,12.4087591 C17.279927,16.780685 18.787256,20.2675182 20.3649635,20.2675182 Z M20.3649635,21.3675182 C17.9275206,21.3675182 16.179927,17.3248921 16.179927,12.4087591 C16.179927,7.49262612 17.9275206,3.45 20.3649635,3.45 C22.8024064,3.45 24.55,7.49262612 24.55,12.4087591 C24.55,17.3248921 22.8024064,21.3675182 20.3649635,21.3675182 Z M17.0364964,9.80547445 L17.0364964,8.70547445 C19.0920778,8.70547445 20.739781,10.3531777 20.739781,12.4087591 C20.739781,14.4643406 19.0920778,16.1120438 17.0364964,16.1120438 L17.0364964,15.0120438 C18.4845646,15.0120438 19.639781,13.8568273 19.639781,12.4087591 C19.639781,10.9606909 18.4845646,9.80547445 17.0364964,9.80547445 Z" id="path-1"></path>
    </defs>
    <g id="Symbols" stroke="none" stroke-width="1" fill="none" fill-rule="evenodd">
        <g id="ico_campaign">
            <mask id="mask-2" fill="white">
                <use xlink:href="#path-1"></use>
            </mask>
            <use id="Combined-Shape" fill="#727272" fill-rule="nonzero" xlink:href="#path-1"></use>
            <g id="color-normal" mask="url(#mask-2)" fill="#727272">
                <rect id="Rectangle-3" x="0" y="0" width="30" height="30"></rect>
            </g>
        </g>
    </g>
</svg>