<?xml version="1.0" encoding="UTF-8"?>
<svg width="27px" height="25px" viewBox="0 0 27 25" version="1.1" xmlns="http://www.w3.org/2000/svg" xmlns:xlink="http://www.w3.org/1999/xlink">
    <!-- Generator: Sketch 47.1 (45422) - http://www.bohemiancoding.com/sketch -->
    <title>ico_dashboard</title>
    <desc>Created with Sketch.</desc>
    <defs>
        <path d="M17.7223516,9.87632967 C17.6186374,9.77648352 17.3256264,9.56881319 16.8123736,9.79969231 L12.8257802,11.5928132 C12.3441978,11.8099121 11.8265934,12.3417802 11.6232747,12.8301319 C11.6155385,12.8492308 11.616989,12.8690549 11.6116703,12.8886374 C11.2425055,13.7901538 11.4296264,14.8654945 12.1689231,15.5856923 C12.4053626,15.8151209 12.6783077,15.9923297 12.9747033,16.1103077 C13.2710989,16.2282857 13.5894945,16.2872747 13.9168352,16.2826813 C14.2577143,16.2778462 14.5857802,16.200967 14.8877363,16.0655824 C14.9046593,16.0605055 14.9218242,16.0612308 14.9385055,16.0547033 C15.1771209,15.9471209 15.4244396,15.7624176 15.6383956,15.5438681 C15.6403297,15.5414505 15.6434725,15.54 15.6451648,15.5378242 C15.6461319,15.5363736 15.6466154,15.5358901 15.6470989,15.533956 C15.8610549,15.3144396 16.0404396,15.0608352 16.141978,14.8181099 L17.8248571,10.7838901 C18.0412308,10.2645934 17.8246154,9.97617582 17.7223516,9.87632967 Z M14.5828791,14.5632967 C14.2137143,14.9447912 13.6037582,14.9532527 13.2237143,14.5821538 C12.8431868,14.212022 12.8354505,13.6032747 13.2050989,13.222989 C13.5747473,12.8412527 14.1842198,12.8332747 14.5642637,13.2034066 C14.9472088,13.5745055 14.9549451,14.1832527 14.5828791,14.5632967 Z M24.7582418,13.8771868 C24.7582418,16.7836044 23.6260879,19.5157143 21.5713846,21.5701758 C21.4492967,21.6925055 21.2897363,21.7529451 21.1294505,21.7529451 C20.9694066,21.7529451 20.8096044,21.6925055 20.6875165,21.5701758 C20.672044,21.5547033 20.666,21.5339121 20.6522198,21.5172308 C20.6348132,21.502967 20.6137802,21.4969231 20.5970989,21.4804835 L19.5967033,20.4812967 C19.3525275,20.2366374 19.3525275,19.8411209 19.5967033,19.5964615 C19.8408791,19.3522857 20.2363956,19.3527692 20.4805714,19.595978 L21.1072088,20.2226154 C22.5161758,18.6224176 23.3410549,16.6315385 23.4774066,14.5035824 L22.5911209,14.5035824 C22.2456484,14.5035824 21.9659341,14.2241099 21.9659341,13.8783956 C21.9659341,13.5336484 22.2456484,13.2532088 22.5911209,13.2532088 L23.4774066,13.2532088 C23.3415385,11.1245275 22.5166593,9.13413187 21.1072088,7.53441758 L20.4815385,8.15984615 C20.3594505,8.28193407 20.1998901,8.34285714 20.0396044,8.34285714 C19.8795604,8.34285714 19.7197582,8.28193407 19.5976703,8.15984615 C19.3534945,7.91567033 19.3534945,7.51991209 19.5976703,7.27597802 L20.2233407,6.65054945 C18.6224176,5.24158242 16.632022,4.4167033 14.5035824,4.28083516 L14.5035824,5.16518681 C14.5035824,5.51041758 14.2236264,5.79013187 13.8783956,5.79013187 C13.5331648,5.79013187 13.2532088,5.51041758 13.2532088,5.16518681 L13.2532088,4.28083516 C11.1254945,4.4167033 9.13534066,5.24134066 7.53441758,6.65006593 L8.15936264,7.27549451 C8.40353846,7.51967033 8.40353846,7.91542857 8.15936264,8.15936264 C8.03727473,8.28145055 7.87747253,8.34237363 7.71742857,8.34237363 C7.55738462,8.34237363 7.39758242,8.28145055 7.27549451,8.15936264 L6.64982418,7.53369231 C5.24085714,9.13389011 4.41597802,11.1247692 4.28035165,13.2532088 L5.16567033,13.2532088 C5.5109011,13.2532088 5.79085714,13.5336484 5.79085714,13.8783956 C5.79085714,14.2236264 5.5109011,14.5035824 5.16567033,14.5035824 L4.28035165,14.5035824 C4.41646154,16.6317802 5.2410989,18.6224176 6.64982418,20.2226154 L7.27597802,19.5969451 C7.52015385,19.3527692 7.91567033,19.3527692 8.16008791,19.5969451 C8.40426374,19.8416044 8.40426374,20.2366374 8.16008791,20.4812967 L7.16041758,21.4804835 C7.14373626,21.4969231 7.12221978,21.5036923 7.10432967,21.5177143 C7.09103297,21.5336703 7.08523077,21.5544615 7.07,21.5692088 C6.82582418,21.8133846 6.43030769,21.8133846 6.18613187,21.5692088 C4.13167033,19.5152308 3,16.7831209 3,13.8771868 C3,10.971011 4.13167033,8.23962637 6.18661538,6.18637363 C8.24131868,4.13167033 10.9731868,3 13.8786374,3 C13.8791209,3 13.8791209,3 13.8800879,3 C16.786022,3.00024176 19.5174066,4.1323956 21.5709011,6.18758242 C23.6263297,8.23962637 24.7582418,10.9705275 24.7582418,13.8771868 Z" id="path-1"></path>
    </defs>
    <g id="Symbols" stroke="none" stroke-width="1" fill="none" fill-rule="evenodd">
        <g id="ico_dashboard">
            <mask id="mask-2" fill="white">
                <use xlink:href="#path-1"></use>
            </mask>
            <use id="Mask" fill="#727272" fill-rule="nonzero" xlink:href="#path-1"></use>
            <g id="color-normal" mask="url(#mask-2)" fill="#727272">
                <rect id="Rectangle-3" x="0" y="0" width="27" height="25"></rect>
            </g>
        </g>
    </g>
</svg>