<?xml version="1.0" encoding="UTF-8"?>
<svg width="15px" height="14px" viewBox="0 0 15 14" version="1.1" xmlns="http://www.w3.org/2000/svg" xmlns:xlink="http://www.w3.org/1999/xlink">
    <!-- Generator: Sketch 50.2 (55047) - http://www.bohemiancoding.com/sketch -->
    <title>lg_justdone</title>
    <desc>Created with Sketch.</desc>
    <defs>
        <linearGradient x1="4.38934907%" y1="55.6431667%" x2="82.3084197%" y2="43.249622%" id="linearGradient-1">
            <stop stop-color="#0096D0" offset="0%"></stop>
            <stop stop-color="#1A5289" offset="100%"></stop>
        </linearGradient>
    </defs>
    <g id="Admin" stroke="none" stroke-width="1" fill="none" fill-rule="evenodd">
        <g id="Product-Logo-Copy" transform="translate(-4.000000, -3.000000)">
            <g id="lg_whitelabel">
                <g id="Logo" transform="translate(4.000000, 3.000000)">
                    <g id="Shape" fill-rule="nonzero">
                        <path d="M11.8046344,13.2596154 C11.6791157,13.2596154 11.553597,13.229409 11.4280783,13.1992026 C10.8946238,13.0179644 10.5180676,12.5044559 10.2984099,11.6586773 C10.0473725,10.6920732 9.51391795,9.66505629 8.66666667,8.60783302 L9.41977892,8.0641182 C10.3297896,9.2119606 10.9573831,10.359803 11.2398002,11.4472326 C11.3653189,11.9305347 11.553597,12.2930113 11.741875,12.353424 C11.8987734,12.4138368 12.0870515,12.2930113 12.2439499,12.2023921 C12.3694686,12.111773 13.5305166,11.0545497 13.0598215,7.15792683 L14.0012118,7.06730769 C14.471907,11.1451689 13.3422386,12.5044559 12.8401637,12.8971388 C12.4949873,13.1387899 12.1498108,13.2596154 11.8046344,13.2596154 Z" fill="#0096D0"></path>
                        <path d="M2.65560855,12.437215 C0.849038056,10.2160612 -0.303429331,6.17759964 0.0703438759,3.41798426 C0.257230479,2.07183041 0.786742522,1.02856118 1.62773224,0.456445798 C3.02938176,-0.384900356 4.36873575,0.591061183 4.74250896,0.893945798 C5.20972547,1.26413811 5.67694197,1.97086888 6.11301071,2.6439458 C6.36219285,3.04779195 6.76711383,3.61990734 6.92285266,3.72086888 C7.1720348,3.85548426 7.51466024,3.65356118 7.88843345,3.01413811 L8.66712763,3.58625349 C7.79499014,4.96606118 6.9851482,4.89875349 6.48678392,4.59586888 C6.17530625,4.42759964 5.86382858,3.99009964 5.3654643,3.21606118 C4.9916911,2.6439458 4.52447459,1.97086888 4.18184915,1.66798426 C3.83922371,1.39875349 2.99823399,0.79298426 2.12609651,1.29779195 C1.53428893,1.70163811 1.16051573,2.44202272 1.03592466,3.5189458 C0.69329922,6.00933041 1.75232331,9.67759964 3.3720072,11.6968304 C3.59980535,11.9312358 3.8386049,12.0434153 4.08840585,12.0333689 C4.61160756,11.9754579 4.9916911,11.3939458 5.49005537,10.4179843 C6.11301071,9.13230087 6.78830301,7.10206053 11.9376432,5.20163811 C12.9401146,4.85754525 13.5544816,4.12471503 13.772516,3.5189458 C13.9905504,2.91317657 13.9186623,0.935190568 12.1457364,1.20442134 C10.4698285,1.45891926 8.50539943,2.79757348 6.9851482,1.93721503 L7.39006917,1.02856118 C8.10646782,1.39875349 9.62121599,0.793122136 11.1278012,0.321830414 C14.9937127,-0.88750843 15.0842798,3.01098805 14.6681014,4.1041207 C14.2519229,5.19725336 13.4452269,5.6782054 12.2179731,6.1439458 C9.05597359,7.34391832 7.1455772,8.8864803 6.48678392,10.7716317 C5.83268081,12.0841317 5.08143104,13.0258035 4.22671912,13.110292 C3.65691117,13.1666176 3.13320765,12.9422586 2.65560855,12.437215 Z" fill="url(#linearGradient-1)"></path>
                    </g>
                </g>
            </g>
        </g>
    </g>
</svg>