<?xml version="1.0" encoding="UTF-8"?>
<svg width="16px" height="20px" viewBox="0 0 16 20" version="1.1" xmlns="http://www.w3.org/2000/svg" xmlns:xlink="http://www.w3.org/1999/xlink">
    <!-- Generator: Sketch 50.2 (55047) - http://www.bohemiancoding.com/sketch -->
    <title>color/normal1</title>
    <desc>Created with Sketch.</desc>
    <defs>
        <path d="M15.4105946,3.91827027 L11.9059459,0.414054054 C11.6659459,0.174054054 11.2456216,0 10.9068108,0 L3.51437838,0 C2.82940541,0 2.27221622,0.557189189 2.27221622,1.24216216 L2.27221622,2.27221622 L1.24216216,2.27221622 C0.557189189,2.27221622 0,2.82918919 0,3.51416216 L0,18.2172973 C0,18.9022703 0.557189189,19.4594595 1.24216216,19.4594595 L12.3100541,19.4594595 C12.995027,19.4594595 13.5522162,18.9022703 13.5522162,18.2172973 L13.5522162,17.1872432 L14.5824865,17.1872432 C15.2674595,17.1872432 15.8244324,16.6302703 15.8244324,15.9452973 L15.8244324,4.91783784 C15.8244324,4.57859459 15.6501622,4.15805405 15.4105946,3.91827027 Z M11.7344865,1.41340541 L14.411027,4.08972973 L12.1485405,4.08972973 C11.9202162,4.08972973 11.7344865,3.904 11.7344865,3.67567568 L11.7344865,1.41340541 Z M12.7241081,18.2172973 C12.7241081,18.4456216 12.5385946,18.6313514 12.3100541,18.6313514 L1.24216216,18.6313514 C1.01383784,18.6313514 0.828108108,18.4456216 0.828108108,18.2172973 L0.828108108,3.51416216 C0.828108108,3.28583784 1.01383784,3.10010811 1.24216216,3.10010811 L2.27221622,3.10010811 L2.27221622,15.9452973 C2.27221622,16.6302703 2.82940541,17.1872432 3.51437838,17.1872432 L12.7241081,17.1872432 L12.7241081,18.2172973 Z M14.9963243,15.9452973 C14.9963243,16.1736216 14.8105946,16.3593514 14.5824865,16.3593514 L3.51437838,16.3593514 C3.28605405,16.3593514 3.10032432,16.1736216 3.10032432,15.9452973 L3.10032432,1.24216216 C3.10032432,1.01383784 3.28605405,0.828108108 3.51437838,0.828108108 L10.9063784,0.828108108 L10.9063784,3.67567568 C10.9063784,4.36064865 11.4633514,4.91783784 12.1483243,4.91783784 L14.9963243,4.91783784 L14.9963243,15.9452973 Z M12.2694054,9.54291892 L5.82681081,9.54291892 C5.59805405,9.54291892 5.41275676,9.72821622 5.41275676,9.95697297 C5.41275676,10.1855135 5.59827027,10.371027 5.82681081,10.371027 L12.2694054,10.371027 C12.4983784,10.371027 12.6836757,10.1859459 12.6836757,9.95697297 C12.6836757,9.72821622 12.4983784,9.54291892 12.2694054,9.54291892 Z M12.2694054,12.2694054 L5.82681081,12.2694054 C5.59805405,12.2694054 5.41275676,12.4547027 5.41275676,12.6834595 C5.41275676,12.9122162 5.59827027,13.0975135 5.82681081,13.0975135 L12.2694054,13.0975135 C12.4983784,13.0975135 12.6836757,12.9122162 12.6836757,12.6834595 C12.6836757,12.4547027 12.4983784,12.2694054 12.2694054,12.2694054 Z M5.41275676,7.23027027 C5.41275676,7.45902703 5.59827027,7.64432432 5.82681081,7.64432432 L12.2694054,7.64432432 C12.4983784,7.64432432 12.6836757,7.45902703 12.6836757,7.23027027 C12.6836757,7.00151351 12.4983784,6.81621622 12.2694054,6.81621622 L5.82681081,6.81621622 C5.59805405,6.81621622 5.41275676,7.00151351 5.41275676,7.23027027 Z M5.82681081,4.91783784 L9.54313514,4.91783784 C9.77210811,4.91783784 9.95718919,4.73254054 9.95718919,4.50378378 C9.95718919,4.27502703 9.77210811,4.08972973 9.54313514,4.08972973 L5.82681081,4.08972973 C5.59805405,4.08972973 5.41275676,4.27502703 5.41275676,4.50378378 C5.41275676,4.73254054 5.59805405,4.91783784 5.82681081,4.91783784 Z" id="path-1"></path>
    </defs>
    <g id="Symbols" stroke="none" stroke-width="1" fill="none" fill-rule="evenodd">
        <g id="ico_statement" transform="translate(-5.000000, -3.000000)">
            <g id="color/normal1" transform="translate(5.000000, 3.000000)">
                <mask id="mask-2" fill="white">
                    <use xlink:href="#path-1"></use>
                </mask>
                <use id="Mask" fill="#000000" fill-rule="nonzero" xlink:href="#path-1"></use>
                <g id="color/normal" mask="url(#mask-2)" fill="#898C93">
                    <g transform="translate(-5.000000, -3.000000)" id="Rectangle-10">
                        <rect x="0" y="0" width="26" height="26"></rect>
                    </g>
                </g>
            </g>
        </g>
    </g>
</svg>