<?xml version="1.0" encoding="UTF-8"?>
<svg width="19px" height="16px" viewBox="0 0 19 16" version="1.1" xmlns="http://www.w3.org/2000/svg" xmlns:xlink="http://www.w3.org/1999/xlink">
    <!-- Generator: Sketch 50.2 (55047) - http://www.bohemiancoding.com/sketch -->
    <title>color/normal</title>
    <desc>Created with Sketch.</desc>
    <defs>
        <path d="M16.575619,2.88 L13.6670476,2.88 L13.6670476,1.58780952 C13.6670476,0.776 13.0064762,0.115428571 12.1946667,0.115428571 L6.09066667,0.115428571 C5.27885714,0.115428571 4.61866667,0.776 4.61866667,1.58780952 L4.61866667,2.88 L1.71009524,2.88 C0.898285714,2.88 0.238095238,3.54019048 0.238095238,4.352 L0.238095238,14.4121905 C0.238095238,15.224 0.898285714,15.8845714 1.71009524,15.8845714 L16.5752381,15.8845714 C17.3870476,15.8845714 18.0472381,15.224 18.0472381,14.4121905 L18.0472381,4.352 C18.047619,3.54019048 17.3874286,2.88 16.575619,2.88 Z M5.76152381,1.58780952 C5.76152381,1.40571429 5.90933333,1.25828571 6.09066667,1.25828571 L12.1942857,1.25828571 C12.376381,1.25828571 12.5238095,1.40609524 12.5238095,1.58780952 L12.5238095,2.88 L5.76152381,2.88 L5.76152381,1.58780952 Z M1.71009524,4.02285714 L16.5752381,4.02285714 C16.7569524,4.02285714 16.904381,4.17066667 16.904381,4.352 L16.904381,7.61638095 L13.6666667,7.61638095 L13.6666667,6.81752381 C13.6666667,6.50209524 13.4106667,6.24609524 13.0952381,6.24609524 C12.7798095,6.24609524 12.5238095,6.50209524 12.5238095,6.81752381 L12.5238095,7.61638095 L5.76152381,7.61638095 L5.76152381,6.81752381 C5.76152381,6.50209524 5.50552381,6.24609524 5.19009524,6.24609524 C4.87466667,6.24609524 4.61866667,6.50209524 4.61866667,6.81752381 L4.61866667,7.61638095 L1.38095238,7.61638095 L1.38095238,4.352 C1.38095238,4.17028571 1.5287619,4.02285714 1.71009524,4.02285714 Z M16.575619,14.7417143 L1.71009524,14.7417143 C1.52838095,14.7417143 1.38095238,14.5939048 1.38095238,14.4121905 L1.38095238,8.7592381 L4.61866667,8.7592381 L4.61866667,9.65180952 C4.61866667,9.9672381 4.87466667,10.2232381 5.19009524,10.2232381 C5.50552381,10.2232381 5.76152381,9.9672381 5.76152381,9.65180952 L5.76152381,8.7592381 L12.5241905,8.7592381 L12.5241905,9.65180952 C12.5241905,9.9672381 12.7801905,10.2232381 13.095619,10.2232381 C13.4110476,10.2232381 13.6670476,9.9672381 13.6670476,9.65180952 L13.6670476,8.7592381 L16.9047619,8.7592381 L16.9047619,14.4121905 C16.9047619,14.5942857 16.7569524,14.7417143 16.575619,14.7417143 Z" id="path-1"></path>
    </defs>
    <g id="Symbols" stroke="none" stroke-width="1" fill="none" fill-rule="evenodd">
        <g id="ico_Business" transform="translate(-4.000000, -5.000000)">
            <g id="color/normal" transform="translate(4.000000, 5.000000)">
                <mask id="mask-2" fill="white">
                    <use xlink:href="#path-1"></use>
                </mask>
                <use id="Mask" fill="#000000" fill-rule="nonzero" xlink:href="#path-1"></use>
                <g mask="url(#mask-2)" fill="#898C93" id="Rectangle-10">
                    <g transform="translate(-5.714286, -3.428571)">
                        <rect x="0" y="0" width="30" height="30"></rect>
                    </g>
                </g>
            </g>
        </g>
    </g>
</svg>