<svg xmlns="http://www.w3.org/2000/svg" xmlns:xlink="http://www.w3.org/1999/xlink" width="36" height="32" viewBox="0 0 36 32"><defs><path id="hk6ga" d="M791.347 313.638a10.304 10.304 0 0 0-3.257-5.923 10.473 10.473 0 0 0-7.05-2.715c-2.018 0-3.984.574-5.669 1.655a10.356 10.356 0 0 0-3.39 3.54 6.037 6.037 0 0 0-1.099-.104c-3.153 0-5.72 2.546-5.72 5.673 0 .405.044.795.118 1.177-2.04 1.472-3.28 3.84-3.28 6.364 0 2.038.764 4.018 2.16 5.585 1.431 1.604 3.324 2.553 5.342 2.663H775.942a.993.993 0 1 0 0-1.986h-6.351c-3.035-.184-5.588-3.046-5.588-6.269a5.888 5.888 0 0 1 2.946-5.077.997.997 0 0 0 .438-1.206 3.577 3.577 0 0 1-.222-1.266c0-2.03 1.67-3.686 3.717-3.686.438 0 .868.074 1.269.22a1.01 1.01 0 0 0 1.254-.507c1.388-2.92 4.385-4.804 7.643-4.804 4.378 0 7.992 3.252 8.407 7.563.045.45.386.81.831.883 3.302.56 5.796 3.583 5.796 7.034 0 3.657-2.902 6.835-6.478 7.107h-5.47a.993.993 0 1 0 0 1.987H789.716c2.263-.162 4.378-1.192 5.951-2.914a9.12 9.12 0 0 0 2.42-6.18c-.008-4.128-2.85-7.799-6.739-8.814z"/><path id="hk6gb" d="M785.564 323.872a.958.958 0 0 0 0-1.335l-4.87-4.997a.919.919 0 0 0-.647-.28.89.89 0 0 0-.647.28l-4.87 4.997a.958.958 0 0 0 0 1.335.886.886 0 0 0 1.294 0l3.304-3.39v15.58c0 .523.408.943.92.943.51 0 .919-.42.919-.944v-15.579l3.303 3.39c.354.37.933.37 1.294 0z"/></defs><g><g transform="translate(-762 -305)"><use fill="#1c5df4" xlink:href="#hk6ga"/></g><g transform="translate(-762 -305)"><use fill="#1c5df4" xlink:href="#hk6gb"/></g></g></svg>