<svg xmlns="http://www.w3.org/2000/svg" xmlns:xlink="http://www.w3.org/1999/xlink" width="35" height="33" viewBox="0 0 35 33"><defs><path id="3vosa" d="M116.6 80.27c.3.93-.7 2.05-4.57 5.71-1.1 1.05-2.61 2.48-2.87 2.9-.05.5.31 2.52.58 4 .9 5.2 1.06 6.66.26 7.25-.8.58-2.21-.02-6.97-2.48-1.36-.7-3.22-1.67-3.7-1.77-.5.1-2.35 1.07-3.72 1.77-3.66 1.92-5.33 2.68-6.28 2.68-.24.01-.48-.06-.68-.2-.8-.57-.65-2.06.26-7.24.26-1.5.62-3.52.57-4-.25-.43-1.76-1.86-2.87-2.9-3.86-3.67-4.87-4.8-4.56-5.72.31-.92 1.8-1.26 7.12-2 1.53-.22 3.61-.5 4.06-.7.35-.37 1.27-2.21 1.95-3.57 2.36-4.72 3.15-6 4.14-6 1 0 1.78 1.28 4.13 6 .7 1.36 1.62 3.2 1.96 3.58.46.2 2.54.48 4.07.7 5.32.73 6.8 1.07 7.11 2z"/><path id="3vosb" d="M95 81.5a.5.5 0 1 1 1 0 .5.5 0 0 1-1 0z"/><path id="3vosc" d="M103 81.5a.5.5 0 1 1 1 0 .5.5 0 0 1-1 0z"/><path id="3vosd" d="M96.5 91.3c2.3-1.47 3.41-2.87 6.82 0"/></defs><g><g transform="translate(-82 -68)"><use fill="#f1f1f1" xlink:href="#3vosa"/></g><g transform="translate(-82 -68)"><use fill="#d8d8d8" xlink:href="#3vosb"/><use fill="#fff" fill-opacity="0" stroke="#d4d4d4" stroke-miterlimit="50" xlink:href="#3vosb"/></g><g transform="translate(-82 -68)"><use fill="#d8d8d8" xlink:href="#3vosc"/><use fill="#fff" fill-opacity="0" stroke="#d4d4d4" stroke-miterlimit="50" xlink:href="#3vosc"/></g><g transform="translate(-82 -68)"><use fill="#fff" fill-opacity="0" stroke="#d4d4d4" stroke-miterlimit="50" xlink:href="#3vosd"/></g></g></svg>