<svg xmlns="http://www.w3.org/2000/svg" xmlns:xlink="http://www.w3.org/1999/xlink" width="16" height="11" viewBox="0 0 16 11"><defs><path id="b63pa" d="M19.6 4.66c.24.1.4.33.4.58v9.62l-.83-.35c-.03-.02-3.55-1.46-6.5.3a.9.9 0 0 1-.58.19.96.96 0 0 1-.53-.14.93.93 0 0 1-.15-.08c-2.96-1.68-6.5-.31-6.54-.3l-.84.38-.03-.88V5.4a.9.9 0 0 1 .61-.81c1-.36 4.4-1.35 7.42.49 3.34-2.03 7.14-.6 7.57-.42zm-9.57 4.18v4.17c.48.12.95.3 1.4.51l-.03-7.44C8.98 4.6 6.36 5.26 5.18 5.6v7.55c.39-.1.78-.2 1.18-.26v-1.1h1.31v.97h.3l.75.03V8.84zm8.8-3.23c-1.06-.33-3.76-1.02-6.2.47v7.44c.38-.19.79-.34 1.2-.46V9.23h1.32v3.59c.35-.04.7-.06 1.05-.05V7.42h1.44v5.48c.4.06.8.15 1.18.26z"/><linearGradient id="b63pb" x1="4" x2="20" y1="9.5" y2="9.5" gradientUnits="userSpaceOnUse"><stop offset="0" stop-color="#00cfad"/><stop offset=".34" stop-color="#21b7d0"/><stop offset=".48" stop-color="#2facdf"/><stop offset=".6" stop-color="#2ea5e1"/><stop offset=".77" stop-color="#2c90e7"/><stop offset=".98" stop-color="#276ff1"/><stop offset="1" stop-color="#276cf2"/></linearGradient></defs><g><g transform="translate(-4 -4)"><use fill="url(#b63pb)" xlink:href="#b63pa"/></g></g></svg>