<?xml version="1.0" encoding="UTF-8"?>
<svg width="20px" height="20px" viewBox="0 0 16 16" version="1.1" xmlns="http://www.w3.org/2000/svg" xmlns:xlink="http://www.w3.org/1999/xlink">
    <!-- Generator: Sketch 52.4 (67378) - http://www.bohemiancoding.com/sketch -->
    <title>Icons/Group</title>
    <desc>Created with Sketch.</desc>
    <defs>
        <path d="M5.86973692,1.21875004 C6.19424982,1.22106481 6.50150127,1.36952159 6.71052638,1.62500004 L7.50000006,2.84375004 C7.68677629,3.09898822 7.97900423,3.24936385 8.28947374,3.25000003 L13.0263158,3.25000003 C13.4623301,3.25000003 13.8157895,3.61376867 13.8157895,4.06250003 L13.8157895,10.96875 C13.8157895,11.4174814 13.4623301,11.78125 13.0263158,11.78125 L1.97368432,11.78125 C1.53767004,11.78125 1.18421064,11.4174814 1.18421064,10.96875 L1.18421064,3.47343753 C1.18684857,3.32999437 1.22634492,3.18982771 1.29868432,3.06718753 L2.13947379,1.62500004 C2.27893383,1.37636234 2.53553663,1.22192547 2.81447378,1.21875004 L5.86973692,1.21875004 L5.86973692,1.21875004 Z M5.86973692,4.48943717e-08 L2.81447378,4.48943717e-08 C2.12063752,-0.000149769569 1.47768458,0.374662571 1.12105274,0.987187541 L0.280263277,2.43750004 C0.096740249,2.7529979 -0.000125006737,3.1138494 1.21073816e-07,3.48156253 L1.21073816e-07,10.96875 C1.21073816e-07,12.0905784 0.883648634,13 1.97368432,13 L13.0263158,13 C14.1163515,13 15,12.0905784 15,10.96875 L15,4.06250003 C15,2.94067164 14.1163515,2.03125004 13.0263158,2.03125004 L8.39210532,2.03125004 L7.69736848,0.966875042 C7.27422059,0.361412633 6.5944108,0.00177171635 5.86973692,4.48944641e-08 L5.86973692,4.48943717e-08 Z" id="path-1"></path>
    </defs>
    <g id="Icons/Group" stroke="none" stroke-width="1" fill="none" fill-rule="evenodd">
        <g id="Fill-89" transform="translate(0.000000, 1.000000)">
            <g id="Color/Black">
                <mask id="mask-2" fill="white">
                    <use xlink:href="#path-1"></use>
                </mask>
                <use id="Mask" fill="#222732" xlink:href="#path-1"></use>
                <g id="Color/Grey" mask="url(#mask-2)" fill="#222732" fill-rule="nonzero">
                    <g transform="translate(0.000000, -1.000000)" id="Rectangle-Copy">
                        <rect x="0" y="0" width="16" height="16"></rect>
                    </g>
                </g>
            </g>
        </g>
    </g>
</svg>