<svg xmlns="http://www.w3.org/2000/svg" xmlns:xlink="http://www.w3.org/1999/xlink" width="20" height="35" viewBox="0 0 20 35"><defs><path id="z46ma" d="M1337.46 288.74v-8.46c1.97.84 3.53 1.97 3.53 4.5 0 2.28-1.36 3.56-3.53 3.96zm-1.88-13.67c-2.13-.8-3.85-1.64-3.85-3.93 0-2.08 1.6-3.09 3.85-3.37zm2.12.76v-8.14c2.81.2 3.85 1.49 4.81 1.49 1.2 0 1.77-1.53 1.77-2.29 0-1.96-3.85-2.8-6.58-2.89v-1.08c0-.48-.6-.92-1.2-.92-.68 0-1.16.44-1.16.92v1.16c-3.81.4-7.62 2.41-7.62 7.46 0 5.13 4.01 6.58 7.62 7.86v9.42c-4.09-.32-5.17-3.13-6.5-3.13-1 0-1.84 1.33-1.84 2.29 0 1.96 3.37 4.65 8.34 4.73v1.24c0 .48.48.92 1.16.92.6 0 1.2-.44 1.2-.92v-1.36c4.33-.6 7.3-3.33 7.3-8.26 0-5.45-3.8-7.22-7.3-8.5z"/></defs><g><g transform="translate(-1326 -261)"><use fill="#fff" xlink:href="#z46ma"/><use fill="#fff" fill-opacity="0" stroke="#50e3c2" stroke-miterlimit="50" xlink:href="#z46ma"/></g></g></svg>