<svg xmlns="http://www.w3.org/2000/svg" xmlns:xlink="http://www.w3.org/1999/xlink" width="28" height="36" viewBox="0 0 28 36"><defs><path id="sqgga" d="M1042.63 294.15h-24.01v-5.4a3.92 3.92 0 0 1 3.92-3.92 6.9 6.9 0 0 0 2.35-.5l4.3 6.13a1.75 1.75 0 0 0 2.86 0l4.31-6.13c1.17.5 2.32.5 2.35.5a3.92 3.92 0 0 1 3.92 3.92zm-14.01-14.43a5.87 5.87 0 0 0 4 0 6.3 6.3 0 0 0 2.35 3.8l-4.23 6.02a.13.13 0 0 1-.12.06.13.13 0 0 1-.11-.06l-4.23-6.03a6.3 6.3 0 0 0 2.34-3.8zm-1.85-3.3a9.47 9.47 0 0 1-1.95-4.9 9.13 9.13 0 0 0 2.34-3.28 3.14 3.14 0 0 0 2.1.83h5.5c.77 0 1.44.46 1.74 1.13v.01c0 4.55-2.64 8.25-5.88 8.25a5.03 5.03 0 0 1-3.85-2.03zm.7-13.92c.3-.09.6-.14.93-.15a.8.8 0 0 0 .34-.1 5.48 5.48 0 0 1 2.57-.64c3.3 0 5.98 2.95 5.98 6.57v.33a3.52 3.52 0 0 0-2.52-1.06h-5.5a1.49 1.49 0 0 1-1.39-.94.99.99 0 0 0-1.87.12 7.47 7.47 0 0 1-1.83 3.27c-.8-3.33.66-6.64 3.3-7.4zm11.43 20.72c-.03 0-4.15.12-4.76-4.29.68-.47 1.3-1.09 1.86-1.84a11.17 11.17 0 0 0 2.01-5.25.8.8 0 0 0 .2-.28c.45-1.07.68-2.2.68-3.38 0-4.5-3.4-8.18-7.59-8.18-1.1 0-2.16.25-3.16.75-.38.03-.76.1-1.12.2a6.27 6.27 0 0 0-3.93 3.59 8.91 8.91 0 0 0-.04 7.08c.05.11.11.2.2.28.4 3.08 1.86 5.63 3.86 7.02-.62 4.42-4.73 4.3-4.76 4.3a5.53 5.53 0 0 0-5.34 5.53v6.21c0 .45.36.8.8.8h25.62a.8.8 0 0 0 .8-.8v-6.21a5.53 5.53 0 0 0-5.33-5.53z"/></defs><g><g transform="translate(-1017 -260)"><g><use fill="#fff" xlink:href="#sqgga"/></g></g></g></svg>