<svg xmlns="http://www.w3.org/2000/svg" xmlns:xlink="http://www.w3.org/1999/xlink" width="13" height="13" viewBox="0 0 13 13"><defs><path id="gbnya" d="M1075.94 219.5a6.44 6.44 0 1 1-12.88 0 6.44 6.44 0 0 1 12.88 0zm-6.44 5.11a5.11 5.11 0 1 0 0-10.22 5.11 5.11 0 0 0 0 10.22z"/><path id="gbnyb" d="M1072.25 218.83h-2.09v-2.08a.67.67 0 1 0-1.33 0v2.08h-2.08a.67.67 0 0 0 0 1.33h2.08v2.09a.67.67 0 0 0 1.33 0v-2.09h2.09a.67.67 0 1 0 0-1.33z"/></defs><g><g transform="translate(-1063 -213)"><g><use xlink:href="#gbnya"/></g><g><use xlink:href="#gbnyb"/></g></g></g></svg>