<svg xmlns="http://www.w3.org/2000/svg" xmlns:xlink="http://www.w3.org/1999/xlink" width="30" height="36" viewBox="0 0 30 36"><defs><path id="lldla" d="M415.39 267.83v-.06c.25-5.23 3.96-5.8 5.55-5.8h.09c1.97.05 5.32.85 5.55 5.8v.06c.01.05.52 5.02-1.8 7.63a4.78 4.78 0 0 1-3.76 1.56h-.07a4.77 4.77 0 0 1-3.75-1.56c-2.32-2.6-1.82-7.58-1.81-7.63zm5.48 11.16h.23a6.74 6.74 0 0 0 5.15-2.22c2.81-3.17 2.34-8.6 2.3-9.12-.2-3.9-2.03-5.75-3.55-6.62a8.12 8.12 0 0 0-3.93-1.03h-.05-.07c-.81 0-2.4.13-3.93 1-1.53.87-3.4 2.73-3.58 6.65-.05.52-.52 5.95 2.3 9.12a6.7 6.7 0 0 0 5.13 2.22z"/><path id="lldlb" d="M435.99 288v-.02-.19c-.05-1.44-.15-4.82-3.31-5.9l-.08-.02a21.06 21.06 0 0 1-6.06-2.76.98.98 0 1 0-1.13 1.61c.13.09 3.03 2.1 6.67 3.04 1.7.6 1.89 2.43 1.94 4.1v.17c.01.66-.03 1.68-.15 2.26-1.18.67-5.81 3-12.87 3-7.02 0-11.68-2.34-12.87-3-.12-.6-.17-1.6-.15-2.26v-.19c.05-1.66.24-3.48 1.94-4.08 3.64-.94 6.54-2.97 6.67-3.05a.98.98 0 1 0-1.13-1.61 20.83 20.83 0 0 1-6.13 2.78c-3.17 1.09-3.27 4.47-3.31 5.9v.21c-.02.38-.02 2.33.36 3.3.08.2.2.36.38.47.22.14 5.47 3.49 14.25 3.49 8.78 0 14.03-3.36 14.25-3.5.17-.1.3-.26.38-.45.36-.97.36-2.92.35-3.3z"/></defs><g><g transform="translate(-406 -260)"><g><use fill="#fff" xlink:href="#lldla"/></g><g><use fill="#fff" xlink:href="#lldlb"/></g></g></g></svg>