<svg xmlns="http://www.w3.org/2000/svg" xmlns:xlink="http://www.w3.org/1999/xlink" width="16" height="18" viewBox="0 0 16 18"><defs><path id="t0tra" d="M185.32 190.6c.12-.58.23-1.16.32-1.74l.2-1.16-1.98-2.1c.5.83.7 1.86.92 2.79.18.73.35 1.47.54 2.2zm3.64-3.72l-.04-.33-.02-.13a14.87 14.87 0 0 0-.32-1.56l-.01.03a18.1 18.1 0 0 0-.45 1.75c-.29 1.33-.46 2.69-.73 4.03-.13.67-.27 1.37-.53 2.02-.23.58-.52 1.15-1.16 1.35-1.23.4-1.8-1.08-2.09-1.96-.32-1.03-.55-2.1-.8-3.15l-.16-.6c-.28 1.39-.43 2.82-.97 4.14l-.01.03 4.73 2.74c.49.28 1.16.4 1.8.36l.06-.11a5.99 5.99 0 0 0 .56-1.94l.12-.71.02-.16a19.3 19.3 0 0 0 .14-1.93 27.46 27.46 0 0 0-.14-3.87zm.94-4.1a5 5 0 0 1 .74 1.88c.46 2 .59 4.12.51 6.16-.05 1.22-.14 2.51-.43 3.74l3.73-2.17a3.48 3.48 0 0 0 1.55-2.72v-5.72c0-1-.69-2.22-1.55-2.72l-4.92-2.85c-.86-.5-2.27-.5-3.14 0l-4.87 2.85a3.44 3.44 0 0 0-1.52 2.72v5.72c0 .31.02.64.14.97.2-.85.32-1.72.5-2.58.13-.65.26-1.32.51-1.93.22-.53.53-1.18 1.16-1.3.67-.13 1.21.2 1.55.77l1.98 2.1c.17-1.03.36-2.06.66-3.06.22-.72.5-1.72 1.12-2.21.8-.65 1.67-.45 2.28.34l3 3.25z"/><linearGradient id="t0trb" x1="180" x2="195.68" y1="181.15" y2="189.63" gradientUnits="userSpaceOnUse"><stop offset="0" stop-color="#00cfad"/><stop offset=".34" stop-color="#21b7d0"/><stop offset=".48" stop-color="#2facdf"/><stop offset=".6" stop-color="#2ea5e1"/><stop offset=".77" stop-color="#2c90e7"/><stop offset=".98" stop-color="#276ff1"/><stop offset="1" stop-color="#276cf2"/></linearGradient></defs><g><g transform="translate(-180 -178)"><use fill="url(#t0trb)" xlink:href="#t0tra"/></g></g></svg>