<svg xmlns="http://www.w3.org/2000/svg" xmlns:xlink="http://www.w3.org/1999/xlink" width="12" height="15" viewBox="0 0 12 15"><defs><path id="fcm0a" d="M1242.92 165.6a.1.1 0 0 0 .16 0l.76-.77a.11.11 0 0 0 .02-.12.11.11 0 0 0-.1-.06h-.28v-.54a.1.1 0 0 0-.1-.11h-.76a.11.11 0 0 0-.1.11v.54h-.28a.11.11 0 0 0-.08.18z"/><path id="fcm0b" d="M1239.54 170.8c1.14 0 1.92.25 2.17.7a.6.6 0 0 1 .01.6c-.14.26-.46.4-.83.4-.1 0-.19 0-.28-.02-.46-.08-.96-.43-1.58-1.07l-.46.03c-.35.04-1.04.13-1.74.34-.34.61-.97 1.66-1.45 1.98-.19.12-.39.19-.57.19a.58.58 0 0 1-.56-.36c-.15-.37.06-.86.56-1.36.4-.38.94-.69 1.62-.93.35-.66.68-1.36.91-1.97a3.09 3.09 0 0 1-.43-2.38c.13-.37.34-.52.5-.57a.58.58 0 0 1 .61.15c.24.25.32.75.27 1.52-.02.3-.12.7-.3 1.2h.01l.38.47c.28.35.59.74.9 1.1l.26-.01zm-3.6 1.34c-.28.15-.53.33-.72.51-.4.4-.45.65-.44.71h.03c.07 0 .16-.03.25-.1.2-.12.52-.53.88-1.12zm1.66-3.59c.06-.22.1-.4.1-.54.07-.84-.07-1.04-.1-1.08-.04.02-.09.07-.13.2-.12.36-.06.92.13 1.42zm.95 2.3l-.63-.77a50.5 50.5 0 0 0-.17-.2c-.16.38-.34.79-.55 1.2.53-.13 1-.19 1.31-.22zm1.31.55c.34.3.62.46.86.5.06.02.11.02.17.02.19 0 .3-.06.33-.1l-.01-.03c-.07-.13-.44-.35-1.35-.4z"/><path id="fcm0c" d="M1243.87 167.35v10.81c0 .46-.38.84-.84.84h-10.06a.84.84 0 0 1-.84-.84v-13.32c0-.47.38-.84.84-.84h7.54zm-3.35 0h2.16l-2.16-2.16zm2.51 10.81v-9.97h-2.52a.84.84 0 0 1-.83-.84v-2.51h-6.71v13.32z"/><path id="fcm0d" d="M1236.77 174.95c.03.1.05.19.05.3 0 .23-.07.4-.22.53-.14.11-.35.17-.62.17h-.36v.57c0 .1-.03.17-.07.23a.24.24 0 0 1-.19.08.24.24 0 0 1-.19-.08.32.32 0 0 1-.07-.23v-1.65c0-.1.03-.19.08-.24.05-.05.13-.07.24-.07h.56c.16 0 .3.01.39.04a.6.6 0 0 1 .4.35zm-.47.3a.28.28 0 0 0-.08-.2c-.03-.03-.12-.08-.35-.08h-.25v.57h.25c.1 0 .18 0 .24-.03.07-.02.11-.05.14-.09.03-.04.05-.1.05-.16z"/><path id="fcm0e" d="M1239.03 175.67c0 .13-.01.25-.04.36a.94.94 0 0 1-.3.54.79.79 0 0 1-.42.2l-.28.02h-.56a.39.39 0 0 1-.2-.04.2.2 0 0 1-.1-.13.68.68 0 0 1-.02-.18v-1.57c0-.1.03-.18.08-.23.04-.05.12-.08.23-.08h.56c.16 0 .29.01.4.04.1.03.2.09.3.17.23.2.35.5.35.9zm-.53 0a.9.9 0 0 0-.09-.46.39.39 0 0 0-.2-.18c-.1-.03-.2-.04-.34-.04h-.24v1.37H1238.08l.12-.03a.31.31 0 0 0 .1-.06c.14-.11.2-.32.2-.6z"/><path id="fcm0f" d="M1240.65 174.56h-1.02a.4.4 0 0 0-.17.03.21.21 0 0 0-.1.1.4.4 0 0 0-.04.18v1.65c0 .1.02.18.07.23.05.05.11.08.19.08.07 0 .14-.03.19-.08.04-.05.07-.13.07-.23v-.67h.67c.08 0 .14-.01.18-.05a.2.2 0 0 0 .06-.15.2.2 0 0 0-.06-.15c-.04-.04-.1-.05-.18-.05h-.67v-.47h.81c.08 0 .15-.02.19-.06a.2.2 0 0 0 .06-.15.2.2 0 0 0-.06-.15c-.05-.04-.1-.06-.19-.06z"/></defs><g><g transform="translate(-1232 -164)"><use xlink:href="#fcm0a"/></g><g transform="translate(-1232 -164)"><use xlink:href="#fcm0b"/></g><g transform="translate(-1232 -164)"><use xlink:href="#fcm0c"/></g><g transform="translate(-1232 -164)"><use xlink:href="#fcm0d"/></g><g transform="translate(-1232 -164)"><use xlink:href="#fcm0e"/></g><g transform="translate(-1232 -164)"><use xlink:href="#fcm0f"/></g></g></svg>