<svg xmlns="http://www.w3.org/2000/svg" xmlns:xlink="http://www.w3.org/1999/xlink" width="37" height="19" viewBox="0 0 37 19"><defs><path id="ze3ia" d="M180 391c0-1.1.9-2 2-2h33a2 2 0 0 1 2 2v15a2 2 0 0 1-2 2h-33a2 2 0 0 1-2-2z"/><path id="ze3ic" d="M207.49 400.31l1-.22c.03.35.3.67.8.67.4 0 .58-.2.58-.44 0-.2-.13-.35-.47-.42l-.57-.14c-.85-.18-1.23-.69-1.23-1.3 0-.78.7-1.43 1.63-1.43 1.25 0 1.66.8 1.72 1.26l-.99.22c-.03-.25-.22-.58-.72-.58-.3 0-.56.18-.56.43 0 .22.16.35.4.4l.62.13c.87.17 1.3.7 1.3 1.34 0 .7-.55 1.43-1.7 1.43-1.3 0-1.76-.85-1.81-1.35zm-2.21-4.57c0-.41.32-.74.72-.74.4 0 .72.33.72.74 0 .39-.31.72-.72.72a.73.73 0 0 1-.72-.72zm1.32 5.79h-1.18v-4.37h1.18zm-4.1-3.4c-.6 0-1.1.43-1.1 1.22s.5 1.23 1.1 1.23a1 1 0 0 0 1.01-.74l1.04.35c-.2.73-.88 1.47-2.04 1.47-1.29 0-2.3-.97-2.3-2.31 0-1.35 1-2.32 2.26-2.32 1.2 0 1.87.74 2.05 1.47l-1.05.36c-.1-.36-.38-.74-.97-.74zm-3.93 1.86l.99.29c-.23.75-.92 1.38-2 1.38-1.2 0-2.26-.86-2.26-2.33 0-1.4 1.04-2.3 2.16-2.3 1.35 0 2.16.86 2.16 2.26l-.02.37h-3.13c.03.57.52 1 1.1 1 .55 0 .86-.28 1-.67zm-2.08-1.14h1.97c-.02-.43-.3-.86-.99-.86a.95.95 0 0 0-.98.86zm2.58-3.54l-1.21 1.33h-.95l.8-1.33zm-4.23 1.84v1.19a1.78 1.78 0 0 0-.35-.04c-.6 0-1.13.3-1.13 1.23v2h-1.18v-4.37h1.15v.65c.26-.57.87-.68 1.24-.68.1 0 .18 0 .27.02zm-5.49 2.01h-1.13v2.37H187v-6.29h2.35c1.24 0 2.07.82 2.07 1.96 0 1.14-.83 1.96-2.07 1.96zm-1.12-1.04h.98c.61 0 .99-.36.99-.9 0-.57-.38-.92-1-.92h-.97z"/><clipPath id="ze3ib"><use fill="#fff" xlink:href="#ze3ia"/></clipPath></defs><g><g transform="translate(-180 -389)"><use fill="#fff" xlink:href="#ze3ia"/><use fill="#fff" fill-opacity="0" stroke="#1c5df4" stroke-miterlimit="50" clip-path="url(&quot;#ze3ib&quot;)" xlink:href="#ze3ia"/></g><g transform="translate(-180 -389)"><use fill="#1c5df4" xlink:href="#ze3ic"/></g></g></svg>