<svg xmlns="http://www.w3.org/2000/svg" xmlns:xlink="http://www.w3.org/1999/xlink" width="40" height="32" viewBox="0 0 40 32"><defs><path id="n5lpa" d="M1258.62 520.609h-37.24V491.39h37.24zm.69-30.609h-38.62c-.381 0-.69.311-.69.696v30.608c0 .385.309.696.69.696h38.62c.381 0 .69-.311.69-.696v-30.608a.692.692 0 0 0-.69-.696z"/><path id="n5lpb" d="M1228.995 498.437a2.562 2.562 0 0 1 2.558 2.558 2.562 2.562 0 0 1-2.558 2.558 2.561 2.561 0 0 1-2.558-2.557c0-1.41 1.147-2.56 2.558-2.56zM1229 505c2.206 0 4-1.794 4-4s-1.794-4-4-4-4 1.794-4 4 1.794 4 4 4z"/><path id="n5lpc" d="M1224.681 518c.16 0 .32-.05.45-.152l11.106-8.742 7.014 6.27a.738.738 0 0 0 .963 0 .564.564 0 0 0 0-.86l-3.273-2.926 6.251-6.12 7.667 6.283a.74.74 0 0 0 .962-.037.564.564 0 0 0-.042-.86l-8.17-6.696a.753.753 0 0 0-.49-.16.718.718 0 0 0-.473.198l-6.668 6.53-3.23-2.887a.741.741 0 0 0-.93-.027l-11.587 9.12a.565.565 0 0 0-.061.86.716.716 0 0 0 .511.206z"/></defs><g><g transform="translate(-1220 -490)"><g><g><use fill="#262c39" fill-opacity=".16" xlink:href="#n5lpa"/></g><g><use fill="#262c39" fill-opacity=".16" xlink:href="#n5lpb"/></g><g><use fill="#262c39" fill-opacity=".16" xlink:href="#n5lpc"/></g></g></g></g></svg>