<svg xmlns="http://www.w3.org/2000/svg" xmlns:xlink="http://www.w3.org/1999/xlink" width="61" height="76" viewBox="0 0 61 76"><defs><path id="fo8ra" d="M588.631 333.003l-18.128-17.733H556.26v73.467h32.371z"/><path id="fo8rb" d="M562.741 333.003l-18.127-17.733H530.37v73.467h32.371z"/><path id="fo8rc" d="M584.75 333.003L569.21 315.27H534.25v73.467h50.5z"/><path id="fo8re" d="M570.51 315.27v17.733h18.128z"/><path id="fo8rf" d="M531.66 387.477h55.679v-53.95l-17.37-16.994h-38.31zM588.634 390h-58.269a1.31 1.31 0 0 1-.916-.371 1.253 1.253 0 0 1-.379-.896v-73.466c0-.336.136-.659.38-.896a1.31 1.31 0 0 1 .915-.371h40.14c.344 0 .673.134.916.371l18.128 17.733c.243.238.38.56.38.896v55.733c0 .336-.137.659-.38.896a1.309 1.309 0 0 1-.915.371z"/><path id="fo8rg" d="M588.633 334.267h-18.128a1.31 1.31 0 0 1-.916-.371 1.253 1.253 0 0 1-.379-.896v-17.733c0-.7.58-1.267 1.295-1.267s1.295.567 1.295 1.267v16.466h16.833c.715 0 1.295.567 1.295 1.267s-.58 1.267-1.295 1.267z"/><path id="fo8rh" d="M553.669 335.533h-11.654c-.715 0-1.295-.567-1.295-1.266 0-.7.58-1.267 1.295-1.267h11.654c.715 0 1.294.567 1.294 1.267 0 .699-.58 1.266-1.294 1.266z"/><path id="fo8ri" d="M564.027 363.403h-22.012c-.715 0-1.295-.567-1.295-1.266 0-.7.58-1.267 1.295-1.267h22.012c.716 0 1.295.567 1.295 1.267 0 .699-.58 1.266-1.295 1.266z"/><path id="fo8rj" d="M576.979 354.533h-9.064c-.715 0-1.295-.567-1.295-1.266 0-.7.58-1.267 1.295-1.267h9.064c.715 0 1.295.567 1.295 1.267 0 .699-.58 1.266-1.295 1.266z"/><path id="fo8rk" d="M548.49 345.663h-6.475c-.715 0-1.295-.567-1.295-1.266 0-.7.58-1.267 1.295-1.267h6.474c.715 0 1.295.567 1.295 1.267s-.58 1.266-1.295 1.266z"/><path id="fo8rl" d="M570.509 345.663h-9.064c-.715 0-1.295-.567-1.295-1.266 0-.7.58-1.267 1.295-1.267h9.064c.715 0 1.295.567 1.295 1.267s-.58 1.266-1.295 1.266z"/><path id="fo8rm" d="M554.965 345.67a1.319 1.319 0 0 1-.492-.1 1.498 1.498 0 0 1-.427-.267 1.24 1.24 0 0 1-.376-.899c-.004-.166.031-.33.103-.481.066-.154.158-.295.273-.418.37-.366.93-.475 1.416-.278a1.267 1.267 0 0 1 .423 2.076c-.126.112-.271.202-.428.266-.155.065-.322.1-.492.102z"/><path id="fo8rn" d="M561.443 354.533h-12.948c-.715 0-1.295-.567-1.295-1.266 0-.7.58-1.267 1.295-1.267h12.948c.716 0 1.295.567 1.295 1.267 0 .699-.58 1.266-1.295 1.266z"/><path id="fo8ro" d="M542.015 354.53c-.17.005-.339-.03-.493-.1a1.304 1.304 0 0 1-.426-.279 1.547 1.547 0 0 1-.286-.406 1.226 1.226 0 0 1-.09-.48c.005-.336.139-.658.376-.9.125-.112.27-.202.427-.266a1.319 1.319 0 0 1 1.411.266c.115.123.207.264.272.418.073.15.108.315.104.481.002.165-.028.328-.091.481-.072.15-.168.286-.285.406a1.26 1.26 0 0 1-.919.38z"/><path id="fo8rp" d="M576.979 372.263h-9.064c-.715 0-1.295-.567-1.295-1.266 0-.7.58-1.267 1.295-1.267h9.064c.715 0 1.295.567 1.295 1.267 0 .699-.58 1.266-1.295 1.266z"/><path id="fo8rq" d="M561.443 372.263h-12.948c-.715 0-1.295-.567-1.295-1.266 0-.7.58-1.267 1.295-1.267h12.948c.716 0 1.295.567 1.295 1.267 0 .699-.58 1.266-1.295 1.266z"/><path id="fo8rr" d="M542.015 372.262a1.26 1.26 0 0 1-.92-.38c-.37-.357-.478-.9-.272-1.367.066-.154.158-.296.273-.419a1.323 1.323 0 0 1 1.165-.342.776.776 0 0 1 .246.077.964.964 0 0 1 .233.113c.068.048.133.098.194.153.115.123.207.264.272.418a1.251 1.251 0 0 1-.272 1.368 1.26 1.26 0 0 1-.919.38z"/><path id="fo8rs" d="M576.985 345.667a1.318 1.318 0 0 1-.493-.1 1.498 1.498 0 0 1-.426-.267 1.236 1.236 0 0 1-.273-1.38 1.45 1.45 0 0 1 .273-.419c.061-.054.126-.105.194-.152a.971.971 0 0 1 .232-.114.78.78 0 0 1 .247-.076c.166-.039.339-.039.504 0a.82.82 0 0 1 .234.076.965.965 0 0 1 .233.114c.068.047.133.098.194.152.237.243.371.564.376.9.003.337-.132.66-.376.9a1.343 1.343 0 0 1-.427.265c-.156.065-.323.1-.492.101z"/><path id="fo8rt" d="M570.505 363.404a1.319 1.319 0 0 1-.493-.102 1.335 1.335 0 0 1-.426-.266 1.236 1.236 0 0 1-.273-1.38 1.45 1.45 0 0 1 .273-.418c.061-.055.126-.106.194-.152a.971.971 0 0 1 .232-.114.78.78 0 0 1 .247-.077 1.23 1.23 0 0 1 .738.077c.325.115.581.366.699.684.207.471.099 1.018-.272 1.38a1.5 1.5 0 0 1-.427.266c-.156.066-.323.1-.492.102z"/><path id="fo8ru" d="M576.985 363.404a1.297 1.297 0 0 1-.92-.368 1.24 1.24 0 0 1-.272-1.38c.062-.156.155-.298.273-.418a1.36 1.36 0 0 1 1.838 0c.117.12.21.263.272.418.207.471.1 1.018-.272 1.38a1.5 1.5 0 0 1-.427.266 1.32 1.32 0 0 1-.492.102z"/><linearGradient id="fo8rd" x1="524.21" x2="587.02" y1="325.1" y2="386.52" gradientUnits="userSpaceOnUse"><stop offset="0" stop-color="#d4e1f4"/><stop offset=".17" stop-color="#d4e1f4"/><stop offset=".2" stop-color="#d4e1f4"/><stop offset=".2" stop-color="#dae4f4"/><stop offset=".2" stop-color="#ebebf4"/><stop offset=".2" stop-color="#f6f1f4"/><stop offset=".2" stop-color="#fdf4f4"/><stop offset=".21" stop-color="#fff5f4"/><stop offset=".25" stop-color="#fff5f4"/><stop offset=".26" stop-color="#fff5f4"/><stop offset=".26" stop-color="#d4e1f4"/><stop offset=".4" stop-color="#d4e1f4"/><stop offset=".42" stop-color="#d4e1f4"/><stop offset=".42" stop-color="#dae4f4"/><stop offset=".42" stop-color="#ebebf4"/><stop offset=".42" stop-color="#f6f1f4"/><stop offset=".42" stop-color="#fdf4f4"/><stop offset=".43" stop-color="#fff5f4"/><stop offset=".49" stop-color="#fff5f4"/><stop offset=".5" stop-color="#fff5f4"/><stop offset=".5" stop-color="#f9f2f4"/><stop offset=".5" stop-color="#e8ebf4"/><stop offset=".5" stop-color="#dde5f4"/><stop offset=".5" stop-color="#d6e2f4"/><stop offset=".5" stop-color="#d4e1f4"/><stop offset=".71" stop-color="#d4e1f4"/><stop offset=".74" stop-color="#d4e1f4"/><stop offset=".74" stop-color="#fff5f4"/><stop offset=".83" stop-color="#fff5f4"/><stop offset=".85" stop-color="#fff5f4"/><stop offset=".85" stop-color="#d4e1f4"/></linearGradient></defs><g><g transform="translate(-529 -314)"><g><use fill="#a4c2f7" xlink:href="#fo8ra"/></g><g><use fill="#fff" xlink:href="#fo8rb"/></g><g><use fill="url(#fo8rd)" xlink:href="#fo8rc"/></g><g><use fill="#a4c2f7" xlink:href="#fo8re"/></g><g><g><use fill="#428dff" xlink:href="#fo8rf"/></g><g><use fill="#428dff" xlink:href="#fo8rg"/></g><g><use fill="#428dff" xlink:href="#fo8rh"/></g><g><use fill="#428dff" xlink:href="#fo8ri"/></g><g><use fill="#428dff" xlink:href="#fo8rj"/></g><g><use fill="#428dff" xlink:href="#fo8rk"/></g><g><use fill="#428dff" xlink:href="#fo8rl"/></g><g><use fill="#428dff" xlink:href="#fo8rm"/></g><g><use fill="#428dff" xlink:href="#fo8rn"/></g><g><use fill="#428dff" xlink:href="#fo8ro"/></g><g><use fill="#428dff" xlink:href="#fo8rp"/></g><g><use fill="#428dff" xlink:href="#fo8rq"/></g><g><use fill="#428dff" xlink:href="#fo8rr"/></g><g><use fill="#428dff" xlink:href="#fo8rs"/></g><g><use fill="#428dff" xlink:href="#fo8rt"/></g><g><use fill="#428dff" xlink:href="#fo8ru"/></g></g></g></g></svg>