<svg xmlns="http://www.w3.org/2000/svg" xmlns:xlink="http://www.w3.org/1999/xlink" width="15" height="15" viewBox="0 0 15 15"><defs><path id="6lr0a" d="M978 444.5a7.5 7.5 0 1 1-15 0 7.5 7.5 0 0 1 15 0zm-.79 0a6.7 6.7 0 1 0-13.4-.01 6.7 6.7 0 0 0 13.4.01z"/><path id="6lr0b" d="M975 444.5c0 .27-.18.5-.4.5h-8.2c-.22 0-.4-.23-.4-.5 0-.28.18-.5.4-.5h8.2c.22 0 .4.22.4.5z"/></defs><g><g transform="translate(-963 -437)"><g><use fill="#bfbfbf" xlink:href="#6lr0a"/></g><g><use fill="#bfbfbf" xlink:href="#6lr0b"/></g></g></g></svg>