<svg xmlns="http://www.w3.org/2000/svg" xmlns:xlink="http://www.w3.org/1999/xlink" width="14" height="14" viewBox="0 0 14 14"><defs><path id="dcepa" d="M895.36 186h-5.09a.64.64 0 0 0 0 1.27h3.56l-6.55 6.55a.64.64 0 1 0 .9.9l6.55-6.55v3.56a.64.64 0 0 0 1.27 0v-5.1a.64.64 0 0 0-.64-.63z"/><path id="dcepb" d="M892.82 192.37a.64.64 0 0 0-.64.63v5.73h-8.9v-8.9H889a.64.64 0 0 0 0-1.28h-6.36a.64.64 0 0 0-.64.64v10.18c0 .35.28.63.64.63h10.18c.35 0 .63-.28.63-.63V193a.64.64 0 0 0-.63-.63z"/></defs><g><g transform="translate(-882 -186)"><g><use fill="#497df6" xlink:href="#dcepa"/></g><g><use fill="#497df6" xlink:href="#dcepb"/></g></g></g></svg>