<?xml version="1.0" standalone="no"?>
<!DOCTYPE svg PUBLIC "-//W3C//DTD SVG 1.1//EN" "http://www.w3.org/Graphics/SVG/1.1/DTD/svg11.dtd" >
<svg xmlns="http://www.w3.org/2000/svg" xmlns:xlink="http://www.w3.org/1999/xlink" version="1.1">
<metadata>
Created by FontForge 20161013 at Mon Jun 30 21:38:16 2014
 By ,,,
2013 published by FontShop International GmbH
</metadata>
<defs>
<font id="MarkPro-Bold" horiz-adv-x="1228" >
  <font-face 
    font-family="MarkPro-Bold"
    font-weight="700"
    font-stretch="normal"
    units-per-em="2048"
    panose-1="2 11 8 4 2 1 1 1 1 2"
    ascent="1618"
    descent="-430"
    x-height="992"
    cap-height="1434"
    bbox="-120 -471 2228 2049"
    underline-thickness="139"
    underline-position="-403"
    unicode-range="U+000D-FB04"
  />
<missing-glyph horiz-adv-x="748" 
d="M68 0v1365h544v-1365h-544zM136 68h408v1229h-408v-1229z" />
    <glyph glyph-name=".notdef" horiz-adv-x="748" 
d="M68 0v1365h544v-1365h-544zM136 68h408v1229h-408v-1229z" />
    <glyph glyph-name="glyph1" horiz-adv-x="0" 
 />
    <glyph glyph-name="glyph1" horiz-adv-x="0" 
 />
    <glyph glyph-name="glyph2" horiz-adv-x="682" 
 />
    <glyph glyph-name="uni000D" unicode="&#xd;" horiz-adv-x="506" 
 />
    <glyph glyph-name="space" unicode=" " horiz-adv-x="506" 
 />
    <glyph glyph-name="exclam" unicode="!" horiz-adv-x="568" 
d="M89 170q0 78 59 136t137 58q77 0 135 -58t58 -136t-58 -137t-135 -59q-78 0 -137 59t-59 137zM124 1434h319l-36 -941h-246z" />
    <glyph glyph-name="quotedbl" unicode="&#x22;" horiz-adv-x="1149" 
d="M228 863v612h268v-612h-268zM654 863v612h268v-612h-268z" />
    <glyph glyph-name="numbersign" unicode="#" horiz-adv-x="1505" 
d="M97 345l49 229h207l63 292h-208l49 230h207l73 338h245l-72 -338h244l73 338h246l-73 -338h208l-49 -230h-207l-62 -292h206l-48 -229h-208l-72 -345h-246l73 345h-245l-73 -345h-246l73 345h-207zM599 574h245l62 292h-244z" />
    <glyph glyph-name="dollar" unicode="$" horiz-adv-x="1433" 
d="M135 193l140 217q150 -113 348 -140v330l-12 2q-98 16 -174 44.5t-135 74.5t-89.5 115t-28.5 158q3 169 124 279t315 137v192h227v-190q225 -21 427 -144l-128 -219q-145 88 -299 111v-326q98 -15 176 -44t139.5 -74.5t94 -112.5t30.5 -152q-3 -122 -63.5 -214
t-156 -142.5t-219.5 -68.5v-203h-227v197q-139 12 -268 56.5t-221 116.5zM466 1008q-1 -52 38.5 -83.5t118.5 -52.5v283q-73 -18 -114.5 -55.5t-42.5 -91.5zM850 278q73 18 115.5 55.5t43.5 93.5q1 49 -39 81t-120 53v-283z" />
    <glyph glyph-name="percent" unicode="%" horiz-adv-x="2026" 
d="M76 1069q0 167 114 278.5t285 111.5q172 0 286.5 -111.5t114.5 -278.5q0 -169 -114.5 -280.5t-286.5 -111.5q-171 0 -285 111.5t-114 280.5zM303 1069q0 -78 49 -128t123 -50q75 0 124 50t49 128q0 76 -49 126t-124 50q-74 0 -123 -50t-49 -126zM397 0l962 1434h267
l-960 -1434h-269zM1152 366q0 166 114 278.5t285 112.5q172 0 286.5 -112t114.5 -279q0 -168 -114.5 -280t-286.5 -112q-171 0 -285 112t-114 280zM1379 366q0 -77 49 -127.5t123 -50.5q75 0 124 50.5t49 127.5t-49 127t-124 50q-74 0 -123 -50t-49 -127z" />
    <glyph glyph-name="ampersand" unicode="&#x26;" horiz-adv-x="1508" 
d="M90 355q0 116 67 211.5t181 182.5q-95 98 -136.5 175.5t-41.5 175.5q0 157 116.5 258t304.5 101q187 0 302 -97.5t115 -256.5q0 -56 -21 -108t-62 -98.5t-83.5 -83.5t-102.5 -80l224 -217l206 289l202 -139l-229 -323l355 -345h-368l-154 147q-184 -173 -424 -173
q-211 0 -331 102.5t-120 278.5zM377 375q0 -72 50.5 -115t134.5 -43q124 0 228 99l-276 265q-137 -111 -137 -206zM434 1087q0 -40 24.5 -77t98.5 -109q84 59 126.5 104.5t42.5 91.5q0 57 -38.5 89.5t-106.5 32.5q-69 0 -108 -35t-39 -97z" />
    <glyph glyph-name="quotesingle" unicode="'" horiz-adv-x="723" 
d="M228 863v612h268v-612h-268z" />
    <glyph glyph-name="parenleft" unicode="(" horiz-adv-x="864" 
d="M113 582q0 312 164.5 554t436.5 348l85 -239q-195 -92 -300 -268t-105 -395t105 -395.5t300 -268.5l-85 -239q-272 106 -436.5 348.5t-164.5 554.5z" />
    <glyph glyph-name="parenright" unicode=")" horiz-adv-x="864" 
d="M66 -81q195 92 299.5 268t104.5 396t-104.5 395.5t-299.5 267.5l85 239q272 -106 436.5 -348t164.5 -554t-164.5 -554t-436.5 -348z" />
    <glyph glyph-name="asterisk" unicode="*" horiz-adv-x="972" 
d="M82 1105l64 197l242 -84l-4 257h206l-5 -257l242 84l64 -197l-245 -75l155 -204l-167 -121l-148 209l-146 -209l-167 121l154 204z" />
    <glyph glyph-name="plus" unicode="+" 
d="M143 431v228h355v358h233v-358h354v-228h-354v-357h-233v357h-355z" />
    <glyph glyph-name="comma" unicode="," horiz-adv-x="546" 
d="M86 -287l69 611h300l-144 -611h-225z" />
    <glyph glyph-name="hyphen" unicode="-" horiz-adv-x="832" 
d="M114 428v234h605v-234h-605z" />
    <glyph glyph-name="period" unicode="." horiz-adv-x="567" 
d="M85 174q0 79 60 138.5t140 59.5q79 0 138 -59.5t59 -138.5q0 -81 -59 -140.5t-138 -59.5q-80 0 -140 59.5t-60 140.5z" />
    <glyph glyph-name="slash" unicode="/" horiz-adv-x="1060" 
d="M-41 -205l869 1782h283l-869 -1782h-283z" />
    <glyph glyph-name="zero" unicode="0" horiz-adv-x="1445" 
d="M105 717q0 170 48.5 311t132 234.5t196 145t241.5 51.5q128 0 240.5 -51.5t196.5 -145t132.5 -234.5t48.5 -311t-48.5 -311t-132.5 -235t-196.5 -145.5t-240.5 -51.5q-129 0 -241.5 51.5t-196 145.5t-132 235t-48.5 311zM393 717q0 -226 93.5 -351.5t236.5 -125.5
q144 0 237 125t93 352t-93 352t-237 125q-143 0 -236.5 -125.5t-93.5 -351.5z" />
    <glyph glyph-name="one" unicode="1" horiz-adv-x="840" 
d="M53 928v278l620 250v-1456h-277v1067z" />
    <glyph glyph-name="two" unicode="2" horiz-adv-x="1153" 
d="M69 1212q191 247 489 247q223 0 354.5 -127.5t131.5 -335.5q0 -121 -52.5 -217t-153.5 -201l-307 -319h548v-259h-947v216l507 519q118 120 118 246q0 94 -60.5 154t-158.5 60q-93 0 -158.5 -41t-132.5 -117z" />
    <glyph glyph-name="three" unicode="3" horiz-adv-x="1171" 
d="M53 182l165 182q62 -65 148 -101.5t178 -36.5q110 0 180.5 48t70.5 139q0 89 -79.5 138t-201.5 49h-167v246h168q109 0 180 47.5t71 134.5q0 84 -67 131.5t-171 47.5q-93 0 -167 -40.5t-122 -104.5l-174 175q75 102 195 162t283 60q227 0 367.5 -113t140.5 -298
q0 -112 -56 -195.5t-158 -130.5q115 -45 180 -130t65 -199q0 -103 -44 -184.5t-118.5 -131.5t-168 -76.5t-197.5 -26.5q-160 0 -289 54.5t-212 153.5z" />
    <glyph glyph-name="four" unicode="4" horiz-adv-x="1196" 
d="M42 262v201l503 970h307l-479 -913h305v382h276v-382h200v-258h-200v-262h-276v262h-636z" />
    <glyph glyph-name="five" unicode="5" horiz-adv-x="1193" 
d="M69 188l155 194q60 -66 156.5 -109t193.5 -43q115 0 177 59t62 149q0 91 -68 146.5t-224 55.5h-341l16 794h824v-257h-581l-6 -287h165q122 0 219 -33.5t158 -92.5t93 -136.5t32 -168.5q0 -113 -41 -205.5t-112 -153t-166 -93.5t-204 -33q-158 0 -287.5 56t-220.5 158z
" />
    <glyph glyph-name="six" unicode="6" horiz-adv-x="1208" 
d="M63 458q0 175 137 381l397 595h334l-353 -499q38 4 66 4q216 0 356.5 -136.5t140.5 -339.5q0 -210 -154.5 -349.5t-385.5 -139.5q-230 0 -384 138t-154 346zM351 461q0 -103 71.5 -169.5t178.5 -66.5q109 0 180.5 66t71.5 170q0 103 -71.5 169t-180.5 66
q-107 0 -178.5 -66t-71.5 -169z" />
    <glyph glyph-name="seven" unicode="7" horiz-adv-x="1126" 
d="M63 1176v258h1011v-216l-594 -1218h-325l589 1176h-681z" />
    <glyph glyph-name="eight" unicode="8" horiz-adv-x="1299" 
d="M90 390q0 234 253 333q-100 46 -159 127t-59 198q0 125 71 220t189.5 143t264.5 48t264.5 -48t190 -143t71.5 -220q0 -117 -59.5 -198t-160.5 -127q116 -45 185 -127.5t69 -205.5q0 -127 -76 -223t-202.5 -144.5t-281.5 -48.5t-281.5 48.5t-202.5 144.5t-76 223zM388 414
q0 -91 75 -142t187 -51t187 51t75 142q0 92 -75 144t-187 52t-187 -52t-75 -144zM419 1026q0 -89 65.5 -138.5t165.5 -49.5t166 49.5t66 138.5q0 86 -66 134.5t-166 48.5t-165.5 -48.5t-65.5 -134.5z" />
    <glyph glyph-name="nine" unicode="9" horiz-adv-x="1208" 
d="M68 971q0 210 153.5 349t384.5 139q151 0 274.5 -62.5t194 -173t70.5 -247.5q0 -178 -136 -381l-398 -595h-333l351 499q-25 -4 -65 -4q-216 0 -356 136.5t-140 339.5zM355 973q0 -103 71.5 -169.5t179.5 -66.5t179.5 66.5t71.5 169.5t-71.5 169t-179.5 66
q-109 0 -180 -65.5t-71 -169.5z" />
    <glyph glyph-name="colon" unicode=":" horiz-adv-x="567" 
d="M85 174q0 79 60 138.5t140 59.5q79 0 138 -59.5t59 -138.5q0 -81 -59 -140.5t-138 -59.5q-80 0 -140 59.5t-60 140.5zM85 821q0 79 60 138.5t140 59.5q79 0 138 -59.5t59 -138.5q0 -81 -59 -140t-138 -59q-80 0 -140 59t-60 140z" />
    <glyph glyph-name="semicolon" unicode=";" horiz-adv-x="546" 
d="M86 -287l69 611h300l-144 -611h-225zM91 821q0 79 60 138.5t140 59.5q79 0 138 -59.5t59 -138.5q0 -81 -59 -140t-138 -59q-80 0 -140 59t-60 140z" />
    <glyph glyph-name="less" unicode="&#x3c;" 
d="M196 421v249l838 390v-266l-584 -248l584 -249v-266z" />
    <glyph glyph-name="equal" unicode="=" 
d="M143 214v228h942v-228h-942zM143 648v229h942v-229h-942z" />
    <glyph glyph-name="greater" unicode="&#x3e;" 
d="M196 31v266l584 248l-584 249v266l838 -390v-249z" />
    <glyph glyph-name="question" unicode="?" horiz-adv-x="912" 
d="M102 1451q93 13 207 13q266 0 415 -114t149 -310q0 -177 -114 -288t-328 -145l-8 -118h-247v349h98q149 0 227 46t78 136q0 83 -77 126.5t-224 43.5q-70 0 -156 -8zM104 170q0 78 59 136.5t137 58.5q77 0 135.5 -58t58.5 -136q0 -79 -58.5 -138t-135.5 -59q-78 0 -137 59
t-59 137z" />
    <glyph glyph-name="at" unicode="@" horiz-adv-x="1980" 
d="M132 512q0 239 109 431t306 301.5t445 109.5q185 0 345.5 -62t272.5 -168.5t175.5 -253.5t63.5 -313q0 -207 -105.5 -337.5t-285.5 -130.5q-191 0 -264 136q-89 -122 -252 -122q-166 0 -271.5 117t-105.5 292q0 174 105.5 291.5t263.5 117.5q141 0 227 -103v81h215v-441
q0 -88 21 -128t72 -40q69 0 110 65t41 201q0 170 -80 305t-223.5 211.5t-324.5 76.5q-182 0 -324.5 -80t-222.5 -225.5t-80 -331.5q0 -284 174 -462t446 -178q223 0 389 117l122 -165q-216 -158 -511 -158q-185 0 -344 64t-270.5 176t-175 269t-63.5 337zM792 512
q0 -87 51 -145t135 -58q83 0 135 57t52 146t-52 146t-135 57q-84 0 -135 -58t-51 -145z" />
    <glyph glyph-name="A" unicode="A" horiz-adv-x="1507" 
d="M22 0l558 1434h348l558 -1434h-305l-125 334h-612l-125 -334h-297zM543 597h414l-206 554z" />
    <glyph glyph-name="B" unicode="B" horiz-adv-x="1417" 
d="M163 0v1434h586q258 0 400.5 -99t142.5 -299q0 -106 -58 -188t-150 -116q102 -34 170.5 -121.5t68.5 -199.5q0 -204 -139.5 -307.5t-400.5 -103.5h-620zM449 252l320 -1q128 0 192.5 38.5t64.5 135.5q0 95 -65 133t-192 38h-320v-344zM449 847h292q58 0 100.5 7t78.5 25
t55 52.5t19 84.5q0 49 -19 82.5t-55.5 51.5t-79.5 25t-100 7h-291v-335z" />
    <glyph glyph-name="C" unicode="C" horiz-adv-x="1546" 
d="M94 717q0 213 95.5 382.5t268 265t389.5 95.5q199 0 363 -85.5t251 -235.5l-246 -151q-62 94 -157 146t-213 52q-197 0 -325 -130.5t-128 -338.5q1 -212 130 -340.5t323 -128.5q239 0 374 196l233 -168q-97 -142 -254.5 -222.5t-350.5 -80.5q-163 0 -303.5 56t-239 154
t-154.5 236t-56 298z" />
    <glyph glyph-name="D" unicode="D" horiz-adv-x="1592" 
d="M163 0v1434h591q337 0 540.5 -196.5t203.5 -520.5t-203.5 -520.5t-540.5 -196.5h-591zM449 267h302q219 0 333.5 123.5t114.5 326.5q0 205 -114 327t-334 122h-302v-899z" />
    <glyph glyph-name="E" unicode="E" horiz-adv-x="1363" 
d="M163 0v1434h1063v-263h-777v-317h741v-262h-741v-330h785v-262h-1071z" />
    <glyph glyph-name="F" unicode="F" horiz-adv-x="1312" 
d="M163 0v1434h1052v-264h-766v-326h718v-263h-718v-581h-286z" />
    <glyph glyph-name="G" unicode="G" horiz-adv-x="1638" 
d="M94 717q0 214 97 383.5t270 264.5t390 95q168 0 307.5 -57.5t236.5 -162.5l-206 -202q-132 151 -346 151q-198 0 -325.5 -131.5t-127.5 -340.5q0 -143 60.5 -252.5t162 -166.5t225.5 -57q173 0 275.5 81t131.5 235h-364v239h659q4 -37 4 -81q0 -160 -52.5 -298.5
t-144.5 -235.5t-222 -152t-281 -55q-149 0 -284.5 52t-239 145.5t-165 235t-61.5 310.5z" />
    <glyph glyph-name="H" unicode="H" horiz-adv-x="1587" 
d="M163 0v1434h286v-578h690v578h285v-1434h-285v590h-690v-590h-286z" />
    <glyph glyph-name="I" unicode="I" horiz-adv-x="611" 
d="M163 0v1434h286v-1434h-286z" />
    <glyph glyph-name="J" unicode="J" horiz-adv-x="1156" 
d="M30 173l166 208q107 -133 278 -133q117 0 179.5 74.5t62.5 226.5v885h285v-912q0 -262 -141.5 -405t-372.5 -143q-294 0 -457 199z" />
    <glyph glyph-name="K" unicode="K" horiz-adv-x="1458" 
d="M163 0v1434h286v-581h135l474 581h358l-601 -700l646 -734h-370l-510 590h-132v-590h-286z" />
    <glyph glyph-name="L" unicode="L" horiz-adv-x="1239" 
d="M163 0v1434h286v-1167h757v-267h-1043z" />
    <glyph glyph-name="M" unicode="M" horiz-adv-x="1907" 
d="M163 0v1434h419l372 -968l372 968h419v-1434h-286v1082l-354 -944h-302l-354 936v-1074h-286z" />
    <glyph glyph-name="N" unicode="N" horiz-adv-x="1607" 
d="M163 0v1434h267l728 -958v958h287v-1434h-268l-727 957l-1 -957h-286z" />
    <glyph glyph-name="O" unicode="O" horiz-adv-x="1694" 
d="M94 717q0 159 56 296.5t154.5 236t239 154.5t303.5 56q217 0 389.5 -96t268.5 -265.5t96 -381.5t-96 -381.5t-268.5 -266t-389.5 -96.5t-389.5 96.5t-268 266t-95.5 381.5zM392 717q0 -208 128 -338.5t327 -130.5t327 130.5t128 338.5t-128 338.5t-327 130.5t-327 -130.5
t-128 -338.5z" />
    <glyph glyph-name="P" unicode="P" horiz-adv-x="1352" 
d="M163 0v1434h585q252 0 388 -122t136 -334q0 -210 -135.5 -332t-386.5 -122h-301v-524h-286zM449 785h293q237 0 237 193q0 192 -237 192h-293v-385z" />
    <glyph glyph-name="Q" unicode="Q" horiz-adv-x="1704" 
d="M94 717q0 159 56 296.5t154.5 236t239 154.5t303.5 56q217 0 389.5 -96t268.5 -265.5t96 -381.5q0 -252 -145 -445l202 -272h-336l-67 88q-181 -115 -408 -115q-217 0 -389.5 96.5t-268 266t-95.5 381.5zM392 717q0 -208 128 -338.5t327 -130.5q136 0 242 63l-262 348
h342l99 -133q34 88 34 191q0 208 -128 338.5t-327 130.5t-327 -130.5t-128 -338.5z" />
    <glyph glyph-name="R" unicode="R" horiz-adv-x="1392" 
d="M163 0v1434h606q254 0 389.5 -115t135.5 -322q0 -177 -116.5 -290t-322.5 -133l441 -574h-346l-418 570h-83v-570h-286zM449 819h315q236 0 236 178q0 173 -236 173h-315v-351z" />
    <glyph glyph-name="S" unicode="S" horiz-adv-x="1385" 
d="M97 162l149 230q83 -67 204 -110.5t252 -43.5q123 0 202.5 46t79.5 127q0 70 -71.5 106t-232.5 62l-91 14q-437 69 -437 411q0 144 80 249t207.5 155t283.5 50q152 0 283 -36t265 -116l-135 -234q-197 122 -407 122q-123 0 -198.5 -46t-75.5 -126q0 -38 20.5 -65.5
t64.5 -46.5t90.5 -30.5t120.5 -23.5l80 -13q457 -75 457 -402q0 -92 -31.5 -169.5t-86.5 -131.5t-129.5 -92t-160 -56t-179.5 -18q-168 0 -330 48.5t-274 139.5z" />
    <glyph glyph-name="T" unicode="T" horiz-adv-x="1240" 
d="M33 1166v268h1174v-268h-444v-1166h-286v1166h-444z" />
    <glyph glyph-name="U" unicode="U" horiz-adv-x="1527" 
d="M146 572v862h287v-847q0 -171 88 -255t243 -84t243 84t88 255v847h286v-862q0 -194 -79 -330t-216 -202t-322 -66q-282 0 -450 154.5t-168 443.5z" />
    <glyph glyph-name="V" unicode="V" horiz-adv-x="1467" 
d="M22 1434h304l410 -1144l413 1144h297l-539 -1434h-347z" />
    <glyph glyph-name="W" unicode="W" horiz-adv-x="2232" 
d="M35 1434h297l308 -1100l321 1100h316l320 -1100l309 1100h292l-429 -1434h-346l-307 1024l-307 -1024h-346z" />
    <glyph glyph-name="X" unicode="X" horiz-adv-x="1388" 
d="M32 0l489 728l-476 706h336l315 -492l318 492h329l-477 -706l491 -728h-335l-330 511l-331 -511h-329z" />
    <glyph glyph-name="Y" unicode="Y" horiz-adv-x="1394" 
d="M6 1434h336l360 -609l361 609h326l-545 -869v-565h-286v566z" />
    <glyph glyph-name="Z" unicode="Z" horiz-adv-x="1318" 
d="M97 0v223l745 947h-743v264h1123v-224l-745 -947h745v-263h-1125z" />
    <glyph glyph-name="bracketleft" unicode="[" horiz-adv-x="784" 
d="M163 -269v1703h556v-242h-285v-1220h285v-241h-556z" />
    <glyph glyph-name="backslash" unicode="\" horiz-adv-x="1060" 
d="M-50 1577h282l870 -1782h-283z" />
    <glyph glyph-name="bracketright" unicode="]" horiz-adv-x="784" 
d="M66 -28h284v1220h-284v242h556v-1703h-556v241z" />
    <glyph glyph-name="asciicircum" unicode="^" 
d="M124 650l365 784h250l366 -784h-274l-220 518l-220 -518h-267z" />
    <glyph glyph-name="underscore" unicode="_" horiz-adv-x="962" 
d="M-5 -105h973v-218h-973v218z" />
    <glyph glyph-name="grave" unicode="`" horiz-adv-x="1024" 
d="M250 1457h319l206 -322h-255z" />
    <glyph glyph-name="a" unicode="a" horiz-adv-x="1257" 
d="M79 497q0 223 137.5 372.5t342.5 149.5q186 0 297 -136v109h261v-992h-261v110q-110 -136 -297 -136q-205 0 -342.5 150t-137.5 373zM352 497q0 -117 70.5 -195.5t185.5 -78.5q114 0 185 77.5t71 196.5t-71 196t-185 77q-115 0 -185.5 -78t-70.5 -195z" />
    <glyph glyph-name="b" unicode="b" horiz-adv-x="1256" 
d="M140 0v1475h267v-586q108 130 290 130q206 0 344 -149.5t138 -372.5t-138 -373t-343 -150q-186 0 -297 136v-110h-261zM393 497q0 -119 71 -196.5t184 -77.5q116 0 186 78.5t70 195.5t-70 195t-186 78q-113 0 -184 -77t-71 -196z" />
    <glyph glyph-name="c" unicode="c" horiz-adv-x="1057" 
d="M79 497q0 227 146.5 374.5t381.5 147.5q124 0 226.5 -49t171.5 -139l-193 -160q-91 99 -212 99q-106 0 -177.5 -76t-71.5 -197q0 -122 71 -198t177 -76q123 0 216 101l191 -163q-70 -90 -172.5 -138.5t-226.5 -48.5q-235 0 -381.5 147.5t-146.5 375.5z" />
    <glyph glyph-name="d" unicode="d" horiz-adv-x="1257" 
d="M79 497q0 223 137.5 372.5t342.5 149.5q184 0 292 -130v586h266v-1475h-261v110q-110 -136 -297 -136q-205 0 -342.5 150t-137.5 373zM352 497q0 -117 70.5 -195.5t185.5 -78.5q114 0 185 77.5t71 196.5t-71 196t-185 77q-115 0 -185.5 -78t-70.5 -195z" />
    <glyph glyph-name="e" unicode="e" horiz-adv-x="1140" 
d="M79 494q0 234 139.5 379.5t362.5 145.5q214 0 347.5 -144.5t134.5 -376.5q0 -52 -5 -90h-704q21 -103 88.5 -154.5t166.5 -51.5q137 0 251 95l157 -172q-166 -151 -423 -151q-229 0 -372 143.5t-143 376.5zM355 590h440q-19 96 -74.5 147t-141.5 51q-93 0 -149.5 -52
t-74.5 -146z" />
    <glyph glyph-name="f" unicode="f" horiz-adv-x="869" 
d="M42 755v237h185v123q0 177 93 281t263 104t305 -89l-107 -208q-87 48 -170 48q-116 0 -116 -139v-120h308v-237h-308v-755h-268v755h-185z" />
    <glyph glyph-name="g" unicode="g" horiz-adv-x="1245" 
d="M79 512q0 111 37.5 207t100.5 161t146 102t173 37q196 0 307 -137v110h262v-910q0 -238 -144.5 -374.5t-391.5 -136.5q-121 0 -236.5 31t-197.5 89l95 218q153 -102 328 -102q128 0 205.5 69.5t77.5 194.5v69q-110 -134 -305 -134q-90 0 -173 37t-146 101.5t-100.5 160.5
t-37.5 207zM353 512q0 -110 69 -185t181 -75q110 0 179.5 74t69.5 186t-69.5 186.5t-179.5 74.5q-112 0 -181 -75t-69 -186z" />
    <glyph glyph-name="h" unicode="h" horiz-adv-x="1210" 
d="M140 0v1476h268v-590q96 133 284 133q170 0 278 -107.5t108 -279.5v-632h-267v546q0 107 -51 164.5t-143 57.5q-91 0 -150 -58t-59 -166v-544h-268z" />
    <glyph glyph-name="i" unicode="i" horiz-adv-x="547" 
d="M102 1317q0 72 49 122t121 50t121.5 -50t49.5 -122t-49.5 -121t-121.5 -49t-121 49t-49 121zM140 0v992h268v-992h-268z" />
    <glyph glyph-name="j" unicode="j" horiz-adv-x="551" 
d="M-47 -404l40 234q34 -12 72 -12q79 0 79 103v1071h268v-1086q0 -160 -84.5 -248.5t-224.5 -88.5q-86 0 -150 27zM105 1317q0 72 49 122t121 50t121.5 -50t49.5 -122t-49.5 -121t-121.5 -49t-121 49t-49 121z" />
    <glyph glyph-name="k" unicode="k" horiz-adv-x="1121" 
d="M140 0v1475h268v-836h94l279 353h328l-391 -467l394 -525h-329l-285 401h-90v-401h-268z" />
    <glyph glyph-name="l" unicode="l" horiz-adv-x="547" 
d="M140 0v1475h268v-1475h-268z" />
    <glyph glyph-name="m" unicode="m" horiz-adv-x="1880" 
d="M140 0v992h260v-116q97 143 292 143q106 0 191.5 -45t136.5 -125q104 170 337 170q175 0 283 -107t108 -280v-632h-266v546q0 106 -51.5 164t-142.5 58t-150.5 -58t-59.5 -166v-544h-267v546q0 107 -51 164.5t-143 57.5q-91 0 -150 -58t-59 -166v-544h-268z" />
    <glyph glyph-name="n" unicode="n" horiz-adv-x="1210" 
d="M140 0v992h260v-116q97 143 292 143q170 0 278 -107.5t108 -279.5v-632h-267v546q0 107 -51 164.5t-143 57.5q-91 0 -150 -58t-59 -166v-544h-268z" />
    <glyph glyph-name="o" unicode="o" horiz-adv-x="1229" 
d="M79 497q0 111 40.5 207.5t111 165.5t170 109t213.5 40q232 0 385 -149t153 -373t-153 -373.5t-385 -149.5q-152 0 -274.5 68t-191.5 187.5t-69 267.5zM351 497q0 -120 74.5 -197t188.5 -77t189.5 77t75.5 197t-75.5 196.5t-189.5 76.5t-188.5 -76.5t-74.5 -196.5z" />
    <glyph glyph-name="p" unicode="p" horiz-adv-x="1256" 
d="M140 -410v1402h261v-109q109 136 296 136q206 0 344 -149.5t138 -372.5t-138 -373t-343 -150q-182 0 -291 129v-513h-267zM393 497q0 -119 71 -196.5t184 -77.5q116 0 186 78.5t70 195.5t-70 195t-186 78q-113 0 -184 -77t-71 -196z" />
    <glyph glyph-name="q" unicode="q" horiz-adv-x="1257" 
d="M79 497q0 223 137.5 372.5t342.5 149.5q186 0 297 -136v109h261v-1402h-266v513q-109 -129 -292 -129q-205 0 -342.5 150t-137.5 373zM352 497q0 -117 70.5 -195.5t185.5 -78.5q114 0 185 77.5t71 196.5t-71 196t-185 77q-115 0 -185.5 -78t-70.5 -195z" />
    <glyph glyph-name="r" unicode="r" horiz-adv-x="860" 
d="M140 0v992h259v-108q90 135 280 135q76 0 139 -22l-40 -265q-74 32 -162 32q-95 0 -151.5 -57.5t-56.5 -165.5v-541h-268z" />
    <glyph glyph-name="s" unicode="s" horiz-adv-x="1038" 
d="M71 91l105 203q147 -97 338 -97q183 0 183 93q0 36 -39 57.5t-126 33.5l-80 11q-343 48 -343 301q0 153 111 239t307 86q224 0 415 -94l-90 -208q-67 33 -152.5 56.5t-163.5 24.5q-74 0 -113.5 -24t-39.5 -66q0 -39 40.5 -56t121.5 -29l88 -14q335 -51 335 -297
q0 -155 -121 -246t-335 -91q-275 0 -441 117z" />
    <glyph glyph-name="t" unicode="t" horiz-adv-x="955" 
d="M42 755v237h191v295h268v-295h359v-237h-359v-363q0 -88 40.5 -128.5t107.5 -40.5q81 0 187 65l98 -209q-155 -105 -329 -105q-184 0 -278 101.5t-94 295.5v384h-191z" />
    <glyph glyph-name="u" unicode="u" horiz-adv-x="1203" 
d="M132 423v569h267v-546q0 -114 55 -168.5t148 -54.5q92 0 147.5 54.5t55.5 168.5v546h266v-569q0 -114 -38 -202t-104 -140.5t-148.5 -79.5t-178.5 -27t-179 27t-149 79.5t-104 140.5t-38 202z" />
    <glyph glyph-name="v" unicode="v" horiz-adv-x="1125" 
d="M18 992h291l257 -710l259 710h282l-388 -992h-308z" />
    <glyph glyph-name="w" unicode="w" horiz-adv-x="1773" 
d="M28 992h284l212 -693l222 693h282l225 -696l213 696h280l-336 -992h-305l-220 671l-218 -671h-303z" />
    <glyph glyph-name="x" unicode="x" horiz-adv-x="1124" 
d="M28 0l364 504l-355 488h317l214 -308l213 308h310l-356 -487l362 -505h-318l-223 315l-219 -315h-309z" />
    <glyph glyph-name="y" unicode="y" horiz-adv-x="1155" 
d="M13 992h303l273 -510l264 510h293l-759 -1406h-293l347 625z" />
    <glyph glyph-name="z" unicode="z" horiz-adv-x="1064" 
d="M98 0v193l501 562h-483v237h839v-195l-489 -558h501v-239h-869z" />
    <glyph glyph-name="braceleft" unicode="{" horiz-adv-x="902" 
d="M97 465v234q107 0 165.5 50.5t54.5 141.5l-4 100q-9 206 104 324.5t332 118.5h88v-238h-67q-89 0 -139.5 -49t-46.5 -138l4 -97q11 -251 -215 -329q226 -78 215 -330l-4 -96q-4 -89 46.5 -138.5t139.5 -49.5h67v-237h-88q-219 0 -332 118t-104 324l4 100q4 91 -54.5 141
t-165.5 50z" />
    <glyph glyph-name="bar" unicode="|" horiz-adv-x="723" 
d="M228 -271v1705h268v-1705h-268z" />
    <glyph glyph-name="braceright" unicode="}" horiz-adv-x="902" 
d="M66 -31h66q89 0 139.5 49.5t46.5 138.5l-4 96q-11 252 215 330q-226 78 -215 329l4 97q4 89 -46.5 138t-139.5 49h-66v238h88q219 0 331.5 -118.5t103.5 -324.5l-4 -100q-4 -91 54.5 -141t165.5 -50v-234q-107 0 -165.5 -50.5t-54.5 -141.5l4 -100q9 -206 -103.5 -324
t-331.5 -118h-88v237z" />
    <glyph glyph-name="asciitilde" unicode="~" 
d="M121 554q120 146 303 146q81 0 152.5 -23t130 -45.5t109.5 -22.5q72 0 164 89l129 -162q-123 -147 -304 -147q-64 0 -123 14t-96 31.5t-83.5 31.5t-88.5 14q-72 0 -164 -89z" />
    <glyph glyph-name="uni00A0" unicode="&#xa0;" horiz-adv-x="506" 
 />
    <glyph glyph-name="exclamdown" unicode="&#xa1;" horiz-adv-x="568" 
d="M90 823q0 78 58.5 137t135.5 59q78 0 136.5 -59t58.5 -137t-58.5 -135.5t-136.5 -57.5t-136 57.5t-58 135.5zM125 -440l37 941h246l36 -941h-319z" />
    <glyph glyph-name="cent" unicode="&#xa2;" horiz-adv-x="1433" 
d="M241 717q0 192 111.5 330t300.5 177v210h228v-203q194 -30 314 -178l-182 -156q-64 62 -132 85v-530q77 26 137 86l177 -158q-122 -148 -314 -177v-203h-228v209q-189 39 -300.5 177t-111.5 331zM505 717q0 -87 40 -153t108 -99v504q-68 -34 -108 -99.5t-40 -152.5z" />
    <glyph glyph-name="sterling" unicode="&#xa3;" horiz-adv-x="1433" 
d="M163 0v259h164v346h-164v223h164v66q0 138 42.5 247.5t117.5 178t171.5 104t208.5 35.5q249 0 398 -150l-185 -196q-82 82 -213 82q-120 0 -192.5 -77.5t-72.5 -235.5v-54h495v-223h-495v-346h650v-259h-1089z" />
    <glyph glyph-name="currency" unicode="&#xa4;" horiz-adv-x="1433" 
d="M144 1138l151 151l157 -157q121 77 266 77q142 0 264 -76l156 156l150 -151l-155 -156q77 -121 77 -265q0 -145 -77 -266l156 -155l-150 -152l-157 156q-122 -77 -264 -77q-144 0 -267 78l-155 -157l-151 152l156 155q-77 121 -77 266q0 143 77 264zM437 717
q0 -118 81.5 -199.5t199.5 -81.5q117 0 198 81.5t81 199.5q0 117 -81 198t-198 81q-118 0 -199.5 -81t-81.5 -198z" />
    <glyph glyph-name="yen" unicode="&#xa5;" horiz-adv-x="1433" 
d="M63 1434h323l338 -525l332 525h315l-426 -641h290v-190h-373v-138h373v-190h-373v-275h-276v275h-374v190h374v138h-374v190h286z" />
    <glyph glyph-name="brokenbar" unicode="&#xa6;" horiz-adv-x="723" 
d="M228 -271v710h268v-710h-268zM228 723v711h268v-711h-268z" />
    <glyph glyph-name="section" unicode="&#xa7;" horiz-adv-x="1334" 
d="M117 -171l134 216q183 -129 411 -129q110 0 179.5 36t70.5 103q0 58 -64.5 85.5t-210.5 49.5l-77 12q-404 60 -404 348q0 160 143 257q-120 88 -120 250q0 183 146 292.5t373 109.5q135 0 252 -30.5t240 -98.5l-121 -218q-180 103 -363 103q-110 0 -178.5 -36.5
t-68.5 -99.5q0 -60 68.5 -89t208.5 -49l71 -10q124 -19 213 -58.5t143.5 -110.5t54.5 -168q0 -170 -145 -268q120 -90 120 -239q0 -103 -44 -184t-119.5 -130.5t-170 -74.5t-201.5 -25q-152 0 -296 40.5t-245 115.5zM435 579q0 -33 19 -56t60 -38.5t84.5 -25t114.5 -19.5
l69 -10q44 -7 56 -10q99 43 99 136q0 60 -66 89t-209 49l-80 11q-31 4 -42 7q-105 -42 -105 -133z" />
    <glyph glyph-name="dieresis" unicode="&#xa8;" horiz-adv-x="1095" 
d="M155 1286q0 72 49 122t121 50t122 -50t50 -122t-50 -121t-122 -49t-121 49t-49 121zM596 1286q0 72 49 122t121 50t122 -50t50 -122t-50 -121t-122 -49t-121 49t-49 121z" />
    <glyph glyph-name="copyright" unicode="&#xa9;" horiz-adv-x="1909" 
d="M113 728q0 168 66.5 321t179 264t268.5 176.5t328 65.5t328 -65.5t268.5 -176.5t179 -264t66.5 -321t-66.5 -321.5t-179 -264.5t-268.5 -177t-328 -66t-328 66t-268.5 177t-179 264.5t-66.5 321.5zM348 728q0 -164 81 -303t221 -219.5t305 -80.5t304.5 80.5t221 219.5
t81.5 303t-81.5 302.5t-221 218.5t-304.5 80q-124 0 -236.5 -47.5t-193.5 -128t-129 -191.5t-48 -234zM540 728q0 188 121 308t310 120q120 0 218.5 -55t151.5 -152l-193 -108q-61 104 -180 104q-85 0 -141 -61t-56 -156q0 -104 58 -160.5t140 -56.5q115 0 184 104l180 -128
q-59 -89 -151 -138t-211 -49q-189 0 -310 120t-121 308z" />
    <glyph glyph-name="ordfeminine" unicode="&#xaa;" horiz-adv-x="813" 
d="M62 801q0 101 79 159t217 58h158q-11 126 -151 126q-100 0 -193 -66l-77 151q119 89 291 89q154 0 242.5 -78.5t88.5 -231.5v-416h-192v70q-87 -89 -213 -89q-116 0 -183 62.5t-67 165.5zM268 809q0 -33 23.5 -55.5t69.5 -22.5q92 0 160 77v79h-133q-61 0 -90.5 -22.5
t-29.5 -55.5z" />
    <glyph glyph-name="guillemotleft" unicode="&#xab;" horiz-adv-x="1113" 
d="M90 545l198 399h269l-198 -399l198 -400h-269zM550 545l198 399h269l-198 -399l198 -400h-269z" />
    <glyph glyph-name="logicalnot" unicode="&#xac;" 
d="M143 431v228h942v-548h-233v320h-709z" />
    <glyph glyph-name="uni00AD" unicode="&#xad;" horiz-adv-x="832" 
d="M114 428v234h605v-234h-605z" />
    <glyph glyph-name="registered" unicode="&#xae;" horiz-adv-x="1032" 
d="M38 1013q0 193 139 329t340 136q131 0 241 -62.5t173 -169.5t63 -233q0 -192 -139.5 -328.5t-337.5 -136.5q-201 0 -340 136.5t-139 328.5zM187 1013q0 -136 96 -232.5t234 -96.5q135 0 231 96.5t96 232.5t-96 232t-231 96q-138 0 -234 -96t-96 -232zM337 805v416h205
q84 0 129.5 -38t45.5 -103q0 -50 -31.5 -84t-90.5 -44l127 -147h-141l-114 143h-10v-143h-120zM457 1044h83q55 0 55 36q0 37 -55 37h-83v-73z" />
    <glyph glyph-name="macron" unicode="&#xaf;" horiz-adv-x="1079" 
d="M201 1179v214h678v-214h-678z" />
    <glyph glyph-name="degree" unicode="&#xb0;" horiz-adv-x="878" 
d="M38 1062q0 165 117 281t284 116q166 0 284 -116t118 -281q0 -163 -118 -278.5t-284 -115.5t-283.5 115t-117.5 279zM257 1062q0 -77 53.5 -131t128.5 -54q73 0 127.5 54.5t54.5 130.5t-54.5 130t-127.5 54q-75 0 -128.5 -54t-53.5 -130z" />
    <glyph glyph-name="plusminus" unicode="&#xb1;" 
d="M143 0v228h942v-228h-942zM143 590v228h355v330h233v-330h354v-228h-354v-265h-233v265h-355z" />
    <glyph glyph-name="uni00B2" unicode="&#xb2;" horiz-adv-x="742" 
d="M54 1299q120 149 314 149q136 0 217 -74t81 -197q0 -73 -31.5 -131.5t-103.5 -126.5l-147 -141h301v-186h-587v158l296 281q63 60 63 123q0 45 -31.5 73t-79.5 28q-51 0 -90 -23t-80 -65z" />
    <glyph glyph-name="uni00B3" unicode="&#xb3;" horiz-adv-x="747" 
d="M42 700l113 131q74 -76 181 -76q58 0 94.5 22.5t36.5 65.5q0 42 -42 65t-106 23h-96v171h99q56 0 92.5 23t36.5 63t-32 61t-86 21q-104 0 -175 -79l-113 130q112 127 296 127q141 0 229 -67t88 -176q0 -131 -123 -189q67 -27 104.5 -76.5t37.5 -114.5q0 -80 -48 -138
t-121.5 -84t-161.5 -26q-198 0 -304 123z" />
    <glyph glyph-name="acute" unicode="&#xb4;" horiz-adv-x="1024" 
d="M250 1135l206 322h319l-270 -322h-255z" />
    <glyph glyph-name="uni00B5" unicode="&#xb5;" horiz-adv-x="1210" 
d="M132 -410v1402h267v-546q0 -107 51 -164.5t143 -57.5q91 0 150.5 58.5t59.5 166.5v543h267v-992h-260v117q-97 -144 -292 -144q-65 0 -127 19v-402h-259z" />
    <glyph glyph-name="paragraph" unicode="&#xb6;" horiz-adv-x="1319" 
d="M114 1023q0 188 118.5 297t339.5 113v1h207v-1434h-207v609q-221 4 -339.5 114.5t-118.5 299.5zM885 0v1434h207v-1434h-207z" />
    <glyph glyph-name="periodcentered" unicode="&#xb7;" horiz-adv-x="686" 
d="M144 546q0 79 60 138t140 59q79 0 138.5 -59t59.5 -138q0 -81 -59.5 -140.5t-138.5 -59.5q-80 0 -140 59.5t-60 140.5z" />
    <glyph glyph-name="cedilla" unicode="&#xb8;" horiz-adv-x="891" 
d="M264 -329l114 336h250l-106 -336h-258z" />
    <glyph glyph-name="uni00B9" unicode="&#xb9;" horiz-adv-x="566" 
d="M42 1101v196l391 150v-855h-202v578z" />
    <glyph glyph-name="ordmasculine" unicode="&#xba;" horiz-adv-x="889" 
d="M62 946q0 160 109 266t274 106t273.5 -106t108.5 -266t-108.5 -266.5t-273.5 -106.5t-274 106.5t-109 266.5zM265 946q0 -83 51 -135t129 -52q77 0 129 52.5t52 134.5t-52 134.5t-129 52.5q-78 0 -129 -52.5t-51 -134.5z" />
    <glyph glyph-name="guillemotright" unicode="&#xbb;" horiz-adv-x="1113" 
d="M96 146l198 400l-198 399h270l197 -399l-197 -400h-270zM556 146l198 400l-198 399h269l198 -399l-198 -400h-269z" />
    <glyph glyph-name="onequarter" unicode="&#xbc;" horiz-adv-x="1750" 
d="M42 1101v196l391 150v-855h-202v578zM262 0l904 1434h247l-904 -1434h-247zM1032 141v142l278 558h221l-261 -518h139v103l61 123h141v-226h106v-182h-106v-141h-202v141h-377z" />
    <glyph glyph-name="onehalf" unicode="&#xbd;" horiz-adv-x="1824" 
d="M42 1101v196l391 150v-855h-202v578zM262 0l904 1434h247l-904 -1434h-247zM1136 708q119 148 313 148q136 0 217 -74t81 -197q0 -73 -31.5 -131.5t-102.5 -126.5l-148 -141h301v-186h-586v158l296 281q62 59 62 123q0 45 -31.5 73.5t-79.5 28.5q-50 0 -89 -23t-81 -66z
" />
    <glyph glyph-name="threequarters" unicode="&#xbe;" horiz-adv-x="1903" 
d="M42 700l113 131q74 -76 181 -76q58 0 94.5 22.5t36.5 65.5q0 42 -42 65t-106 23h-96v171h99q56 0 92.5 23t36.5 63t-32 61t-86 21q-104 0 -175 -79l-113 130q112 127 296 127q141 0 229 -67t88 -176q0 -131 -123 -189q67 -27 104.5 -76.5t37.5 -114.5q0 -80 -48 -138
t-121.5 -84t-161.5 -26q-198 0 -304 123zM416 0l904 1434h247l-904 -1434h-247zM1186 141v142l277 558h221l-261 -518h140v103l61 123h140v-226h107v-182h-107v-141h-201v141h-377z" />
    <glyph glyph-name="questiondown" unicode="&#xbf;" horiz-adv-x="912" 
d="M39 -47q0 177 113.5 287.5t328.5 145.5l8 118h247v-348h-98q-149 0 -226.5 -46.5t-77.5 -136.5q0 -83 77 -126.5t224 -43.5q59 0 156 9l19 -270q-93 -13 -207 -13q-266 0 -415 114t-149 310zM419 822q0 79 58 138t135 59q78 0 137 -59t59 -137t-59 -136t-137 -58
q-77 0 -135 57.5t-58 135.5z" />
    <glyph glyph-name="Agrave" unicode="&#xc0;" horiz-adv-x="1507" 
d="M22 0l558 1434h348l558 -1434h-305l-125 334h-612l-125 -334h-297zM401 1877h320l206 -323h-255zM543 597h414l-206 554z" />
    <glyph glyph-name="Aacute" unicode="&#xc1;" horiz-adv-x="1507" 
d="M22 0l558 1434h348l558 -1434h-305l-125 334h-612l-125 -334h-297zM543 597h414l-206 554zM566 1554l206 323h320l-271 -323h-255z" />
    <glyph glyph-name="Acircumflex" unicode="&#xc2;" horiz-adv-x="1507" 
d="M22 0l558 1434h348l558 -1434h-305l-125 334h-612l-125 -334h-297zM370 1544l223 323h322l224 -323h-259l-126 157l-125 -157h-259zM543 597h414l-206 554z" />
    <glyph glyph-name="Atilde" unicode="&#xc3;" horiz-adv-x="1507" 
d="M22 0l558 1434h348l558 -1434h-305l-125 334h-612l-125 -334h-297zM352 1720q104 134 269 134q62 0 115 -18t90 -35.5t61 -17.5q54 0 127 68l142 -152q-105 -135 -269 -135q-61 0 -113.5 18t-90 35.5t-62.5 17.5q-54 0 -127 -67zM543 597h414l-206 554z" />
    <glyph glyph-name="Adieresis" unicode="&#xc4;" horiz-adv-x="1507" 
d="M22 0l558 1434h348l558 -1434h-305l-125 334h-612l-125 -334h-297zM362 1706q0 72 49 122t121 50t122.5 -50t50.5 -122t-50.5 -121t-122.5 -49t-121 49t-49 121zM543 597h414l-206 554zM804 1706q0 72 49 122t121 50t122 -50t50 -122t-50 -121t-122 -49t-121 49t-49 121z
" />
    <glyph glyph-name="Aring" unicode="&#xc5;" horiz-adv-x="1507" 
d="M22 0l558 1434h348l558 -1434h-305l-125 334h-612l-125 -334h-297zM485 1786q0 108 79 185.5t189 77.5q111 0 190 -77.5t79 -185.5q0 -109 -79 -186.5t-190 -77.5q-110 0 -189 77.5t-79 186.5zM543 597h414l-206 554zM645 1786q0 -47 32.5 -79.5t75.5 -32.5q45 0 77 32.5
t32 79.5q0 46 -32 78t-77 32q-43 0 -75.5 -32.5t-32.5 -77.5z" />
    <glyph glyph-name="AE" unicode="&#xc6;" horiz-adv-x="2358" 
d="M17 0l1038 1434h1165v-263h-777v-317h741v-262h-741v-330h785v-262h-1071v301h-585l-214 -301h-341zM760 564h397v556z" />
    <glyph glyph-name="Ccedilla" unicode="&#xc7;" horiz-adv-x="1546" 
d="M94 717q0 213 95.5 382.5t268 265t389.5 95.5q199 0 363 -85.5t251 -235.5l-246 -151q-62 94 -157 146t-213 52q-197 0 -325 -130.5t-128 -338.5q1 -212 130 -340.5t323 -128.5q239 0 374 196l233 -168q-80 -118 -203.5 -194t-275.5 -99l-97 -312h-274l107 314
q-276 43 -445.5 243.5t-169.5 488.5z" />
    <glyph glyph-name="Egrave" unicode="&#xc8;" horiz-adv-x="1363" 
d="M163 0v1434h1063v-263h-777v-317h741v-262h-741v-330h785v-262h-1071zM340 1877h319l206 -323h-255z" />
    <glyph glyph-name="Eacute" unicode="&#xc9;" horiz-adv-x="1363" 
d="M163 0v1434h1063v-263h-777v-317h741v-262h-741v-330h785v-262h-1071zM505 1554l206 323h319l-270 -323h-255z" />
    <glyph glyph-name="Ecircumflex" unicode="&#xca;" horiz-adv-x="1363" 
d="M163 0v1434h1063v-263h-777v-317h741v-262h-741v-330h785v-262h-1071zM308 1544l223 323h323l223 -323h-259l-126 157l-125 -157h-259z" />
    <glyph glyph-name="Edieresis" unicode="&#xcb;" horiz-adv-x="1363" 
d="M163 0v1434h1063v-263h-777v-317h741v-262h-741v-330h785v-262h-1071zM301 1706q0 72 49 122t121 50t122 -50t50 -122t-50 -121t-122 -49t-121 49t-49 121zM742 1706q0 72 49 122t121 50t122 -50t50 -122t-50 -121t-122 -49t-121 49t-49 121z" />
    <glyph glyph-name="Igrave" unicode="&#xcc;" horiz-adv-x="611" 
d="M-46 1877h319l206 -323h-255zM163 0v1434h286v-1434h-286z" />
    <glyph glyph-name="Iacute" unicode="&#xcd;" horiz-adv-x="611" 
d="M119 1554l206 323h319l-270 -323h-255zM163 0v1434h286v-1434h-286z" />
    <glyph glyph-name="Icircumflex" unicode="&#xce;" horiz-adv-x="611" 
d="M-78 1544l223 323h323l223 -323h-259l-126 157l-125 -157h-259zM163 0v1434h286v-1434h-286z" />
    <glyph glyph-name="Idieresis" unicode="&#xcf;" horiz-adv-x="611" 
d="M-85 1706q0 72 49 122t121 50t122 -50t50 -122t-50 -121t-122 -49t-121 49t-49 121zM163 0v1434h286v-1434h-286zM356 1706q0 72 49 122t121 50t122 -50t50 -122t-50 -121t-122 -49t-121 49t-49 121z" />
    <glyph glyph-name="Eth" unicode="&#xd0;" horiz-adv-x="1700" 
d="M97 595v256h174v583h591q337 0 541 -196.5t204 -520.5t-204 -520.5t-541 -196.5h-591v595h-174zM557 267h302q219 0 334 123.5t115 326.5q0 205 -114.5 327t-334.5 122h-302v-315h356v-256h-356v-328z" />
    <glyph glyph-name="Ntilde" unicode="&#xd1;" horiz-adv-x="1607" 
d="M163 0v1434h267l728 -958v958h287v-1434h-268l-727 957l-1 -957h-286zM408 1720q104 134 268 134q62 0 115 -18t90 -35.5t61 -17.5q54 0 127 68l142 -152q-105 -135 -269 -135q-61 0 -113.5 18t-90 35.5t-62.5 17.5q-54 0 -127 -67z" />
    <glyph glyph-name="Ograve" unicode="&#xd2;" horiz-adv-x="1694" 
d="M94 717q0 159 56 296.5t154.5 236t239 154.5t303.5 56q217 0 389.5 -96t268.5 -265.5t96 -381.5t-96 -381.5t-268.5 -266t-389.5 -96.5t-389.5 96.5t-268 266t-95.5 381.5zM392 717q0 -208 128 -338.5t327 -130.5t327 130.5t128 338.5t-128 338.5t-327 130.5t-327 -130.5
t-128 -338.5zM495 1877h319l206 -323h-255z" />
    <glyph glyph-name="Oacute" unicode="&#xd3;" horiz-adv-x="1694" 
d="M94 717q0 159 56 296.5t154.5 236t239 154.5t303.5 56q217 0 389.5 -96t268.5 -265.5t96 -381.5t-96 -381.5t-268.5 -266t-389.5 -96.5t-389.5 96.5t-268 266t-95.5 381.5zM392 717q0 -208 128 -338.5t327 -130.5t327 130.5t128 338.5t-128 338.5t-327 130.5t-327 -130.5
t-128 -338.5zM659 1554l206 323h320l-271 -323h-255z" />
    <glyph glyph-name="Ocircumflex" unicode="&#xd4;" horiz-adv-x="1694" 
d="M94 717q0 159 56 296.5t154.5 236t239 154.5t303.5 56q217 0 389.5 -96t268.5 -265.5t96 -381.5t-96 -381.5t-268.5 -266t-389.5 -96.5t-389.5 96.5t-268 266t-95.5 381.5zM392 717q0 -208 128 -338.5t327 -130.5t327 130.5t128 338.5t-128 338.5t-327 130.5t-327 -130.5
t-128 -338.5zM463 1544l223 323h323l223 -323h-259l-126 157l-125 -157h-259z" />
    <glyph glyph-name="Otilde" unicode="&#xd5;" horiz-adv-x="1694" 
d="M94 717q0 159 56 296.5t154.5 236t239 154.5t303.5 56q217 0 389.5 -96t268.5 -265.5t96 -381.5t-96 -381.5t-268.5 -266t-389.5 -96.5t-389.5 96.5t-268 266t-95.5 381.5zM392 717q0 -208 128 -338.5t327 -130.5t327 130.5t128 338.5t-128 338.5t-327 130.5t-327 -130.5
t-128 -338.5zM445 1720q104 134 269 134q62 0 115 -18t90 -35.5t61 -17.5q54 0 127 68l142 -152q-105 -135 -269 -135q-61 0 -113.5 18t-90 35.5t-62.5 17.5q-54 0 -127 -67z" />
    <glyph glyph-name="Odieresis" unicode="&#xd6;" horiz-adv-x="1694" 
d="M94 717q0 159 56 296.5t154.5 236t239 154.5t303.5 56q217 0 389.5 -96t268.5 -265.5t96 -381.5t-96 -381.5t-268.5 -266t-389.5 -96.5t-389.5 96.5t-268 266t-95.5 381.5zM392 717q0 -208 128 -338.5t327 -130.5t327 130.5t128 338.5t-128 338.5t-327 130.5t-327 -130.5
t-128 -338.5zM456 1706q0 72 49 122t121 50t122 -50t50 -122t-50 -121t-122 -49t-121 49t-49 121zM897 1706q0 72 49 122t121 50t122 -50t50 -122t-50 -121t-122 -49t-121 49t-49 121z" />
    <glyph glyph-name="multiply" unicode="&#xd7;" 
d="M164 828l167 167l285 -285l284 283l163 -163l-284 -283l286 -286l-167 -167l-286 286l-283 -284l-163 163l284 284z" />
    <glyph glyph-name="Oslash" unicode="&#xd8;" horiz-adv-x="1694" 
d="M94 717q0 159 56 296.5t154.5 236t239 154.5t303.5 56q251 0 444 -131l130 130l172 -172l-128 -128q136 -193 136 -442q0 -212 -96 -381.5t-268.5 -266t-389.5 -96.5q-251 0 -440 128l-127 -127l-172 171l123 124q-137 191 -137 448zM392 717q0 -133 53 -234l640 640
q-107 63 -238 63q-199 0 -327 -130.5t-128 -338.5zM612 307q101 -59 235 -59q199 0 327 130.5t128 338.5q0 121 -51 228z" />
    <glyph glyph-name="Ugrave" unicode="&#xd9;" horiz-adv-x="1527" 
d="M146 572v862h287v-847q0 -171 88 -255t243 -84t243 84t88 255v847h286v-862q0 -194 -79 -330t-216 -202t-322 -66q-282 0 -450 154.5t-168 443.5zM412 1877h319l206 -323h-255z" />
    <glyph glyph-name="Uacute" unicode="&#xda;" horiz-adv-x="1527" 
d="M146 572v862h287v-847q0 -171 88 -255t243 -84t243 84t88 255v847h286v-862q0 -194 -79 -330t-216 -202t-322 -66q-282 0 -450 154.5t-168 443.5zM577 1554l205 323h320l-271 -323h-254z" />
    <glyph glyph-name="Ucircumflex" unicode="&#xdb;" horiz-adv-x="1527" 
d="M146 572v862h287v-847q0 -171 88 -255t243 -84t243 84t88 255v847h286v-862q0 -194 -79 -330t-216 -202t-322 -66q-282 0 -450 154.5t-168 443.5zM380 1544l223 323h323l223 -323h-259l-126 157l-125 -157h-259z" />
    <glyph glyph-name="Udieresis" unicode="&#xdc;" horiz-adv-x="1527" 
d="M146 572v862h287v-847q0 -171 88 -255t243 -84t243 84t88 255v847h286v-862q0 -194 -79 -330t-216 -202t-322 -66q-282 0 -450 154.5t-168 443.5zM373 1706q0 72 49 122t121 50t122 -50t50 -122t-50 -121t-122 -49t-121 49t-49 121zM814 1706q0 72 49 122t121 50t122 -50
t50 -122t-50 -121t-122 -49t-121 49t-49 121z" />
    <glyph glyph-name="Yacute" unicode="&#xdd;" horiz-adv-x="1394" 
d="M6 1434h336l360 -609l361 609h326l-545 -869v-565h-286v566zM514 1554l206 323h319l-270 -323h-255z" />
    <glyph glyph-name="Thorn" unicode="&#xde;" horiz-adv-x="1352" 
d="M163 0v1434h286v-246h299q252 0 388 -122.5t136 -334.5q0 -210 -135.5 -331t-386.5 -121h-301v-279h-286zM449 540h293q237 0 237 191q0 193 -237 193h-293v-384z" />
    <glyph glyph-name="germandbls" unicode="&#xdf;" horiz-adv-x="1262" 
d="M133 0v1029q0 74 16.5 140.5t55 128t96 105.5t145 70.5t196.5 26.5q222 0 361.5 -119.5t139.5 -297.5q0 -124 -60 -214.5t-157 -125.5q109 -29 184 -123.5t75 -213.5q0 -196 -129.5 -314t-336.5 -118q-126 0 -213 27l37 230q64 -23 135 -23q110 0 171.5 54t61.5 154
q0 202 -284 202h-38v231h10q271 0 271 202q0 97 -65.5 150t-168.5 53q-113 0 -175 -65t-62 -172v-1017h-266z" />
    <glyph glyph-name="agrave" unicode="&#xe0;" horiz-adv-x="1257" 
d="M79 497q0 223 137.5 372.5t342.5 149.5q186 0 297 -136v109h261v-992h-261v110q-110 -136 -297 -136q-205 0 -342.5 150t-137.5 373zM281 1457h319l206 -322h-255zM352 497q0 -117 70.5 -195.5t185.5 -78.5q114 0 185 77.5t71 196.5t-71 196t-185 77q-115 0 -185.5 -78
t-70.5 -195z" />
    <glyph glyph-name="aacute" unicode="&#xe1;" horiz-adv-x="1257" 
d="M79 497q0 223 137.5 372.5t342.5 149.5q186 0 297 -136v109h261v-992h-261v110q-110 -136 -297 -136q-205 0 -342.5 150t-137.5 373zM352 497q0 -117 70.5 -195.5t185.5 -78.5q114 0 185 77.5t71 196.5t-71 196t-185 77q-115 0 -185.5 -78t-70.5 -195zM454 1135l205 322
h320l-270 -322h-255z" />
    <glyph glyph-name="acircumflex" unicode="&#xe2;" horiz-adv-x="1257" 
d="M79 497q0 223 137.5 372.5t342.5 149.5q186 0 297 -136v109h261v-992h-261v110q-110 -136 -297 -136q-205 0 -342.5 150t-137.5 373zM248 1124l223 323h323l223 -323h-259l-126 157l-125 -157h-259zM352 497q0 -117 70.5 -195.5t185.5 -78.5q114 0 185 77.5t71 196.5
t-71 196t-185 77q-115 0 -185.5 -78t-70.5 -195z" />
    <glyph glyph-name="atilde" unicode="&#xe3;" horiz-adv-x="1257" 
d="M79 497q0 223 137.5 372.5t342.5 149.5q186 0 297 -136v109h261v-992h-261v110q-110 -136 -297 -136q-205 0 -342.5 150t-137.5 373zM228 1300q105 135 269 135q62 0 115 -18t90 -36t61 -18q53 0 127 69l142 -153q-105 -135 -269 -135q-61 0 -113.5 18t-90 35.5
t-62.5 17.5q-54 0 -127 -67zM352 497q0 -117 70.5 -195.5t185.5 -78.5q114 0 185 77.5t71 196.5t-71 196t-185 77q-115 0 -185.5 -78t-70.5 -195z" />
    <glyph glyph-name="adieresis" unicode="&#xe4;" horiz-adv-x="1257" 
d="M79 497q0 223 137.5 372.5t342.5 149.5q186 0 297 -136v109h261v-992h-261v110q-110 -136 -297 -136q-205 0 -342.5 150t-137.5 373zM239 1286q0 72 49 122t121 50t122 -50t50 -122t-50 -121t-122 -49t-121 49t-49 121zM352 497q0 -117 70.5 -195.5t185.5 -78.5
q114 0 185 77.5t71 196.5t-71 196t-185 77q-115 0 -185.5 -78t-70.5 -195zM680 1286q0 72 49 122t121 50t122 -50t50 -122t-50 -121t-122 -49t-121 49t-49 121z" />
    <glyph glyph-name="aring" unicode="&#xe5;" horiz-adv-x="1257" 
d="M79 497q0 223 137.5 372.5t342.5 149.5q186 0 297 -136v109h261v-992h-261v110q-110 -136 -297 -136q-205 0 -342.5 150t-137.5 373zM352 497q0 -117 70.5 -195.5t185.5 -78.5q114 0 185 77.5t71 196.5t-71 196t-185 77q-115 0 -185.5 -78t-70.5 -195zM364 1366
q0 108 78.5 185.5t188.5 77.5q111 0 190 -77.5t79 -185.5q0 -109 -79 -186.5t-190 -77.5q-110 0 -188.5 77.5t-78.5 186.5zM523 1366q0 -47 32.5 -79.5t75.5 -32.5q45 0 77 32.5t32 79.5q0 46 -32.5 78.5t-76.5 32.5q-43 0 -75.5 -33t-32.5 -78z" />
    <glyph glyph-name="ae" unicode="&#xe6;" horiz-adv-x="1788" 
d="M79 291q0 141 111 221t304 80h234q-14 191 -222 191q-138 0 -274 -91l-97 209q79 56 186 87t221 31q235 0 343 -147q61 71 152 109t199 38q213 0 343.5 -144t131.5 -377q0 -52 -5 -90h-704q21 -103 88.5 -154.5t165.5 -51.5q138 0 252 95l157 -172q-167 -151 -427 -151
q-243 0 -384 153q-74 -70 -163.5 -111.5t-220.5 -41.5q-185 0 -288 87t-103 230zM356 301q0 -47 39.5 -79.5t115.5 -32.5q67 0 132 28.5t113 81.5q-19 59 -24 113h-200q-90 0 -133 -31.5t-43 -79.5zM1002 587h442q-19 98 -74.5 149.5t-142.5 51.5q-92 0 -149.5 -51.5
t-75.5 -149.5z" />
    <glyph glyph-name="ccedilla" unicode="&#xe7;" horiz-adv-x="1057" 
d="M79 497q0 227 146.5 374.5t381.5 147.5q124 0 226.5 -49t171.5 -139l-193 -160q-91 99 -212 99q-106 0 -177.5 -76t-71.5 -197q0 -122 71 -198t177 -76q123 0 216 101l191 -163q-111 -142 -293 -177l-99 -313h-258l108 320q-177 42 -281 179t-104 327z" />
    <glyph glyph-name="egrave" unicode="&#xe8;" horiz-adv-x="1140" 
d="M79 494q0 234 139.5 379.5t362.5 145.5q214 0 347.5 -144.5t134.5 -376.5q0 -52 -5 -90h-704q21 -103 88.5 -154.5t166.5 -51.5q137 0 251 95l157 -172q-166 -151 -423 -151q-229 0 -372 143.5t-143 376.5zM226 1457h320l206 -322h-255zM355 590h440q-19 96 -74.5 147
t-141.5 51q-93 0 -149.5 -52t-74.5 -146z" />
    <glyph glyph-name="eacute" unicode="&#xe9;" horiz-adv-x="1140" 
d="M79 494q0 234 139.5 379.5t362.5 145.5q214 0 347.5 -144.5t134.5 -376.5q0 -52 -5 -90h-704q21 -103 88.5 -154.5t166.5 -51.5q137 0 251 95l157 -172q-166 -151 -423 -151q-229 0 -372 143.5t-143 376.5zM355 590h440q-19 96 -74.5 147t-141.5 51q-93 0 -149.5 -52
t-74.5 -146zM399 1135l206 322h320l-271 -322h-255z" />
    <glyph glyph-name="ecircumflex" unicode="&#xea;" horiz-adv-x="1140" 
d="M79 494q0 234 139.5 379.5t362.5 145.5q214 0 347.5 -144.5t134.5 -376.5q0 -52 -5 -90h-704q21 -103 88.5 -154.5t166.5 -51.5q137 0 251 95l157 -172q-166 -151 -423 -151q-229 0 -372 143.5t-143 376.5zM194 1124l223 323h322l224 -323h-260l-125 157l-125 -157h-259z
M355 590h440q-19 96 -74.5 147t-141.5 51q-93 0 -149.5 -52t-74.5 -146z" />
    <glyph glyph-name="edieresis" unicode="&#xeb;" horiz-adv-x="1140" 
d="M79 494q0 234 139.5 379.5t362.5 145.5q214 0 347.5 -144.5t134.5 -376.5q0 -52 -5 -90h-704q21 -103 88.5 -154.5t166.5 -51.5q137 0 251 95l157 -172q-166 -151 -423 -151q-229 0 -372 143.5t-143 376.5zM184 1286q0 72 49 122t121 50t122 -50t50 -122t-50 -121
t-122 -49t-121 49t-49 121zM355 590h440q-19 96 -74.5 147t-141.5 51q-93 0 -149.5 -52t-74.5 -146zM626 1286q0 72 49 122t121 50t122 -50t50 -122t-50 -121t-122 -49t-121 49t-49 121z" />
    <glyph glyph-name="igrave" unicode="&#xec;" horiz-adv-x="547" 
d="M-78 1457h320l205 -322h-254zM140 0v992h268v-992h-268z" />
    <glyph glyph-name="iacute" unicode="&#xed;" horiz-adv-x="547" 
d="M95 1135l206 322h320l-271 -322h-255zM140 0v992h268v-992h-268z" />
    <glyph glyph-name="icircumflex" unicode="&#xee;" horiz-adv-x="547" 
d="M-111 1124l224 323h322l223 -323h-259l-126 157l-125 -157h-259zM140 0v992h268v-992h-268z" />
    <glyph glyph-name="idieresis" unicode="&#xef;" horiz-adv-x="547" 
d="M-120 1286q0 72 49 122t121 50t122 -50t50 -122t-50 -121t-122 -49t-121 49t-49 121zM140 0v992h268v-992h-268zM322 1286q0 72 49 122t121 50t122 -50t50 -122t-50 -121t-122 -49t-121 49t-49 121z" />
    <glyph glyph-name="eth" unicode="&#xf0;" horiz-adv-x="1222" 
d="M79 470q0 213 137.5 354.5t340.5 141.5q147 0 253 -89q-70 132 -215 242l-230 -141l-90 142l162 101q-48 28 -163 79l142 190q143 -58 252 -130l200 124l90 -144l-147 -91q170 -155 252 -350.5t82 -397.5q0 -149 -68.5 -269.5t-190.5 -189t-275 -68.5q-228 0 -380 142
t-152 354zM351 471q0 -113 74.5 -185.5t188.5 -72.5t189.5 72.5t75.5 185.5q0 115 -75 187t-190 72q-114 0 -188.5 -72t-74.5 -187z" />
    <glyph glyph-name="ntilde" unicode="&#xf1;" horiz-adv-x="1210" 
d="M140 0v992h260v-116q97 143 292 143q170 0 278 -107.5t108 -279.5v-632h-267v546q0 107 -51 164.5t-143 57.5q-91 0 -150 -58t-59 -166v-544h-268zM217 1300q105 135 268 135q62 0 115 -18t90.5 -36t61.5 -18q53 0 127 69l142 -153q-105 -135 -269 -135q-61 0 -113.5 18
t-90.5 35.5t-63 17.5q-54 0 -127 -67z" />
    <glyph glyph-name="ograve" unicode="&#xf2;" horiz-adv-x="1229" 
d="M79 497q0 111 40.5 207.5t111 165.5t170 109t213.5 40q232 0 385 -149t153 -373t-153 -373.5t-385 -149.5q-152 0 -274.5 68t-191.5 187.5t-69 267.5zM263 1457h320l205 -322h-254zM351 497q0 -120 74.5 -197t188.5 -77t189.5 77t75.5 197t-75.5 196.5t-189.5 76.5
t-188.5 -76.5t-74.5 -196.5z" />
    <glyph glyph-name="oacute" unicode="&#xf3;" horiz-adv-x="1229" 
d="M79 497q0 111 40.5 207.5t111 165.5t170 109t213.5 40q232 0 385 -149t153 -373t-153 -373.5t-385 -149.5q-152 0 -274.5 68t-191.5 187.5t-69 267.5zM351 497q0 -120 74.5 -197t188.5 -77t189.5 77t75.5 197t-75.5 196.5t-189.5 76.5t-188.5 -76.5t-74.5 -196.5z
M436 1135l206 322h320l-271 -322h-255z" />
    <glyph glyph-name="ocircumflex" unicode="&#xf4;" horiz-adv-x="1229" 
d="M79 497q0 111 40.5 207.5t111 165.5t170 109t213.5 40q232 0 385 -149t153 -373t-153 -373.5t-385 -149.5q-152 0 -274.5 68t-191.5 187.5t-69 267.5zM230 1124l224 323h322l223 -323h-259l-126 157l-125 -157h-259zM351 497q0 -120 74.5 -197t188.5 -77t189.5 77
t75.5 197t-75.5 196.5t-189.5 76.5t-188.5 -76.5t-74.5 -196.5z" />
    <glyph glyph-name="otilde" unicode="&#xf5;" horiz-adv-x="1229" 
d="M79 497q0 111 40.5 207.5t111 165.5t170 109t213.5 40q232 0 385 -149t153 -373t-153 -373.5t-385 -149.5q-152 0 -274.5 68t-191.5 187.5t-69 267.5zM211 1300q105 135 268 135q62 0 115 -18t90 -36t61 -18q53 0 127 69l143 -153q-105 -135 -270 -135q-61 0 -113.5 18
t-90 35.5t-62.5 17.5q-54 0 -127 -67zM351 497q0 -120 74.5 -197t188.5 -77t189.5 77t75.5 197t-75.5 196.5t-189.5 76.5t-188.5 -76.5t-74.5 -196.5z" />
    <glyph glyph-name="odieresis" unicode="&#xf6;" horiz-adv-x="1229" 
d="M79 497q0 111 40.5 207.5t111 165.5t170 109t213.5 40q232 0 385 -149t153 -373t-153 -373.5t-385 -149.5q-152 0 -274.5 68t-191.5 187.5t-69 267.5zM221 1286q0 72 49 122t121 50t122 -50t50 -122t-50 -121t-122 -49t-121 49t-49 121zM351 497q0 -120 74.5 -197
t188.5 -77t189.5 77t75.5 197t-75.5 196.5t-189.5 76.5t-188.5 -76.5t-74.5 -196.5zM663 1286q0 72 49 122t121 50t122 -50t50 -122t-50 -121t-122 -49t-121 49t-49 121z" />
    <glyph glyph-name="divide" unicode="&#xf7;" 
d="M143 441v229h942v-229h-942zM447 196q0 67 50 116.5t118 49.5t117.5 -49.5t49.5 -116.5q0 -68 -50 -118t-117 -50t-117.5 50t-50.5 118zM447 918q0 67 50 116t118 49t117.5 -49t49.5 -116q0 -68 -50 -118t-117 -50t-117.5 50t-50.5 118z" />
    <glyph glyph-name="oslash" unicode="&#xf8;" horiz-adv-x="1229" 
d="M68 99l99 101q-88 130 -88 297q0 224 152.5 373t383.5 149q161 0 292 -79l105 103l152 -151l-100 -100q88 -130 88 -295q0 -224 -153 -373.5t-384 -149.5q-160 0 -290 77l-104 -103zM346 497q0 -56 20 -111l365 366q-56 24 -116 24q-116 0 -192.5 -78.5t-76.5 -200.5z
M501 241q56 -24 114 -24q116 0 193.5 79t77.5 201q0 53 -20 108z" />
    <glyph glyph-name="ugrave" unicode="&#xf9;" horiz-adv-x="1203" 
d="M132 423v569h267v-546q0 -114 55 -168.5t148 -54.5q92 0 147.5 54.5t55.5 168.5v546h266v-569q0 -114 -38 -202t-104 -140.5t-148.5 -79.5t-178.5 -27t-179 27t-149 79.5t-104 140.5t-38 202zM251 1457h319l206 -322h-255z" />
    <glyph glyph-name="uacute" unicode="&#xfa;" horiz-adv-x="1203" 
d="M132 423v569h267v-546q0 -114 55 -168.5t148 -54.5q92 0 147.5 54.5t55.5 168.5v546h266v-569q0 -114 -38 -202t-104 -140.5t-148.5 -79.5t-178.5 -27t-179 27t-149 79.5t-104 140.5t-38 202zM424 1135l206 322h319l-270 -322h-255z" />
    <glyph glyph-name="ucircumflex" unicode="&#xfb;" horiz-adv-x="1203" 
d="M132 423v569h267v-546q0 -114 55 -168.5t148 -54.5q92 0 147.5 54.5t55.5 168.5v546h266v-569q0 -114 -38 -202t-104 -140.5t-148.5 -79.5t-178.5 -27t-179 27t-149 79.5t-104 140.5t-38 202zM218 1124l223 323h323l223 -323h-259l-126 157l-125 -157h-259z" />
    <glyph glyph-name="udieresis" unicode="&#xfc;" horiz-adv-x="1203" 
d="M132 423v569h267v-546q0 -114 55 -168.5t148 -54.5q92 0 147.5 54.5t55.5 168.5v546h266v-569q0 -114 -38 -202t-104 -140.5t-148.5 -79.5t-178.5 -27t-179 27t-149 79.5t-104 140.5t-38 202zM209 1286q0 72 49 122t121 50t122 -50t50 -122t-50 -121t-122 -49t-121 49
t-49 121zM650 1286q0 72 49 122t121 50t122 -50t50 -122t-50 -121t-122 -49t-121 49t-49 121z" />
    <glyph glyph-name="yacute" unicode="&#xfd;" horiz-adv-x="1155" 
d="M13 992h303l273 -510l264 510h293l-759 -1406h-293l347 625zM407 1135l205 322h320l-270 -322h-255z" />
    <glyph glyph-name="thorn" unicode="&#xfe;" horiz-adv-x="1256" 
d="M140 -410v1885h268v-584q109 128 289 128q206 0 344 -149.5t138 -372.5t-138 -373t-343 -150q-181 0 -290 127v-511h-268zM393 497q0 -119 71 -196.5t184 -77.5q116 0 186 78.5t70 195.5t-70 195t-186 78q-113 0 -184 -77t-71 -196z" />
    <glyph glyph-name="ydieresis" unicode="&#xff;" horiz-adv-x="1155" 
d="M13 992h303l273 -510l264 510h293l-759 -1406h-293l347 625zM191 1286q0 72 49 122t121 50t122.5 -50t50.5 -122t-50.5 -121t-122.5 -49t-121 49t-49 121zM633 1286q0 72 49 122t121 50t122 -50t50 -122t-50 -121t-122 -49t-121 49t-49 121z" />
    <glyph glyph-name="OE" unicode="&#x152;" horiz-adv-x="2272" 
d="M94 717q0 324 204 520.5t541 196.5h1295v-263h-777v-317h741v-262h-741v-330h785v-262h-1303q-337 0 -541 196.5t-204 520.5zM392 717q0 -205 115 -327.5t335 -122.5h229v899h-229q-219 0 -334.5 -123t-115.5 -326z" />
    <glyph glyph-name="oe" unicode="&#x153;" horiz-adv-x="1940" 
d="M79 497q0 111 40.5 207.5t111 165.5t170 109t213.5 40q119 0 220 -46.5t171 -130.5q64 85 160.5 131t214.5 46q215 0 348.5 -144.5t134.5 -376.5q0 -52 -5 -90h-704q21 -103 88.5 -154.5t165.5 -51.5q138 0 252 95l157 -172q-167 -151 -427 -151q-122 0 -221 46t-164 131
q-70 -84 -171.5 -130.5t-219.5 -46.5q-152 0 -274.5 68t-191.5 187.5t-69 267.5zM351 497q0 -120 74.5 -197t188.5 -77t189.5 77t75.5 197t-75.5 196.5t-189.5 76.5t-188.5 -76.5t-74.5 -196.5zM1155 590h439q-20 96 -75 147t-141 51q-92 0 -148.5 -51.5t-74.5 -146.5z" />
    <glyph glyph-name="Ydieresis" unicode="&#x178;" horiz-adv-x="1394" 
d="M6 1434h336l360 -609l361 609h326l-545 -869v-565h-286v566zM310 1706q0 72 49 122t121 50t122 -50t50 -122t-50 -121t-122 -49t-121 49t-49 121zM752 1706q0 72 49 122t121 50t122 -50t50 -122t-50 -121t-122 -49t-121 49t-49 121z" />
    <glyph glyph-name="circumflex" unicode="&#x2c6;" horiz-adv-x="1094" 
d="M165 1124l223 323h323l222 -323h-258l-126 157l-125 -157h-259z" />
    <glyph glyph-name="tilde" unicode="&#x2dc;" horiz-adv-x="1094" 
d="M146 1300q105 135 269 135q62 0 115 -18t90 -36t61 -18q53 0 127 69l142 -153q-105 -135 -269 -135q-61 0 -113.5 18t-90 35.5t-62.5 17.5q-54 0 -127 -67z" />
    <glyph glyph-name="uni2000" unicode="&#x2000;" horiz-adv-x="1024" 
 />
    <glyph glyph-name="uni2001" unicode="&#x2001;" horiz-adv-x="2049" 
 />
    <glyph glyph-name="uni2002" unicode="&#x2002;" horiz-adv-x="1024" 
 />
    <glyph glyph-name="uni2003" unicode="&#x2003;" horiz-adv-x="2049" 
 />
    <glyph glyph-name="uni2004" unicode="&#x2004;" horiz-adv-x="683" 
 />
    <glyph glyph-name="uni2005" unicode="&#x2005;" horiz-adv-x="512" 
 />
    <glyph glyph-name="uni2006" unicode="&#x2006;" horiz-adv-x="341" 
 />
    <glyph glyph-name="uni2007" unicode="&#x2007;" horiz-adv-x="341" 
 />
    <glyph glyph-name="uni2008" unicode="&#x2008;" horiz-adv-x="256" 
 />
    <glyph glyph-name="uni2009" unicode="&#x2009;" horiz-adv-x="409" 
 />
    <glyph glyph-name="uni200A" unicode="&#x200a;" horiz-adv-x="113" 
 />
    <glyph glyph-name="uni2010" unicode="&#x2010;" horiz-adv-x="832" 
d="M114 428v234h605v-234h-605z" />
    <glyph glyph-name="uni2011" unicode="&#x2011;" horiz-adv-x="832" 
d="M114 428v234h605v-234h-605z" />
    <glyph glyph-name="figuredash" unicode="&#x2012;" horiz-adv-x="832" 
d="M114 428v234h605v-234h-605z" />
    <glyph glyph-name="endash" unicode="&#x2013;" horiz-adv-x="1185" 
d="M97 431v228h992v-228h-992z" />
    <glyph glyph-name="emdash" unicode="&#x2014;" horiz-adv-x="1634" 
d="M49 431v228h1536v-228h-1536z" />
    <glyph glyph-name="quoteleft" unicode="&#x2018;" horiz-adv-x="546" 
d="M92 864l144 611h225l-69 -611h-300z" />
    <glyph glyph-name="quoteright" unicode="&#x2019;" horiz-adv-x="546" 
d="M86 864l69 611h300l-144 -611h-225z" />
    <glyph glyph-name="quotesinglbase" unicode="&#x201a;" horiz-adv-x="546" 
d="M86 -287l69 611h300l-144 -611h-225z" />
    <glyph glyph-name="quotedblleft" unicode="&#x201c;" horiz-adv-x="991" 
d="M92 864l144 611h225l-69 -611h-300zM537 864l143 611h225l-68 -611h-300z" />
    <glyph glyph-name="quotedblright" unicode="&#x201d;" horiz-adv-x="990" 
d="M86 864l69 611h300l-144 -611h-225zM529 864l69 611h300l-143 -611h-226z" />
    <glyph glyph-name="quotedblbase" unicode="&#x201e;" horiz-adv-x="990" 
d="M86 -287l69 611h300l-144 -611h-225zM529 -287l69 611h300l-143 -611h-226z" />
    <glyph glyph-name="bullet" unicode="&#x2022;" horiz-adv-x="904" 
d="M128 545q0 135 95 229.5t230 94.5q134 0 229 -94.5t95 -229.5t-95 -230t-229 -95q-135 0 -230 95t-95 230z" />
    <glyph glyph-name="ellipsis" unicode="&#x2026;" horiz-adv-x="1700" 
d="M85 174q0 79 60 138.5t140 59.5q79 0 138 -59.5t59 -138.5q0 -81 -59 -140.5t-138 -59.5q-80 0 -140 59.5t-60 140.5zM651 174q0 79 60 138.5t140 59.5q79 0 138.5 -59.5t59.5 -138.5q0 -81 -59.5 -140.5t-138.5 -59.5q-80 0 -140 59.5t-60 140.5zM1219 174q0 80 59 139
t140 59q79 0 138.5 -59.5t59.5 -138.5q0 -81 -59.5 -140.5t-138.5 -59.5q-81 0 -140 59.5t-59 140.5z" />
    <glyph glyph-name="uni202F" unicode="&#x202f;" horiz-adv-x="409" 
 />
    <glyph glyph-name="guilsinglleft" unicode="&#x2039;" horiz-adv-x="653" 
d="M90 545l198 399h269l-198 -399l198 -400h-269z" />
    <glyph glyph-name="guilsinglright" unicode="&#x203a;" horiz-adv-x="653" 
d="M96 146l198 400l-198 399h270l197 -399l-197 -400h-270z" />
    <glyph glyph-name="uni205F" unicode="&#x205f;" horiz-adv-x="512" 
 />
    <glyph glyph-name="Euro" unicode="&#x20ac;" horiz-adv-x="1433" 
d="M77 459v189h147q-2 23 -2 69q0 45 2 68h-147v190h178q63 227 232 355.5t407 128.5q277 0 465 -194l-158 -203q-129 146 -310 146q-117 0 -206 -61.5t-137 -171.5h520v-190h-565q-3 -35 -3 -68q0 -36 3 -69h565v-189h-519q49 -112 138 -173t205 -61q180 0 311 146
l152 -199q-188 -198 -461 -198q-238 0 -407 129t-232 356h-178z" />
    <glyph glyph-name="trademark" unicode="&#x2122;" horiz-adv-x="1658" 
d="M66 1268v166h599v-166h-209v-497h-182v497h-208zM777 771v663h255l154 -398l152 398h255v-663h-182v429l-134 -367h-182l-138 368v-430h-180z" />
    <glyph glyph-name="uni25FC" unicode="&#x25fc;" horiz-adv-x="993" 
d="M0 0v993h993v-993h-993z" />
    <glyph glyph-name="uniFB01" unicode="&#xfb01;" horiz-adv-x="1417" 
d="M42 755v237h185v123q0 177 93 281t263 104t305 -89l-107 -208q-87 48 -170 48q-116 0 -116 -139v-120h308v-237h-308v-755h-268v755h-185zM972 1317q0 72 49 122t121 50t121.5 -50t49.5 -122t-49.5 -121t-121.5 -49t-121 49t-49 121zM1010 0v992h267v-992h-267z" />
    <glyph glyph-name="uniFB02" unicode="&#xfb02;" horiz-adv-x="1417" 
d="M42 755v237h185v123q0 177 93 281t263 104t305 -89l-107 -208q-87 48 -170 48q-116 0 -116 -139v-120h308v-237h-308v-755h-268v755h-185zM1010 0v1475h267v-1475h-267z" />
    <glyph glyph-name="uniFB03" unicode="&#xfb03;" horiz-adv-x="2263" 
d="M42 755v237h185v123q0 177 93 281t263 104t305 -89l-107 -208q-87 48 -170 48q-116 0 -116 -139v-120h308v-237h-308v-755h-268v755h-185zM888 755v237h185v123q0 177 92.5 281t262.5 104q171 0 306 -89l-107 -208q-87 48 -170 48q-117 0 -117 -139v-120h309v-237h-309
v-755h-267v755h-185zM1818 1317q0 72 49 122t121 50t121.5 -50t49.5 -122t-49.5 -121t-121.5 -49t-121 49t-49 121zM1855 0v992h268v-992h-268z" />
    <glyph glyph-name="uniFB04" unicode="&#xfb04;" horiz-adv-x="2263" 
d="M42 755v237h185v123q0 177 93 281t263 104t305 -89l-107 -208q-87 48 -170 48q-116 0 -116 -139v-120h308v-237h-308v-755h-268v755h-185zM888 755v237h185v123q0 177 92.5 281t262.5 104q171 0 306 -89l-107 -208q-87 48 -170 48q-117 0 -117 -139v-120h309v-237h-309
v-755h-267v755h-185zM1855 0v1475h268v-1475h-268z" />
    </font>
</defs>
</svg>
