<?xml version="1.0" encoding="UTF-8"?>
<svg width="68px" height="17px" viewBox="0 0 68 17" version="1.1" xmlns="http://www.w3.org/2000/svg" xmlns:xlink="http://www.w3.org/1999/xlink">
    <!-- Generator: Sketch 52.6 (67491) - http://www.bohemiancoding.com/sketch -->
    <title>Group 20 Copy</title>
    <desc>Created with Sketch.</desc>
    <g id="General-Journal-NEW" stroke="none" stroke-width="1" fill="none" fill-rule="evenodd">
        <g id="Group-20-Copy">
            <rect id="Rectangle" fill="#19253E" fill-rule="nonzero" x="0" y="0" width="68" height="17" rx="8.5"></rect>
            <path d="M10,5.14 L11.38,5.14 L11.38,12.14 L10,12.14 L10,5.14 Z M16.73,5.14 L18.11,5.14 L18.11,12.14 L17.06,12.14 L14.06,7.86 L14.06,12.14 L12.68,12.14 L12.68,5.14 L13.73,5.14 L16.73,9.41 L16.73,5.14 Z M22.73,12.28 C21.6766614,12.28 20.8066701,11.9300035 20.12,11.23 C19.4333299,10.5299965 19.09,9.6666718 19.09,8.64 C19.09,7.6066615 19.4333299,6.74167015 20.12,6.045 C20.8066701,5.34832985 21.6766614,5 22.73,5 C23.3633365,5 23.9483307,5.14833185 24.485,5.445 C25.0216694,5.74166815 25.4399985,6.1433308 25.74,6.65 L24.55,7.34 C24.3766658,7.0266651 24.1300016,6.78166755 23.81,6.605 C23.4899984,6.42833245 23.130002,6.34 22.73,6.34 C22.0499966,6.34 21.5016688,6.5533312 21.085,6.98 C20.6683312,7.4066688 20.46,7.9599966 20.46,8.64 C20.46,9.3133367 20.6683312,9.8633312 21.085,10.29 C21.5016688,10.7166688 22.0499966,10.93 22.73,10.93 C23.130002,10.93 23.491665,10.8416676 23.815,10.665 C24.1383349,10.4883325 24.3833325,10.2466682 24.55,9.94 L25.74,10.63 C25.4399985,11.1366692 25.023336,11.5383319 24.49,11.835 C23.956664,12.1316681 23.3700032,12.28 22.73,12.28 Z M27.97,10.82 L30.64,10.82 L30.64,12.14 L26.59,12.14 L26.59,5.14 L27.97,5.14 L27.97,10.82 Z M33.92,12.28 C33.1399961,12.28 32.5000025,12.0600022 32,11.62 C31.4999975,11.1799978 31.25,10.5900037 31.25,9.85 L31.25,5.14 L32.62,5.14 L32.62,9.74 C32.62,10.1066685 32.724999,10.3966656 32.935,10.61 C33.145001,10.8233344 33.4733311,10.93 33.92,10.93 C34.3666689,10.93 34.6949989,10.8233344 34.905,10.61 C35.1150011,10.3966656 35.22,10.1066685 35.22,9.74 L35.22,5.14 L36.6,5.14 L36.6,9.85 C36.6,10.5900037 36.3500025,11.1799978 35.85,11.62 C35.3499975,12.0600022 34.7066706,12.28 33.92,12.28 Z M40.23,12.28 C39.5366632,12.28 38.9533357,12.1250016 38.48,11.815 C38.0066643,11.5049985 37.6733343,11.083336 37.48,10.55 L38.66,9.86 C38.9333347,10.5733369 39.469996,10.93 40.27,10.93 C40.6566686,10.93 40.9399991,10.8600007 41.12,10.72 C41.3000009,10.5799993 41.39,10.4033344 41.39,10.19 C41.39,9.9433321 41.2800011,9.75166735 41.06,9.615 C40.8399989,9.47833265 40.4466695,9.3300008 39.88,9.17 C39.5666651,9.0766662 39.3016677,8.9833338 39.085,8.89 C38.8683323,8.7966662 38.6516677,8.67166745 38.435,8.515 C38.2183323,8.35833255 38.0533339,8.1600012 37.94,7.92 C37.8266661,7.6799988 37.77,7.4000016 37.77,7.08 C37.77,6.4466635 37.9949978,5.94166855 38.445,5.565 C38.8950022,5.18833145 39.4366635,5 40.07,5 C40.6366695,5 41.1349978,5.13833195 41.565,5.415 C41.9950021,5.69166805 42.3299988,6.0766642 42.57,6.57 L41.41,7.24 C41.1299986,6.639997 40.6833364,6.34 40.07,6.34 C39.7833319,6.34 39.5583342,6.40499935 39.395,6.535 C39.2316658,6.66500065 39.15,6.8333323 39.15,7.04 C39.15,7.2600011 39.2416657,7.43833265 39.425,7.575 C39.6083343,7.71166735 39.9599974,7.8599992 40.48,8.02 C40.6933344,8.086667 40.8549994,8.13833315 40.965,8.175 C41.0750005,8.21166685 41.224999,8.26833295 41.415,8.345 C41.6050009,8.42166705 41.7516661,8.493333 41.855,8.56 C41.9583338,8.626667 42.076666,8.7166661 42.21,8.83 C42.343334,8.9433339 42.4449996,9.0599994 42.515,9.18 C42.5850003,9.3000006 42.6449997,9.44499915 42.695,9.615 C42.7450002,9.78500085 42.77,9.969999 42.77,10.17 C42.77,10.8166699 42.5350024,11.3299981 42.065,11.71 C41.5949977,12.0900019 40.9833371,12.28 40.23,12.28 Z M43.62,5.14 L45,5.14 L45,12.14 L43.62,12.14 L43.62,5.14 Z M48.03,12.14 L45.68,5.14 L47.18,5.14 L48.89,10.52 L50.59,5.14 L52.1,5.14 L49.74,12.14 L48.03,12.14 Z M54.15,10.82 L57.1,10.82 L57.1,12.14 L52.77,12.14 L52.77,5.14 L57.05,5.14 L57.05,6.46 L54.15,6.46 L54.15,7.95 L56.8,7.95 L56.8,9.25 L54.15,9.25 L54.15,10.82 Z" id="Inclusive" fill="#FFFFFF"></path>
        </g>
    </g>
</svg>