<?xml version="1.0" encoding="UTF-8"?>
<svg width="220px" height="39px" viewBox="0 0 220 39" version="1.1" xmlns="http://www.w3.org/2000/svg" xmlns:xlink="http://www.w3.org/1999/xlink">
    <!-- Generator: Sketch 49 (51002) - http://www.bohemiancoding.com/sketch -->
    <title>Page 1</title>
    <desc>Created with Sketch.</desc>
    <defs>
        <linearGradient x1="0%" y1="17.8894662%" x2="98.0000019%" y2="66.0281301%" id="linearGradient-1">
            <stop stop-color="#00CFAD" offset="0%"></stop>
            <stop stop-color="#21B7D0" offset="34%"></stop>
            <stop stop-color="#2FACDF" offset="48%"></stop>
            <stop stop-color="#2EA5E1" offset="60%"></stop>
            <stop stop-color="#2C90E7" offset="77%"></stop>
            <stop stop-color="#276FF1" offset="98%"></stop>
            <stop stop-color="#276CF2" offset="100%"></stop>
        </linearGradient>
    </defs>
    <g id="Admin" stroke="none" stroke-width="1" fill="none" fill-rule="evenodd">
        <g id="1.0-Dashboard-Copy" transform="translate(-30.000000, -22.000000)">
            <g id="Page-1" transform="translate(30.000000, 22.000000)">
                <path d="M28.5433731,17.7482469 L21.8982,10.5609 C20.5554,8.7957 18.6456,8.3607 16.8498,9.7929 C15.4686,10.8933 14.8656,13.0911 14.3874,14.6937 C13.7268,16.9077 13.2996,19.1805 12.915,21.4581 L8.547,16.8141 C7.797,15.5475 6.5952,14.8173 5.1012,15.1077 C3.7092,15.3801 3.0384,16.8177 2.5518,17.9799 C1.9824,19.3395 1.7088,20.8245 1.4142,22.2627 C1.0248,24.1617 0.7662,26.0757 0.3096,27.9597 C0.0444,27.2397 0,26.5053 0,25.8183 L0,13.1703 C0,10.9635 1.452,8.2509 3.3624,7.1433 L14.1462,0.8307 C16.0566,-0.2769 19.1742,-0.2769 21.0846,0.8307 L31.9626,7.1433 C33.8736,8.2509 35.4,10.9635 35.4,13.1703 L35.4,25.1636658 L35.40042,25.81872 C35.40042,28.02672 33.87342,30.73872 31.96242,31.84692 L23.72742,36.63912 C24.36342,33.92412 24.56982,31.06632 24.67002,28.37532 C24.83862,23.84232 24.56082,19.15872 23.53842,14.72772 C23.21622,13.32672 22.78122,11.72112 21.89802,10.56132 L28.5433731,17.7482469 Z M19.96908,21.25236 C20.16168,23.57196 20.21268,25.90476 20.13828,28.23036 C20.10168,29.37516 20.02668,30.51876 19.91448,31.65816 C19.88688,31.93656 19.85628,32.21436 19.82328,32.49156 C19.81008,32.60676 19.79568,32.72136 19.78128,32.83656 C19.78008,32.83836 19.78008,32.84016 19.78008,32.84256 C19.70568,33.37056 19.61748,33.89736 19.51848,34.42176 C19.33608,35.39616 19.10208,36.36216 18.80628,37.30776 C18.68148,37.70436 18.53988,38.09496 18.38628,38.48136 C18.35148,38.55876 18.31668,38.63556 18.28008,38.71296 C18.23868,38.79996 18.19488,38.88576 18.15108,38.97216 C16.72428,39.05976 15.24288,38.78976 14.15568,38.15976 L3.68388,32.09136 C3.69288,32.06976 3.70248,32.04696 3.71148,32.02476 C4.90548,29.11356 5.23488,25.93836 5.87328,22.85916 C5.98728,23.30256 6.09828,23.74596 6.20748,24.18996 C6.77988,26.51916 7.27248,28.87896 7.99608,31.16736 C8.61288,33.11916 9.88968,36.39336 12.60408,35.51856 C14.02608,35.06016 14.66328,33.79776 15.17628,32.50836 C15.74448,31.07976 16.05288,29.53836 16.35348,28.03596 C16.94688,25.07136 17.32548,22.06956 17.95728,19.11216 C18.23508,17.81196 18.55488,16.51836 18.96048,15.25236 C18.96948,15.22416 18.98028,15.19716 18.98868,15.16896 C19.05708,15.42336 19.12248,15.67836 19.18188,15.93396 C19.39068,16.82196 19.54908,17.72196 19.68348,18.62436 C19.69788,18.72096 19.71108,18.81696 19.72548,18.91296 C19.75668,19.16136 19.78608,19.40856 19.81428,19.65696 C19.87488,20.18796 19.92468,20.71956 19.96908,21.25236 Z M10.58232,22.98378 C10.08012,20.93418 9.62712,18.65058 8.53992,16.81398 L12.91152,21.45798 C12.76632,22.31838 12.62712,23.17938 12.48432,24.03798 C12.27252,25.31538 12.04692,26.59638 11.76732,27.86418 C11.34012,26.24538 10.98012,24.60678 10.58232,22.98378 Z" id="Combined-Shape" fill="url(#linearGradient-1)"></path>
                <path d="M58.896,25.8 L56.448,25.8 L56.448,16.854 L52.776,25.8 L50.706,25.8 L47.034,16.926 L47.034,25.8 L44.658,25.8 L44.658,13.038 L47.934,13.038 L51.768,22.254 L55.512,13.038 L58.896,13.038 L58.896,25.8 Z M61.092,23.388 C61.092,21.804 62.262,20.922 63.738,20.706 L65.916,20.382 C66.42,20.31 66.582,20.058 66.582,19.752 C66.582,19.122 66.096,18.6 65.088,18.6 C64.044,18.6 63.468,19.266 63.396,20.04 L61.272,19.59 C61.416,18.204 62.694,16.674 65.07,16.674 C67.878,16.674 68.922,18.258 68.922,20.04 L68.922,24.396 C68.922,24.864 68.976,25.494 69.03,25.8 L66.834,25.8 C66.78,25.566 66.744,25.08 66.744,24.738 C66.294,25.44 65.448,26.052 64.134,26.052 C62.244,26.052 61.092,24.774 61.092,23.388 Z M64.638,24.27 C65.646,24.27 66.582,23.784 66.582,22.218 L66.582,21.822 L64.584,22.128 C63.972,22.218 63.486,22.56 63.486,23.244 C63.486,23.766 63.864,24.27 64.638,24.27 Z M73.728,20.706 L73.728,25.8 L71.334,25.8 L71.334,16.944 L73.656,16.944 L73.656,18.042 C74.196,17.124 75.258,16.71 76.212,16.71 C78.408,16.71 79.416,18.276 79.416,20.22 L79.416,25.8 L77.022,25.8 L77.022,20.634 C77.022,19.644 76.536,18.87 75.384,18.87 C74.34,18.87 73.728,19.68 73.728,20.706 Z M81.306,23.388 C81.306,21.804 82.476,20.922 83.952,20.706 L86.13,20.382 C86.634,20.31 86.796,20.058 86.796,19.752 C86.796,19.122 86.31,18.6 85.302,18.6 C84.258,18.6 83.682,19.266 83.61,20.04 L81.486,19.59 C81.63,18.204 82.908,16.674 85.284,16.674 C88.092,16.674 89.136,18.258 89.136,20.04 L89.136,24.396 C89.136,24.864 89.19,25.494 89.244,25.8 L87.048,25.8 C86.994,25.566 86.958,25.08 86.958,24.738 C86.508,25.44 85.662,26.052 84.348,26.052 C82.458,26.052 81.306,24.774 81.306,23.388 Z M84.852,24.27 C85.86,24.27 86.796,23.784 86.796,22.218 L86.796,21.822 L84.798,22.128 C84.186,22.218 83.7,22.56 83.7,23.244 C83.7,23.766 84.078,24.27 84.852,24.27 Z M90.918,26.286 L93.078,25.71 C93.24,26.682 94.014,27.384 95.148,27.384 C96.66,27.384 97.506,26.628 97.506,24.918 L97.506,24.27 C97.146,24.846 96.318,25.404 95.04,25.404 C92.682,25.404 90.918,23.586 90.918,21.102 C90.918,18.762 92.61,16.782 95.04,16.782 C96.444,16.782 97.254,17.394 97.56,17.988 L97.56,16.944 L99.864,16.944 L99.864,24.846 C99.864,27.276 98.55,29.49 95.22,29.49 C92.79,29.49 91.17,27.978 90.918,26.286 Z M95.454,23.352 C96.678,23.352 97.542,22.47 97.542,21.102 C97.542,19.734 96.606,18.87 95.454,18.87 C94.266,18.87 93.33,19.734 93.33,21.102 C93.33,22.488 94.212,23.352 95.454,23.352 Z M104.04,20.364 L108,20.364 C107.964,19.482 107.388,18.618 106.02,18.618 C104.778,18.618 104.094,19.554 104.04,20.364 Z M108.234,22.668 L110.232,23.262 C109.782,24.792 108.378,26.07 106.2,26.07 C103.77,26.07 101.628,24.324 101.628,21.336 C101.628,18.51 103.716,16.674 105.984,16.674 C108.72,16.674 110.358,18.42 110.358,21.264 C110.358,21.606 110.322,21.966 110.322,22.002 L103.986,22.002 C104.04,23.172 105.03,24.018 106.218,24.018 C107.334,24.018 107.946,23.46 108.234,22.668 Z M114.642,25.8 L112.248,25.8 L112.248,16.944 L114.534,16.944 L114.534,18.024 C115.02,17.16 116.154,16.692 117.126,16.692 C118.332,16.692 119.304,17.214 119.754,18.168 C120.456,17.088 121.392,16.692 122.562,16.692 C124.2,16.692 125.766,17.682 125.766,20.058 L125.766,25.8 L123.444,25.8 L123.444,20.544 C123.444,19.59 122.976,18.87 121.878,18.87 C120.852,18.87 120.24,19.662 120.24,20.616 L120.24,25.8 L117.864,25.8 L117.864,20.544 C117.864,19.59 117.378,18.87 116.298,18.87 C115.254,18.87 114.642,19.644 114.642,20.616 L114.642,25.8 Z M129.942,20.364 L133.902,20.364 C133.866,19.482 133.29,18.618 131.922,18.618 C130.68,18.618 129.996,19.554 129.942,20.364 Z M134.136,22.668 L136.134,23.262 C135.684,24.792 134.28,26.07 132.102,26.07 C129.672,26.07 127.53,24.324 127.53,21.336 C127.53,18.51 129.618,16.674 131.886,16.674 C134.622,16.674 136.26,18.42 136.26,21.264 C136.26,21.606 136.224,21.966 136.224,22.002 L129.888,22.002 C129.942,23.172 130.932,24.018 132.12,24.018 C133.236,24.018 133.848,23.46 134.136,22.668 Z M140.544,20.706 L140.544,25.8 L138.15,25.8 L138.15,16.944 L140.472,16.944 L140.472,18.042 C141.012,17.124 142.074,16.71 143.028,16.71 C145.224,16.71 146.232,18.276 146.232,20.22 L146.232,25.8 L143.838,25.8 L143.838,20.634 C143.838,19.644 143.352,18.87 142.2,18.87 C141.156,18.87 140.544,19.68 140.544,20.706 Z M151.614,14.298 L151.614,16.944 L153.396,16.944 L153.396,19.068 L151.614,19.068 L151.614,22.776 C151.614,23.55 151.974,23.802 152.658,23.802 C152.946,23.802 153.27,23.766 153.396,23.73 L153.396,25.71 C153.18,25.8 152.748,25.926 152.046,25.926 C150.318,25.926 149.238,24.9 149.238,23.19 L149.238,19.068 L147.636,19.068 L147.636,16.944 L148.086,16.944 C149.022,16.944 149.454,16.332 149.454,15.54 L149.454,14.298 L151.614,14.298 Z M168.588,16.08 L166.356,16.764 C166.23,16.062 165.654,14.964 164.034,14.964 C162.828,14.964 162.036,15.738 162.036,16.584 C162.036,17.286 162.486,17.844 163.422,18.024 L165.204,18.366 C167.526,18.816 168.768,20.328 168.768,22.128 C168.768,24.09 167.13,26.07 164.16,26.07 C160.776,26.07 159.282,23.892 159.084,22.074 L161.388,21.462 C161.496,22.722 162.378,23.856 164.178,23.856 C165.51,23.856 166.248,23.19 166.248,22.29 C166.248,21.552 165.69,20.976 164.7,20.778 L162.918,20.418 C160.884,20.004 159.57,18.69 159.57,16.764 C159.57,14.496 161.604,12.768 164.016,12.768 C167.112,12.768 168.3,14.64 168.588,16.08 Z M173.754,29.292 L171.216,29.292 L173.304,24.684 L169.542,16.944 L172.224,16.944 L174.582,22.128 L176.76,16.944 L179.316,16.944 L173.754,29.292 Z M180.018,23.334 L182.07,22.884 C182.124,23.586 182.646,24.234 183.69,24.234 C184.482,24.234 184.86,23.82 184.86,23.352 C184.86,22.956 184.59,22.632 183.906,22.488 L182.736,22.218 C181.026,21.84 180.252,20.814 180.252,19.572 C180.252,17.988 181.656,16.674 183.564,16.674 C186.084,16.674 186.93,18.276 187.038,19.23 L185.04,19.68 C184.968,19.158 184.59,18.492 183.582,18.492 C182.952,18.492 182.448,18.87 182.448,19.374 C182.448,19.806 182.772,20.076 183.258,20.166 L184.518,20.436 C186.264,20.796 187.146,21.858 187.146,23.154 C187.146,24.594 186.03,26.07 183.708,26.07 C181.044,26.07 180.126,24.342 180.018,23.334 Z M192.024,14.298 L192.024,16.944 L193.806,16.944 L193.806,19.068 L192.024,19.068 L192.024,22.776 C192.024,23.55 192.384,23.802 193.068,23.802 C193.356,23.802 193.68,23.766 193.806,23.73 L193.806,25.71 C193.59,25.8 193.158,25.926 192.456,25.926 C190.728,25.926 189.648,24.9 189.648,23.19 L189.648,19.068 L188.046,19.068 L188.046,16.944 L188.496,16.944 C189.432,16.944 189.864,16.332 189.864,15.54 L189.864,14.298 L192.024,14.298 Z M197.532,20.364 L201.492,20.364 C201.456,19.482 200.88,18.618 199.512,18.618 C198.27,18.618 197.586,19.554 197.532,20.364 Z M201.726,22.668 L203.724,23.262 C203.274,24.792 201.87,26.07 199.692,26.07 C197.262,26.07 195.12,24.324 195.12,21.336 C195.12,18.51 197.208,16.674 199.476,16.674 C202.212,16.674 203.85,18.42 203.85,21.264 C203.85,21.606 203.814,21.966 203.814,22.002 L197.478,22.002 C197.532,23.172 198.522,24.018 199.71,24.018 C200.826,24.018 201.438,23.46 201.726,22.668 Z M208.134,25.8 L205.74,25.8 L205.74,16.944 L208.026,16.944 L208.026,18.024 C208.512,17.16 209.646,16.692 210.618,16.692 C211.824,16.692 212.796,17.214 213.246,18.168 C213.948,17.088 214.884,16.692 216.054,16.692 C217.692,16.692 219.258,17.682 219.258,20.058 L219.258,25.8 L216.936,25.8 L216.936,20.544 C216.936,19.59 216.468,18.87 215.37,18.87 C214.344,18.87 213.732,19.662 213.732,20.616 L213.732,25.8 L211.356,25.8 L211.356,20.544 C211.356,19.59 210.87,18.87 209.79,18.87 C208.746,18.87 208.134,19.644 208.134,20.616 L208.134,25.8 Z" id="Management-System" fill="#6E6E6E"></path>
            </g>
        </g>
    </g>
</svg>