<?xml version="1.0" encoding="UTF-8"?>
<svg width="133px" height="26px" viewBox="0 0 133 26" version="1.1" xmlns="http://www.w3.org/2000/svg" xmlns:xlink="http://www.w3.org/1999/xlink">
    <!-- Generator: Sketch 43.2 (39069) - http://www.bohemiancoding.com/sketch -->
    <title>logo</title>
    <desc>Created with Sketch.</desc>
    <defs>
        <linearGradient x1="-1.16510996e-14%" y1="49.9990277%" x2="100.024536%" y2="49.9990277%" id="linearGradient-1">
            <stop stop-color="#00CFAD" offset="0%"></stop>
            <stop stop-color="#21B7D0" offset="34%"></stop>
            <stop stop-color="#2FACDF" offset="48%"></stop>
            <stop stop-color="#2EA5E1" offset="60%"></stop>
            <stop stop-color="#2C90E7" offset="77%"></stop>
            <stop stop-color="#276FF1" offset="98%"></stop>
            <stop stop-color="#276CF2" offset="100%"></stop>
        </linearGradient>
    </defs>
    <g id="User-Interface" stroke="none" stroke-width="1" fill="none" fill-rule="evenodd">
        <g id="Sign-Up-Step-1" transform="translate(-215.000000, -125.000000)">
            <g id="Group-2" transform="translate(215.000000, 125.000000)">
                <g id="logo">
                    <path d="M46.1043867,10.7238574 L48.5902744,10.7238574 L48.5902744,22.0694422 C48.5902744,23.9957264 47.4125959,25.3716437 45.4836399,25.3716437 C45.0052649,25.3891525 44.5274098,25.3251552 44.0710059,25.1824551 L44.0710059,23.1501106 C44.3185609,23.1892516 44.5686959,23.2103295 44.8193829,23.2131734 C45.7621057,23.2131734 46.1043867,22.7258694 46.1043867,21.8802535 L46.1043867,10.7238574 Z M47.3255754,5.47243962 C47.9804723,5.46780968 48.5736538,5.85363591 48.8283363,6.44988834 C49.0830188,7.04614077 48.9490053,7.73530067 48.4888278,8.19579988 C48.0286504,8.65629908 47.3330078,8.79737521 46.7264932,8.55320089 C46.1199785,8.30902657 45.7221332,7.72772748 45.7185954,7.08054297 C45.7185261,6.20018942 46.4347904,5.48342442 47.3255754,5.47243962 Z" id="Shape" fill="#888B94"></path>
                    <path d="M54.3088959,21.5508261 C51.8230082,21.5508261 50.3668639,19.7306021 50.3668639,17.4431396 L50.3668639,10.9447968 L52.8527516,10.9447968 L52.8527516,16.998833 C52.8527516,18.26869 53.4531936,19.3493584 54.9528481,19.3493584 C56.3886876,19.3493584 57.1370645,18.3976822 57.1370645,17.0418304 L57.1370645,10.9447968 L59.6287536,10.9447968 L59.6287536,19.3694238 C59.6287377,19.998679 59.6645695,20.6274361 59.736079,21.2527107 L57.3575166,21.2527107 C57.2995012,20.8732035 57.2704126,20.4899261 57.2704961,20.1061129 C56.7512733,21.0434566 55.5300846,21.5508261 54.3088959,21.5508261 Z" id="Shape" fill="#888B94"></path>
                    <path d="M62.7702468,18.1912947 C62.8572673,19.1229053 63.562134,19.9484557 64.8906481,19.9484557 C65.9174908,19.9484557 66.4541177,19.3980888 66.4541177,18.761727 C66.4541177,18.2113601 66.0683265,17.787119 65.232929,17.6151293 L63.6897641,17.2768829 C61.8478287,16.8755738 60.884801,15.6888451 60.884801,14.2699303 C60.884801,12.4697718 62.555596,10.9447968 64.7195076,10.9447968 C67.6201934,10.9447968 68.574519,12.8080182 68.7456595,13.8112912 L66.6426623,14.4218545 C66.5585424,13.8284902 66.1060354,12.876814 64.7137062,12.876814 C63.8435005,12.876814 63.2140517,13.427181 63.2140517,14.0635427 C63.2140517,14.6139097 63.6201477,15.0152189 64.2640999,15.1442111 L65.8478744,15.462392 C67.81744,15.8866332 68.8471834,17.0704953 68.8471834,18.5954704 C68.8471834,20.1204454 67.567981,21.8948054 64.9022508,21.8948054 C61.8826369,21.8948054 60.7252632,19.9484557 60.5976331,18.7817925 L62.7702468,18.1912947 Z" id="Shape" fill="#888B94"></path>
                    <path d="M73.6315728,10.9708559 L75.7954843,10.9708559 L75.7954843,13.1522581 L73.6315728,13.1522581 L73.6315728,17.9364373 C73.6315728,18.8479825 74.0376688,19.2292262 74.9600868,19.2292262 C75.2520552,19.2242633 75.5431113,19.1955007 75.8302926,19.1432314 L75.8302926,21.1755759 C75.34421,21.3517224 74.8275491,21.4306465 74.3103332,21.407762 C72.3813772,21.407762 71.1833939,20.2611642 71.1833939,18.3377465 L71.1833939,13.1522581 L69.2544379,13.1522581 L69.2544379,10.9708559 L69.7794621,10.9708559 C70.8933253,10.9708559 71.386442,10.2714312 71.386442,9.36275249 L71.386442,7.817712 L73.6344734,7.817712 L73.6315728,10.9708559 Z" id="Shape" fill="#888B94"></path>
                    <path d="M91.5132431,19.6951619 C91.5136155,20.3244061 91.5494461,20.9531418 91.6205685,21.5784487 L89.2420062,21.5784487 C89.1771092,21.1369021 89.1412589,20.6916611 89.1346808,20.2455288 C88.6415642,21.1054771 87.5509063,21.8335666 86.0715566,21.8335666 C83.0722475,21.8335666 81.0591716,19.5059732 81.0591716,16.3872273 C81.0591716,13.4232721 83.0896516,10.9896184 86.0280463,10.9896184 C87.849677,10.9896184 88.7691943,11.8151687 89.0911705,12.471596 L89.0911705,6.2541696 L91.5103424,6.2541696 L91.5132431,19.6951619 Z M86.3500224,19.6750964 C87.9773072,19.6750964 89.114376,18.3421765 89.114376,16.3728948 C89.114376,14.4036132 88.0005127,13.1767536 86.3732279,13.1767536 C84.7459432,13.1767536 83.5450593,14.4265452 83.5450593,16.3958268 C83.5450593,18.3651085 84.6589226,19.6750964 86.3500224,19.6750964 Z" id="Shape" fill="#888B94"></path>
                    <path d="M103.680563,16.4054686 C103.680563,19.5815444 101.389021,21.8890725 98.2620816,21.8890725 C95.1351423,21.8890725 92.8639053,19.5815444 92.8639053,16.4054686 C92.8639053,13.2293928 95.1554472,10.9447968 98.2620816,10.9447968 C101.368716,10.9447968 103.680563,13.2494583 103.680563,16.4054686 Z M101.17437,16.4054686 C101.17437,14.2670638 99.8023457,13.16633 98.2736843,13.16633 C96.7450229,13.16633 95.3729986,14.2670638 95.3729986,16.4054686 C95.3729986,18.5438735 96.7653277,19.6876048 98.2736843,19.6876048 C99.782041,19.6876048 101.17437,18.5639389 101.17437,16.4054686 Z" id="Shape" fill="#888B94"></path>
                    <path d="M107.154527,21.5553285 L104.668639,21.5553285 L104.668639,11.2359487 L107.090712,11.2359487 L107.090712,12.617599 C107.734597,11.5479587 108.915306,10.9080343 110.174141,10.9464327 C112.723843,10.9464327 113.945032,12.7666567 113.945032,15.0311872 L113.945032,21.5553285 L111.459145,21.5553285 L111.459145,15.4582949 C111.459145,14.1884379 110.879007,13.1650994 109.315538,13.1650994 C107.902904,13.1650994 107.151626,14.2457678 107.151626,15.5987531 L107.154527,21.5553285 Z" id="Shape" fill="#888B94"></path>
                    <path d="M124.956086,18.6327348 C124.399155,20.4328933 122.748664,21.8919389 120.242472,21.8919389 C117.414303,21.8919389 114.899408,19.8595944 114.899408,16.3653377 C114.899408,13.1061336 117.341786,10.9447968 119.975608,10.9447968 C123.189568,10.9447968 125.075014,13.0402042 125.075014,16.3022748 C125.082442,16.5646388 125.061044,16.8270248 125.011199,17.0848278 L117.393998,17.0848278 C117.433578,18.6027297 118.706264,19.8040616 120.242472,19.7735995 C121.742126,19.7735995 122.513709,18.9910466 122.853089,17.9734411 L124.956086,18.6327348 Z M122.577524,15.2875358 C122.534014,14.0807417 121.707318,12.9943403 120.007516,12.9943403 C118.676063,12.9678969 117.55619,13.9751076 117.457813,15.2875358 L122.577524,15.2875358 Z" id="Shape" fill="#888B94"></path>
                    <polygon id="Shape" fill="#888B94" points="129.386168 19.0692237 129.386168 21.1073012 129.069994 21.1073012 129.069994 19.0692237 128.278107 19.0692237 128.278107 18.7625088 130.186758 18.7625088 130.186758 19.0491582"></polygon>
                    <polygon id="Shape" fill="#888B94" points="132.073996 21.1073012 132.073996 19.2870773 131.267606 21.1073012 130.977537 21.1073012 130.176948 19.2870773 130.176948 21.1073012 129.852071 21.1073012 129.852071 18.7625088 130.295876 18.7625088 131.131273 20.6658611 131.972472 18.7625088 132.410476 18.7625088 132.410476 21.1015682"></polygon>
                    <path d="M34.497856,1.45673293 C33.5348284,1.06688968 25.1344424,-2.10345312 17.7608991,2.3940766 C11.0748184,-1.68494494 3.54753871,0.510789771 1.34881889,1.30767521 C0.568701865,1.58160585 0.0350054308,2.29615534 0,3.11356669 L0,22.172888 L0.0754178302,24.1278371 L1.93185674,23.2908208 C2.01017525,23.2592893 9.84202688,20.2208053 16.3917753,23.947248 L16.3917753,23.947248 C16.4967348,24.020484 16.6084173,24.0838246 16.7253542,24.1364366 C17.0732689,24.3492776 17.4765906,24.4568909 17.8856286,24.446018 C18.3478093,24.4608606 18.8005755,24.3147613 19.164831,24.0332428 C25.7000761,20.1061455 33.473914,23.3194857 33.5493318,23.3510172 L35.3796645,24.1364366 L35.3796645,2.76385437 C35.3828237,2.1912539 35.0339299,1.6740821 34.497856,1.45673293 L34.497856,1.45673293 Z M10.4424688,10.7613738 L10.4424688,19.5557786 C9.90294127,19.5127812 9.30249932,19.4898492 8.78907792,19.4898492 L8.12192017,19.4898492 L8.12192017,17.3543109 L5.22123442,17.3543109 L5.22123442,19.7850981 C4.34058909,19.9263893 3.46893301,20.1178074 2.61061721,20.358397 L2.61061721,3.57793878 C5.22123442,2.80398529 11.0226059,1.33920665 16.3598678,4.61560975 L16.4149808,21.158149 C15.4336195,20.6770261 14.4040927,20.2985065 13.3431546,20.0287501 L13.3431546,10.7613738 L10.4424688,10.7613738 Z M32.7777494,20.36413 C31.9230047,20.1098081 31.0504279,19.9181878 30.1671321,19.7908311 L30.1671321,7.60822991 L26.9763778,7.60822991 L26.9763778,19.4927157 C26.2015217,19.4798608 25.4265887,19.5133644 24.6558292,19.593043 L24.6558292,11.6213221 L21.7551434,11.6213221 L21.7551434,20.14341 C20.8296653,20.4019433 19.9296996,20.7425278 19.0662076,21.1610154 L19.0923138,4.61847625 C24.473086,1.31054171 30.4572007,2.85271569 32.7777494,3.57793878 L32.7777494,20.36413 Z" id="Shape" fill="url(#linearGradient-1)"></path>
                </g>
            </g>
        </g>
    </g>
</svg>